%TF.GenerationSoftware,KiCad,Pcbnew,5.0.0-fee4fd1~66~ubuntu16.04.1*%
%TF.CreationDate,2020-03-09T22:27:40+01:00*%
%TF.ProjectId,robotond2020_ch340,726F626F746F6E64323032305F636833,rev?*%
%TF.SameCoordinates,Original*%
%TF.FileFunction,Paste,Bot*%
%TF.FilePolarity,Positive*%
%FSLAX46Y46*%
G04 Gerber Fmt 4.6, Leading zero omitted, Abs format (unit mm)*
G04 Created by KiCad (PCBNEW 5.0.0-fee4fd1~66~ubuntu16.04.1) date Mon Mar  9 22:27:40 2020*
%MOMM*%
%LPD*%
G01*
G04 APERTURE LIST*
%ADD10C,0.200000*%
%ADD11C,0.150000*%
%ADD12R,2.500000X2.300000*%
%ADD13C,1.150000*%
%ADD14C,0.600000*%
G04 APERTURE END LIST*
D10*
X197600000Y-96000000D02*
G75*
G03X197600000Y-96000000I-1600000J0D01*
G01*
X105600000Y-96000000D02*
G75*
G03X105600000Y-96000000I-1600000J0D01*
G01*
X105600000Y-54000000D02*
G75*
G03X105600000Y-54000000I-1600000J0D01*
G01*
X197600000Y-54000000D02*
G75*
G03X197600000Y-54000000I-1600000J0D01*
G01*
D11*
X100000000Y-100000000D02*
X100000000Y-50000000D01*
X200000000Y-100000000D02*
X100000000Y-100000000D01*
X200000000Y-50000000D02*
X200000000Y-100000000D01*
X100000000Y-50000000D02*
X200000000Y-50000000D01*
D12*
X167500000Y-90300000D03*
X163200000Y-90300000D03*
X154650000Y-90300000D03*
X158950000Y-90300000D03*
X150450000Y-90300000D03*
X146150000Y-90300000D03*
D11*
G36*
X117449506Y-67001204D02*
X117473774Y-67004804D01*
X117497573Y-67010765D01*
X117520672Y-67019030D01*
X117542851Y-67029520D01*
X117563894Y-67042132D01*
X117583600Y-67056747D01*
X117601778Y-67073223D01*
X117618254Y-67091401D01*
X117632869Y-67111107D01*
X117645481Y-67132150D01*
X117655971Y-67154329D01*
X117664236Y-67177428D01*
X117670197Y-67201227D01*
X117673797Y-67225495D01*
X117675001Y-67249999D01*
X117675001Y-68150001D01*
X117673797Y-68174505D01*
X117670197Y-68198773D01*
X117664236Y-68222572D01*
X117655971Y-68245671D01*
X117645481Y-68267850D01*
X117632869Y-68288893D01*
X117618254Y-68308599D01*
X117601778Y-68326777D01*
X117583600Y-68343253D01*
X117563894Y-68357868D01*
X117542851Y-68370480D01*
X117520672Y-68380970D01*
X117497573Y-68389235D01*
X117473774Y-68395196D01*
X117449506Y-68398796D01*
X117425002Y-68400000D01*
X116775000Y-68400000D01*
X116750496Y-68398796D01*
X116726228Y-68395196D01*
X116702429Y-68389235D01*
X116679330Y-68380970D01*
X116657151Y-68370480D01*
X116636108Y-68357868D01*
X116616402Y-68343253D01*
X116598224Y-68326777D01*
X116581748Y-68308599D01*
X116567133Y-68288893D01*
X116554521Y-68267850D01*
X116544031Y-68245671D01*
X116535766Y-68222572D01*
X116529805Y-68198773D01*
X116526205Y-68174505D01*
X116525001Y-68150001D01*
X116525001Y-67249999D01*
X116526205Y-67225495D01*
X116529805Y-67201227D01*
X116535766Y-67177428D01*
X116544031Y-67154329D01*
X116554521Y-67132150D01*
X116567133Y-67111107D01*
X116581748Y-67091401D01*
X116598224Y-67073223D01*
X116616402Y-67056747D01*
X116636108Y-67042132D01*
X116657151Y-67029520D01*
X116679330Y-67019030D01*
X116702429Y-67010765D01*
X116726228Y-67004804D01*
X116750496Y-67001204D01*
X116775000Y-67000000D01*
X117425002Y-67000000D01*
X117449506Y-67001204D01*
X117449506Y-67001204D01*
G37*
D13*
X117100001Y-67700000D03*
D11*
G36*
X115399506Y-67001204D02*
X115423774Y-67004804D01*
X115447573Y-67010765D01*
X115470672Y-67019030D01*
X115492851Y-67029520D01*
X115513894Y-67042132D01*
X115533600Y-67056747D01*
X115551778Y-67073223D01*
X115568254Y-67091401D01*
X115582869Y-67111107D01*
X115595481Y-67132150D01*
X115605971Y-67154329D01*
X115614236Y-67177428D01*
X115620197Y-67201227D01*
X115623797Y-67225495D01*
X115625001Y-67249999D01*
X115625001Y-68150001D01*
X115623797Y-68174505D01*
X115620197Y-68198773D01*
X115614236Y-68222572D01*
X115605971Y-68245671D01*
X115595481Y-68267850D01*
X115582869Y-68288893D01*
X115568254Y-68308599D01*
X115551778Y-68326777D01*
X115533600Y-68343253D01*
X115513894Y-68357868D01*
X115492851Y-68370480D01*
X115470672Y-68380970D01*
X115447573Y-68389235D01*
X115423774Y-68395196D01*
X115399506Y-68398796D01*
X115375002Y-68400000D01*
X114725000Y-68400000D01*
X114700496Y-68398796D01*
X114676228Y-68395196D01*
X114652429Y-68389235D01*
X114629330Y-68380970D01*
X114607151Y-68370480D01*
X114586108Y-68357868D01*
X114566402Y-68343253D01*
X114548224Y-68326777D01*
X114531748Y-68308599D01*
X114517133Y-68288893D01*
X114504521Y-68267850D01*
X114494031Y-68245671D01*
X114485766Y-68222572D01*
X114479805Y-68198773D01*
X114476205Y-68174505D01*
X114475001Y-68150001D01*
X114475001Y-67249999D01*
X114476205Y-67225495D01*
X114479805Y-67201227D01*
X114485766Y-67177428D01*
X114494031Y-67154329D01*
X114504521Y-67132150D01*
X114517133Y-67111107D01*
X114531748Y-67091401D01*
X114548224Y-67073223D01*
X114566402Y-67056747D01*
X114586108Y-67042132D01*
X114607151Y-67029520D01*
X114629330Y-67019030D01*
X114652429Y-67010765D01*
X114676228Y-67004804D01*
X114700496Y-67001204D01*
X114725000Y-67000000D01*
X115375002Y-67000000D01*
X115399506Y-67001204D01*
X115399506Y-67001204D01*
G37*
D13*
X115050001Y-67700000D03*
D11*
G36*
X106874505Y-71501204D02*
X106898773Y-71504804D01*
X106922572Y-71510765D01*
X106945671Y-71519030D01*
X106967850Y-71529520D01*
X106988893Y-71542132D01*
X107008599Y-71556747D01*
X107026777Y-71573223D01*
X107043253Y-71591401D01*
X107057868Y-71611107D01*
X107070480Y-71632150D01*
X107080970Y-71654329D01*
X107089235Y-71677428D01*
X107095196Y-71701227D01*
X107098796Y-71725495D01*
X107100000Y-71749999D01*
X107100000Y-72650001D01*
X107098796Y-72674505D01*
X107095196Y-72698773D01*
X107089235Y-72722572D01*
X107080970Y-72745671D01*
X107070480Y-72767850D01*
X107057868Y-72788893D01*
X107043253Y-72808599D01*
X107026777Y-72826777D01*
X107008599Y-72843253D01*
X106988893Y-72857868D01*
X106967850Y-72870480D01*
X106945671Y-72880970D01*
X106922572Y-72889235D01*
X106898773Y-72895196D01*
X106874505Y-72898796D01*
X106850001Y-72900000D01*
X106199999Y-72900000D01*
X106175495Y-72898796D01*
X106151227Y-72895196D01*
X106127428Y-72889235D01*
X106104329Y-72880970D01*
X106082150Y-72870480D01*
X106061107Y-72857868D01*
X106041401Y-72843253D01*
X106023223Y-72826777D01*
X106006747Y-72808599D01*
X105992132Y-72788893D01*
X105979520Y-72767850D01*
X105969030Y-72745671D01*
X105960765Y-72722572D01*
X105954804Y-72698773D01*
X105951204Y-72674505D01*
X105950000Y-72650001D01*
X105950000Y-71749999D01*
X105951204Y-71725495D01*
X105954804Y-71701227D01*
X105960765Y-71677428D01*
X105969030Y-71654329D01*
X105979520Y-71632150D01*
X105992132Y-71611107D01*
X106006747Y-71591401D01*
X106023223Y-71573223D01*
X106041401Y-71556747D01*
X106061107Y-71542132D01*
X106082150Y-71529520D01*
X106104329Y-71519030D01*
X106127428Y-71510765D01*
X106151227Y-71504804D01*
X106175495Y-71501204D01*
X106199999Y-71500000D01*
X106850001Y-71500000D01*
X106874505Y-71501204D01*
X106874505Y-71501204D01*
G37*
D13*
X106525000Y-72200000D03*
D11*
G36*
X104824505Y-71501204D02*
X104848773Y-71504804D01*
X104872572Y-71510765D01*
X104895671Y-71519030D01*
X104917850Y-71529520D01*
X104938893Y-71542132D01*
X104958599Y-71556747D01*
X104976777Y-71573223D01*
X104993253Y-71591401D01*
X105007868Y-71611107D01*
X105020480Y-71632150D01*
X105030970Y-71654329D01*
X105039235Y-71677428D01*
X105045196Y-71701227D01*
X105048796Y-71725495D01*
X105050000Y-71749999D01*
X105050000Y-72650001D01*
X105048796Y-72674505D01*
X105045196Y-72698773D01*
X105039235Y-72722572D01*
X105030970Y-72745671D01*
X105020480Y-72767850D01*
X105007868Y-72788893D01*
X104993253Y-72808599D01*
X104976777Y-72826777D01*
X104958599Y-72843253D01*
X104938893Y-72857868D01*
X104917850Y-72870480D01*
X104895671Y-72880970D01*
X104872572Y-72889235D01*
X104848773Y-72895196D01*
X104824505Y-72898796D01*
X104800001Y-72900000D01*
X104149999Y-72900000D01*
X104125495Y-72898796D01*
X104101227Y-72895196D01*
X104077428Y-72889235D01*
X104054329Y-72880970D01*
X104032150Y-72870480D01*
X104011107Y-72857868D01*
X103991401Y-72843253D01*
X103973223Y-72826777D01*
X103956747Y-72808599D01*
X103942132Y-72788893D01*
X103929520Y-72767850D01*
X103919030Y-72745671D01*
X103910765Y-72722572D01*
X103904804Y-72698773D01*
X103901204Y-72674505D01*
X103900000Y-72650001D01*
X103900000Y-71749999D01*
X103901204Y-71725495D01*
X103904804Y-71701227D01*
X103910765Y-71677428D01*
X103919030Y-71654329D01*
X103929520Y-71632150D01*
X103942132Y-71611107D01*
X103956747Y-71591401D01*
X103973223Y-71573223D01*
X103991401Y-71556747D01*
X104011107Y-71542132D01*
X104032150Y-71529520D01*
X104054329Y-71519030D01*
X104077428Y-71510765D01*
X104101227Y-71504804D01*
X104125495Y-71501204D01*
X104149999Y-71500000D01*
X104800001Y-71500000D01*
X104824505Y-71501204D01*
X104824505Y-71501204D01*
G37*
D13*
X104475000Y-72200000D03*
D11*
G36*
X112274505Y-54201204D02*
X112298773Y-54204804D01*
X112322572Y-54210765D01*
X112345671Y-54219030D01*
X112367850Y-54229520D01*
X112388893Y-54242132D01*
X112408599Y-54256747D01*
X112426777Y-54273223D01*
X112443253Y-54291401D01*
X112457868Y-54311107D01*
X112470480Y-54332150D01*
X112480970Y-54354329D01*
X112489235Y-54377428D01*
X112495196Y-54401227D01*
X112498796Y-54425495D01*
X112500000Y-54449999D01*
X112500000Y-55350001D01*
X112498796Y-55374505D01*
X112495196Y-55398773D01*
X112489235Y-55422572D01*
X112480970Y-55445671D01*
X112470480Y-55467850D01*
X112457868Y-55488893D01*
X112443253Y-55508599D01*
X112426777Y-55526777D01*
X112408599Y-55543253D01*
X112388893Y-55557868D01*
X112367850Y-55570480D01*
X112345671Y-55580970D01*
X112322572Y-55589235D01*
X112298773Y-55595196D01*
X112274505Y-55598796D01*
X112250001Y-55600000D01*
X111599999Y-55600000D01*
X111575495Y-55598796D01*
X111551227Y-55595196D01*
X111527428Y-55589235D01*
X111504329Y-55580970D01*
X111482150Y-55570480D01*
X111461107Y-55557868D01*
X111441401Y-55543253D01*
X111423223Y-55526777D01*
X111406747Y-55508599D01*
X111392132Y-55488893D01*
X111379520Y-55467850D01*
X111369030Y-55445671D01*
X111360765Y-55422572D01*
X111354804Y-55398773D01*
X111351204Y-55374505D01*
X111350000Y-55350001D01*
X111350000Y-54449999D01*
X111351204Y-54425495D01*
X111354804Y-54401227D01*
X111360765Y-54377428D01*
X111369030Y-54354329D01*
X111379520Y-54332150D01*
X111392132Y-54311107D01*
X111406747Y-54291401D01*
X111423223Y-54273223D01*
X111441401Y-54256747D01*
X111461107Y-54242132D01*
X111482150Y-54229520D01*
X111504329Y-54219030D01*
X111527428Y-54210765D01*
X111551227Y-54204804D01*
X111575495Y-54201204D01*
X111599999Y-54200000D01*
X112250001Y-54200000D01*
X112274505Y-54201204D01*
X112274505Y-54201204D01*
G37*
D13*
X111925000Y-54900000D03*
D11*
G36*
X110224505Y-54201204D02*
X110248773Y-54204804D01*
X110272572Y-54210765D01*
X110295671Y-54219030D01*
X110317850Y-54229520D01*
X110338893Y-54242132D01*
X110358599Y-54256747D01*
X110376777Y-54273223D01*
X110393253Y-54291401D01*
X110407868Y-54311107D01*
X110420480Y-54332150D01*
X110430970Y-54354329D01*
X110439235Y-54377428D01*
X110445196Y-54401227D01*
X110448796Y-54425495D01*
X110450000Y-54449999D01*
X110450000Y-55350001D01*
X110448796Y-55374505D01*
X110445196Y-55398773D01*
X110439235Y-55422572D01*
X110430970Y-55445671D01*
X110420480Y-55467850D01*
X110407868Y-55488893D01*
X110393253Y-55508599D01*
X110376777Y-55526777D01*
X110358599Y-55543253D01*
X110338893Y-55557868D01*
X110317850Y-55570480D01*
X110295671Y-55580970D01*
X110272572Y-55589235D01*
X110248773Y-55595196D01*
X110224505Y-55598796D01*
X110200001Y-55600000D01*
X109549999Y-55600000D01*
X109525495Y-55598796D01*
X109501227Y-55595196D01*
X109477428Y-55589235D01*
X109454329Y-55580970D01*
X109432150Y-55570480D01*
X109411107Y-55557868D01*
X109391401Y-55543253D01*
X109373223Y-55526777D01*
X109356747Y-55508599D01*
X109342132Y-55488893D01*
X109329520Y-55467850D01*
X109319030Y-55445671D01*
X109310765Y-55422572D01*
X109304804Y-55398773D01*
X109301204Y-55374505D01*
X109300000Y-55350001D01*
X109300000Y-54449999D01*
X109301204Y-54425495D01*
X109304804Y-54401227D01*
X109310765Y-54377428D01*
X109319030Y-54354329D01*
X109329520Y-54332150D01*
X109342132Y-54311107D01*
X109356747Y-54291401D01*
X109373223Y-54273223D01*
X109391401Y-54256747D01*
X109411107Y-54242132D01*
X109432150Y-54229520D01*
X109454329Y-54219030D01*
X109477428Y-54210765D01*
X109501227Y-54204804D01*
X109525495Y-54201204D01*
X109549999Y-54200000D01*
X110200001Y-54200000D01*
X110224505Y-54201204D01*
X110224505Y-54201204D01*
G37*
D13*
X109875000Y-54900000D03*
D11*
G36*
X109924505Y-68901204D02*
X109948773Y-68904804D01*
X109972572Y-68910765D01*
X109995671Y-68919030D01*
X110017850Y-68929520D01*
X110038893Y-68942132D01*
X110058599Y-68956747D01*
X110076777Y-68973223D01*
X110093253Y-68991401D01*
X110107868Y-69011107D01*
X110120480Y-69032150D01*
X110130970Y-69054329D01*
X110139235Y-69077428D01*
X110145196Y-69101227D01*
X110148796Y-69125495D01*
X110150000Y-69149999D01*
X110150000Y-70050001D01*
X110148796Y-70074505D01*
X110145196Y-70098773D01*
X110139235Y-70122572D01*
X110130970Y-70145671D01*
X110120480Y-70167850D01*
X110107868Y-70188893D01*
X110093253Y-70208599D01*
X110076777Y-70226777D01*
X110058599Y-70243253D01*
X110038893Y-70257868D01*
X110017850Y-70270480D01*
X109995671Y-70280970D01*
X109972572Y-70289235D01*
X109948773Y-70295196D01*
X109924505Y-70298796D01*
X109900001Y-70300000D01*
X109249999Y-70300000D01*
X109225495Y-70298796D01*
X109201227Y-70295196D01*
X109177428Y-70289235D01*
X109154329Y-70280970D01*
X109132150Y-70270480D01*
X109111107Y-70257868D01*
X109091401Y-70243253D01*
X109073223Y-70226777D01*
X109056747Y-70208599D01*
X109042132Y-70188893D01*
X109029520Y-70167850D01*
X109019030Y-70145671D01*
X109010765Y-70122572D01*
X109004804Y-70098773D01*
X109001204Y-70074505D01*
X109000000Y-70050001D01*
X109000000Y-69149999D01*
X109001204Y-69125495D01*
X109004804Y-69101227D01*
X109010765Y-69077428D01*
X109019030Y-69054329D01*
X109029520Y-69032150D01*
X109042132Y-69011107D01*
X109056747Y-68991401D01*
X109073223Y-68973223D01*
X109091401Y-68956747D01*
X109111107Y-68942132D01*
X109132150Y-68929520D01*
X109154329Y-68919030D01*
X109177428Y-68910765D01*
X109201227Y-68904804D01*
X109225495Y-68901204D01*
X109249999Y-68900000D01*
X109900001Y-68900000D01*
X109924505Y-68901204D01*
X109924505Y-68901204D01*
G37*
D13*
X109575000Y-69600000D03*
D11*
G36*
X111974505Y-68901204D02*
X111998773Y-68904804D01*
X112022572Y-68910765D01*
X112045671Y-68919030D01*
X112067850Y-68929520D01*
X112088893Y-68942132D01*
X112108599Y-68956747D01*
X112126777Y-68973223D01*
X112143253Y-68991401D01*
X112157868Y-69011107D01*
X112170480Y-69032150D01*
X112180970Y-69054329D01*
X112189235Y-69077428D01*
X112195196Y-69101227D01*
X112198796Y-69125495D01*
X112200000Y-69149999D01*
X112200000Y-70050001D01*
X112198796Y-70074505D01*
X112195196Y-70098773D01*
X112189235Y-70122572D01*
X112180970Y-70145671D01*
X112170480Y-70167850D01*
X112157868Y-70188893D01*
X112143253Y-70208599D01*
X112126777Y-70226777D01*
X112108599Y-70243253D01*
X112088893Y-70257868D01*
X112067850Y-70270480D01*
X112045671Y-70280970D01*
X112022572Y-70289235D01*
X111998773Y-70295196D01*
X111974505Y-70298796D01*
X111950001Y-70300000D01*
X111299999Y-70300000D01*
X111275495Y-70298796D01*
X111251227Y-70295196D01*
X111227428Y-70289235D01*
X111204329Y-70280970D01*
X111182150Y-70270480D01*
X111161107Y-70257868D01*
X111141401Y-70243253D01*
X111123223Y-70226777D01*
X111106747Y-70208599D01*
X111092132Y-70188893D01*
X111079520Y-70167850D01*
X111069030Y-70145671D01*
X111060765Y-70122572D01*
X111054804Y-70098773D01*
X111051204Y-70074505D01*
X111050000Y-70050001D01*
X111050000Y-69149999D01*
X111051204Y-69125495D01*
X111054804Y-69101227D01*
X111060765Y-69077428D01*
X111069030Y-69054329D01*
X111079520Y-69032150D01*
X111092132Y-69011107D01*
X111106747Y-68991401D01*
X111123223Y-68973223D01*
X111141401Y-68956747D01*
X111161107Y-68942132D01*
X111182150Y-68929520D01*
X111204329Y-68919030D01*
X111227428Y-68910765D01*
X111251227Y-68904804D01*
X111275495Y-68901204D01*
X111299999Y-68900000D01*
X111950001Y-68900000D01*
X111974505Y-68901204D01*
X111974505Y-68901204D01*
G37*
D13*
X111625000Y-69600000D03*
D11*
G36*
X108364703Y-67345722D02*
X108379264Y-67347882D01*
X108393543Y-67351459D01*
X108407403Y-67356418D01*
X108420710Y-67362712D01*
X108433336Y-67370280D01*
X108445159Y-67379048D01*
X108456066Y-67388934D01*
X108465952Y-67399841D01*
X108474720Y-67411664D01*
X108482288Y-67424290D01*
X108488582Y-67437597D01*
X108493541Y-67451457D01*
X108497118Y-67465736D01*
X108499278Y-67480297D01*
X108500000Y-67495000D01*
X108500000Y-67795000D01*
X108499278Y-67809703D01*
X108497118Y-67824264D01*
X108493541Y-67838543D01*
X108488582Y-67852403D01*
X108482288Y-67865710D01*
X108474720Y-67878336D01*
X108465952Y-67890159D01*
X108456066Y-67901066D01*
X108445159Y-67910952D01*
X108433336Y-67919720D01*
X108420710Y-67927288D01*
X108407403Y-67933582D01*
X108393543Y-67938541D01*
X108379264Y-67942118D01*
X108364703Y-67944278D01*
X108350000Y-67945000D01*
X106700000Y-67945000D01*
X106685297Y-67944278D01*
X106670736Y-67942118D01*
X106656457Y-67938541D01*
X106642597Y-67933582D01*
X106629290Y-67927288D01*
X106616664Y-67919720D01*
X106604841Y-67910952D01*
X106593934Y-67901066D01*
X106584048Y-67890159D01*
X106575280Y-67878336D01*
X106567712Y-67865710D01*
X106561418Y-67852403D01*
X106556459Y-67838543D01*
X106552882Y-67824264D01*
X106550722Y-67809703D01*
X106550000Y-67795000D01*
X106550000Y-67495000D01*
X106550722Y-67480297D01*
X106552882Y-67465736D01*
X106556459Y-67451457D01*
X106561418Y-67437597D01*
X106567712Y-67424290D01*
X106575280Y-67411664D01*
X106584048Y-67399841D01*
X106593934Y-67388934D01*
X106604841Y-67379048D01*
X106616664Y-67370280D01*
X106629290Y-67362712D01*
X106642597Y-67356418D01*
X106656457Y-67351459D01*
X106670736Y-67347882D01*
X106685297Y-67345722D01*
X106700000Y-67345000D01*
X108350000Y-67345000D01*
X108364703Y-67345722D01*
X108364703Y-67345722D01*
G37*
D14*
X107525000Y-67645000D03*
D11*
G36*
X108364703Y-66075722D02*
X108379264Y-66077882D01*
X108393543Y-66081459D01*
X108407403Y-66086418D01*
X108420710Y-66092712D01*
X108433336Y-66100280D01*
X108445159Y-66109048D01*
X108456066Y-66118934D01*
X108465952Y-66129841D01*
X108474720Y-66141664D01*
X108482288Y-66154290D01*
X108488582Y-66167597D01*
X108493541Y-66181457D01*
X108497118Y-66195736D01*
X108499278Y-66210297D01*
X108500000Y-66225000D01*
X108500000Y-66525000D01*
X108499278Y-66539703D01*
X108497118Y-66554264D01*
X108493541Y-66568543D01*
X108488582Y-66582403D01*
X108482288Y-66595710D01*
X108474720Y-66608336D01*
X108465952Y-66620159D01*
X108456066Y-66631066D01*
X108445159Y-66640952D01*
X108433336Y-66649720D01*
X108420710Y-66657288D01*
X108407403Y-66663582D01*
X108393543Y-66668541D01*
X108379264Y-66672118D01*
X108364703Y-66674278D01*
X108350000Y-66675000D01*
X106700000Y-66675000D01*
X106685297Y-66674278D01*
X106670736Y-66672118D01*
X106656457Y-66668541D01*
X106642597Y-66663582D01*
X106629290Y-66657288D01*
X106616664Y-66649720D01*
X106604841Y-66640952D01*
X106593934Y-66631066D01*
X106584048Y-66620159D01*
X106575280Y-66608336D01*
X106567712Y-66595710D01*
X106561418Y-66582403D01*
X106556459Y-66568543D01*
X106552882Y-66554264D01*
X106550722Y-66539703D01*
X106550000Y-66525000D01*
X106550000Y-66225000D01*
X106550722Y-66210297D01*
X106552882Y-66195736D01*
X106556459Y-66181457D01*
X106561418Y-66167597D01*
X106567712Y-66154290D01*
X106575280Y-66141664D01*
X106584048Y-66129841D01*
X106593934Y-66118934D01*
X106604841Y-66109048D01*
X106616664Y-66100280D01*
X106629290Y-66092712D01*
X106642597Y-66086418D01*
X106656457Y-66081459D01*
X106670736Y-66077882D01*
X106685297Y-66075722D01*
X106700000Y-66075000D01*
X108350000Y-66075000D01*
X108364703Y-66075722D01*
X108364703Y-66075722D01*
G37*
D14*
X107525000Y-66375000D03*
D11*
G36*
X108364703Y-64805722D02*
X108379264Y-64807882D01*
X108393543Y-64811459D01*
X108407403Y-64816418D01*
X108420710Y-64822712D01*
X108433336Y-64830280D01*
X108445159Y-64839048D01*
X108456066Y-64848934D01*
X108465952Y-64859841D01*
X108474720Y-64871664D01*
X108482288Y-64884290D01*
X108488582Y-64897597D01*
X108493541Y-64911457D01*
X108497118Y-64925736D01*
X108499278Y-64940297D01*
X108500000Y-64955000D01*
X108500000Y-65255000D01*
X108499278Y-65269703D01*
X108497118Y-65284264D01*
X108493541Y-65298543D01*
X108488582Y-65312403D01*
X108482288Y-65325710D01*
X108474720Y-65338336D01*
X108465952Y-65350159D01*
X108456066Y-65361066D01*
X108445159Y-65370952D01*
X108433336Y-65379720D01*
X108420710Y-65387288D01*
X108407403Y-65393582D01*
X108393543Y-65398541D01*
X108379264Y-65402118D01*
X108364703Y-65404278D01*
X108350000Y-65405000D01*
X106700000Y-65405000D01*
X106685297Y-65404278D01*
X106670736Y-65402118D01*
X106656457Y-65398541D01*
X106642597Y-65393582D01*
X106629290Y-65387288D01*
X106616664Y-65379720D01*
X106604841Y-65370952D01*
X106593934Y-65361066D01*
X106584048Y-65350159D01*
X106575280Y-65338336D01*
X106567712Y-65325710D01*
X106561418Y-65312403D01*
X106556459Y-65298543D01*
X106552882Y-65284264D01*
X106550722Y-65269703D01*
X106550000Y-65255000D01*
X106550000Y-64955000D01*
X106550722Y-64940297D01*
X106552882Y-64925736D01*
X106556459Y-64911457D01*
X106561418Y-64897597D01*
X106567712Y-64884290D01*
X106575280Y-64871664D01*
X106584048Y-64859841D01*
X106593934Y-64848934D01*
X106604841Y-64839048D01*
X106616664Y-64830280D01*
X106629290Y-64822712D01*
X106642597Y-64816418D01*
X106656457Y-64811459D01*
X106670736Y-64807882D01*
X106685297Y-64805722D01*
X106700000Y-64805000D01*
X108350000Y-64805000D01*
X108364703Y-64805722D01*
X108364703Y-64805722D01*
G37*
D14*
X107525000Y-65105000D03*
D11*
G36*
X108364703Y-63535722D02*
X108379264Y-63537882D01*
X108393543Y-63541459D01*
X108407403Y-63546418D01*
X108420710Y-63552712D01*
X108433336Y-63560280D01*
X108445159Y-63569048D01*
X108456066Y-63578934D01*
X108465952Y-63589841D01*
X108474720Y-63601664D01*
X108482288Y-63614290D01*
X108488582Y-63627597D01*
X108493541Y-63641457D01*
X108497118Y-63655736D01*
X108499278Y-63670297D01*
X108500000Y-63685000D01*
X108500000Y-63985000D01*
X108499278Y-63999703D01*
X108497118Y-64014264D01*
X108493541Y-64028543D01*
X108488582Y-64042403D01*
X108482288Y-64055710D01*
X108474720Y-64068336D01*
X108465952Y-64080159D01*
X108456066Y-64091066D01*
X108445159Y-64100952D01*
X108433336Y-64109720D01*
X108420710Y-64117288D01*
X108407403Y-64123582D01*
X108393543Y-64128541D01*
X108379264Y-64132118D01*
X108364703Y-64134278D01*
X108350000Y-64135000D01*
X106700000Y-64135000D01*
X106685297Y-64134278D01*
X106670736Y-64132118D01*
X106656457Y-64128541D01*
X106642597Y-64123582D01*
X106629290Y-64117288D01*
X106616664Y-64109720D01*
X106604841Y-64100952D01*
X106593934Y-64091066D01*
X106584048Y-64080159D01*
X106575280Y-64068336D01*
X106567712Y-64055710D01*
X106561418Y-64042403D01*
X106556459Y-64028543D01*
X106552882Y-64014264D01*
X106550722Y-63999703D01*
X106550000Y-63985000D01*
X106550000Y-63685000D01*
X106550722Y-63670297D01*
X106552882Y-63655736D01*
X106556459Y-63641457D01*
X106561418Y-63627597D01*
X106567712Y-63614290D01*
X106575280Y-63601664D01*
X106584048Y-63589841D01*
X106593934Y-63578934D01*
X106604841Y-63569048D01*
X106616664Y-63560280D01*
X106629290Y-63552712D01*
X106642597Y-63546418D01*
X106656457Y-63541459D01*
X106670736Y-63537882D01*
X106685297Y-63535722D01*
X106700000Y-63535000D01*
X108350000Y-63535000D01*
X108364703Y-63535722D01*
X108364703Y-63535722D01*
G37*
D14*
X107525000Y-63835000D03*
D11*
G36*
X108364703Y-62265722D02*
X108379264Y-62267882D01*
X108393543Y-62271459D01*
X108407403Y-62276418D01*
X108420710Y-62282712D01*
X108433336Y-62290280D01*
X108445159Y-62299048D01*
X108456066Y-62308934D01*
X108465952Y-62319841D01*
X108474720Y-62331664D01*
X108482288Y-62344290D01*
X108488582Y-62357597D01*
X108493541Y-62371457D01*
X108497118Y-62385736D01*
X108499278Y-62400297D01*
X108500000Y-62415000D01*
X108500000Y-62715000D01*
X108499278Y-62729703D01*
X108497118Y-62744264D01*
X108493541Y-62758543D01*
X108488582Y-62772403D01*
X108482288Y-62785710D01*
X108474720Y-62798336D01*
X108465952Y-62810159D01*
X108456066Y-62821066D01*
X108445159Y-62830952D01*
X108433336Y-62839720D01*
X108420710Y-62847288D01*
X108407403Y-62853582D01*
X108393543Y-62858541D01*
X108379264Y-62862118D01*
X108364703Y-62864278D01*
X108350000Y-62865000D01*
X106700000Y-62865000D01*
X106685297Y-62864278D01*
X106670736Y-62862118D01*
X106656457Y-62858541D01*
X106642597Y-62853582D01*
X106629290Y-62847288D01*
X106616664Y-62839720D01*
X106604841Y-62830952D01*
X106593934Y-62821066D01*
X106584048Y-62810159D01*
X106575280Y-62798336D01*
X106567712Y-62785710D01*
X106561418Y-62772403D01*
X106556459Y-62758543D01*
X106552882Y-62744264D01*
X106550722Y-62729703D01*
X106550000Y-62715000D01*
X106550000Y-62415000D01*
X106550722Y-62400297D01*
X106552882Y-62385736D01*
X106556459Y-62371457D01*
X106561418Y-62357597D01*
X106567712Y-62344290D01*
X106575280Y-62331664D01*
X106584048Y-62319841D01*
X106593934Y-62308934D01*
X106604841Y-62299048D01*
X106616664Y-62290280D01*
X106629290Y-62282712D01*
X106642597Y-62276418D01*
X106656457Y-62271459D01*
X106670736Y-62267882D01*
X106685297Y-62265722D01*
X106700000Y-62265000D01*
X108350000Y-62265000D01*
X108364703Y-62265722D01*
X108364703Y-62265722D01*
G37*
D14*
X107525000Y-62565000D03*
D11*
G36*
X108364703Y-60995722D02*
X108379264Y-60997882D01*
X108393543Y-61001459D01*
X108407403Y-61006418D01*
X108420710Y-61012712D01*
X108433336Y-61020280D01*
X108445159Y-61029048D01*
X108456066Y-61038934D01*
X108465952Y-61049841D01*
X108474720Y-61061664D01*
X108482288Y-61074290D01*
X108488582Y-61087597D01*
X108493541Y-61101457D01*
X108497118Y-61115736D01*
X108499278Y-61130297D01*
X108500000Y-61145000D01*
X108500000Y-61445000D01*
X108499278Y-61459703D01*
X108497118Y-61474264D01*
X108493541Y-61488543D01*
X108488582Y-61502403D01*
X108482288Y-61515710D01*
X108474720Y-61528336D01*
X108465952Y-61540159D01*
X108456066Y-61551066D01*
X108445159Y-61560952D01*
X108433336Y-61569720D01*
X108420710Y-61577288D01*
X108407403Y-61583582D01*
X108393543Y-61588541D01*
X108379264Y-61592118D01*
X108364703Y-61594278D01*
X108350000Y-61595000D01*
X106700000Y-61595000D01*
X106685297Y-61594278D01*
X106670736Y-61592118D01*
X106656457Y-61588541D01*
X106642597Y-61583582D01*
X106629290Y-61577288D01*
X106616664Y-61569720D01*
X106604841Y-61560952D01*
X106593934Y-61551066D01*
X106584048Y-61540159D01*
X106575280Y-61528336D01*
X106567712Y-61515710D01*
X106561418Y-61502403D01*
X106556459Y-61488543D01*
X106552882Y-61474264D01*
X106550722Y-61459703D01*
X106550000Y-61445000D01*
X106550000Y-61145000D01*
X106550722Y-61130297D01*
X106552882Y-61115736D01*
X106556459Y-61101457D01*
X106561418Y-61087597D01*
X106567712Y-61074290D01*
X106575280Y-61061664D01*
X106584048Y-61049841D01*
X106593934Y-61038934D01*
X106604841Y-61029048D01*
X106616664Y-61020280D01*
X106629290Y-61012712D01*
X106642597Y-61006418D01*
X106656457Y-61001459D01*
X106670736Y-60997882D01*
X106685297Y-60995722D01*
X106700000Y-60995000D01*
X108350000Y-60995000D01*
X108364703Y-60995722D01*
X108364703Y-60995722D01*
G37*
D14*
X107525000Y-61295000D03*
D11*
G36*
X108364703Y-59725722D02*
X108379264Y-59727882D01*
X108393543Y-59731459D01*
X108407403Y-59736418D01*
X108420710Y-59742712D01*
X108433336Y-59750280D01*
X108445159Y-59759048D01*
X108456066Y-59768934D01*
X108465952Y-59779841D01*
X108474720Y-59791664D01*
X108482288Y-59804290D01*
X108488582Y-59817597D01*
X108493541Y-59831457D01*
X108497118Y-59845736D01*
X108499278Y-59860297D01*
X108500000Y-59875000D01*
X108500000Y-60175000D01*
X108499278Y-60189703D01*
X108497118Y-60204264D01*
X108493541Y-60218543D01*
X108488582Y-60232403D01*
X108482288Y-60245710D01*
X108474720Y-60258336D01*
X108465952Y-60270159D01*
X108456066Y-60281066D01*
X108445159Y-60290952D01*
X108433336Y-60299720D01*
X108420710Y-60307288D01*
X108407403Y-60313582D01*
X108393543Y-60318541D01*
X108379264Y-60322118D01*
X108364703Y-60324278D01*
X108350000Y-60325000D01*
X106700000Y-60325000D01*
X106685297Y-60324278D01*
X106670736Y-60322118D01*
X106656457Y-60318541D01*
X106642597Y-60313582D01*
X106629290Y-60307288D01*
X106616664Y-60299720D01*
X106604841Y-60290952D01*
X106593934Y-60281066D01*
X106584048Y-60270159D01*
X106575280Y-60258336D01*
X106567712Y-60245710D01*
X106561418Y-60232403D01*
X106556459Y-60218543D01*
X106552882Y-60204264D01*
X106550722Y-60189703D01*
X106550000Y-60175000D01*
X106550000Y-59875000D01*
X106550722Y-59860297D01*
X106552882Y-59845736D01*
X106556459Y-59831457D01*
X106561418Y-59817597D01*
X106567712Y-59804290D01*
X106575280Y-59791664D01*
X106584048Y-59779841D01*
X106593934Y-59768934D01*
X106604841Y-59759048D01*
X106616664Y-59750280D01*
X106629290Y-59742712D01*
X106642597Y-59736418D01*
X106656457Y-59731459D01*
X106670736Y-59727882D01*
X106685297Y-59725722D01*
X106700000Y-59725000D01*
X108350000Y-59725000D01*
X108364703Y-59725722D01*
X108364703Y-59725722D01*
G37*
D14*
X107525000Y-60025000D03*
D11*
G36*
X108364703Y-58455722D02*
X108379264Y-58457882D01*
X108393543Y-58461459D01*
X108407403Y-58466418D01*
X108420710Y-58472712D01*
X108433336Y-58480280D01*
X108445159Y-58489048D01*
X108456066Y-58498934D01*
X108465952Y-58509841D01*
X108474720Y-58521664D01*
X108482288Y-58534290D01*
X108488582Y-58547597D01*
X108493541Y-58561457D01*
X108497118Y-58575736D01*
X108499278Y-58590297D01*
X108500000Y-58605000D01*
X108500000Y-58905000D01*
X108499278Y-58919703D01*
X108497118Y-58934264D01*
X108493541Y-58948543D01*
X108488582Y-58962403D01*
X108482288Y-58975710D01*
X108474720Y-58988336D01*
X108465952Y-59000159D01*
X108456066Y-59011066D01*
X108445159Y-59020952D01*
X108433336Y-59029720D01*
X108420710Y-59037288D01*
X108407403Y-59043582D01*
X108393543Y-59048541D01*
X108379264Y-59052118D01*
X108364703Y-59054278D01*
X108350000Y-59055000D01*
X106700000Y-59055000D01*
X106685297Y-59054278D01*
X106670736Y-59052118D01*
X106656457Y-59048541D01*
X106642597Y-59043582D01*
X106629290Y-59037288D01*
X106616664Y-59029720D01*
X106604841Y-59020952D01*
X106593934Y-59011066D01*
X106584048Y-59000159D01*
X106575280Y-58988336D01*
X106567712Y-58975710D01*
X106561418Y-58962403D01*
X106556459Y-58948543D01*
X106552882Y-58934264D01*
X106550722Y-58919703D01*
X106550000Y-58905000D01*
X106550000Y-58605000D01*
X106550722Y-58590297D01*
X106552882Y-58575736D01*
X106556459Y-58561457D01*
X106561418Y-58547597D01*
X106567712Y-58534290D01*
X106575280Y-58521664D01*
X106584048Y-58509841D01*
X106593934Y-58498934D01*
X106604841Y-58489048D01*
X106616664Y-58480280D01*
X106629290Y-58472712D01*
X106642597Y-58466418D01*
X106656457Y-58461459D01*
X106670736Y-58457882D01*
X106685297Y-58455722D01*
X106700000Y-58455000D01*
X108350000Y-58455000D01*
X108364703Y-58455722D01*
X108364703Y-58455722D01*
G37*
D14*
X107525000Y-58755000D03*
D11*
G36*
X113314703Y-58455722D02*
X113329264Y-58457882D01*
X113343543Y-58461459D01*
X113357403Y-58466418D01*
X113370710Y-58472712D01*
X113383336Y-58480280D01*
X113395159Y-58489048D01*
X113406066Y-58498934D01*
X113415952Y-58509841D01*
X113424720Y-58521664D01*
X113432288Y-58534290D01*
X113438582Y-58547597D01*
X113443541Y-58561457D01*
X113447118Y-58575736D01*
X113449278Y-58590297D01*
X113450000Y-58605000D01*
X113450000Y-58905000D01*
X113449278Y-58919703D01*
X113447118Y-58934264D01*
X113443541Y-58948543D01*
X113438582Y-58962403D01*
X113432288Y-58975710D01*
X113424720Y-58988336D01*
X113415952Y-59000159D01*
X113406066Y-59011066D01*
X113395159Y-59020952D01*
X113383336Y-59029720D01*
X113370710Y-59037288D01*
X113357403Y-59043582D01*
X113343543Y-59048541D01*
X113329264Y-59052118D01*
X113314703Y-59054278D01*
X113300000Y-59055000D01*
X111650000Y-59055000D01*
X111635297Y-59054278D01*
X111620736Y-59052118D01*
X111606457Y-59048541D01*
X111592597Y-59043582D01*
X111579290Y-59037288D01*
X111566664Y-59029720D01*
X111554841Y-59020952D01*
X111543934Y-59011066D01*
X111534048Y-59000159D01*
X111525280Y-58988336D01*
X111517712Y-58975710D01*
X111511418Y-58962403D01*
X111506459Y-58948543D01*
X111502882Y-58934264D01*
X111500722Y-58919703D01*
X111500000Y-58905000D01*
X111500000Y-58605000D01*
X111500722Y-58590297D01*
X111502882Y-58575736D01*
X111506459Y-58561457D01*
X111511418Y-58547597D01*
X111517712Y-58534290D01*
X111525280Y-58521664D01*
X111534048Y-58509841D01*
X111543934Y-58498934D01*
X111554841Y-58489048D01*
X111566664Y-58480280D01*
X111579290Y-58472712D01*
X111592597Y-58466418D01*
X111606457Y-58461459D01*
X111620736Y-58457882D01*
X111635297Y-58455722D01*
X111650000Y-58455000D01*
X113300000Y-58455000D01*
X113314703Y-58455722D01*
X113314703Y-58455722D01*
G37*
D14*
X112475000Y-58755000D03*
D11*
G36*
X113314703Y-59725722D02*
X113329264Y-59727882D01*
X113343543Y-59731459D01*
X113357403Y-59736418D01*
X113370710Y-59742712D01*
X113383336Y-59750280D01*
X113395159Y-59759048D01*
X113406066Y-59768934D01*
X113415952Y-59779841D01*
X113424720Y-59791664D01*
X113432288Y-59804290D01*
X113438582Y-59817597D01*
X113443541Y-59831457D01*
X113447118Y-59845736D01*
X113449278Y-59860297D01*
X113450000Y-59875000D01*
X113450000Y-60175000D01*
X113449278Y-60189703D01*
X113447118Y-60204264D01*
X113443541Y-60218543D01*
X113438582Y-60232403D01*
X113432288Y-60245710D01*
X113424720Y-60258336D01*
X113415952Y-60270159D01*
X113406066Y-60281066D01*
X113395159Y-60290952D01*
X113383336Y-60299720D01*
X113370710Y-60307288D01*
X113357403Y-60313582D01*
X113343543Y-60318541D01*
X113329264Y-60322118D01*
X113314703Y-60324278D01*
X113300000Y-60325000D01*
X111650000Y-60325000D01*
X111635297Y-60324278D01*
X111620736Y-60322118D01*
X111606457Y-60318541D01*
X111592597Y-60313582D01*
X111579290Y-60307288D01*
X111566664Y-60299720D01*
X111554841Y-60290952D01*
X111543934Y-60281066D01*
X111534048Y-60270159D01*
X111525280Y-60258336D01*
X111517712Y-60245710D01*
X111511418Y-60232403D01*
X111506459Y-60218543D01*
X111502882Y-60204264D01*
X111500722Y-60189703D01*
X111500000Y-60175000D01*
X111500000Y-59875000D01*
X111500722Y-59860297D01*
X111502882Y-59845736D01*
X111506459Y-59831457D01*
X111511418Y-59817597D01*
X111517712Y-59804290D01*
X111525280Y-59791664D01*
X111534048Y-59779841D01*
X111543934Y-59768934D01*
X111554841Y-59759048D01*
X111566664Y-59750280D01*
X111579290Y-59742712D01*
X111592597Y-59736418D01*
X111606457Y-59731459D01*
X111620736Y-59727882D01*
X111635297Y-59725722D01*
X111650000Y-59725000D01*
X113300000Y-59725000D01*
X113314703Y-59725722D01*
X113314703Y-59725722D01*
G37*
D14*
X112475000Y-60025000D03*
D11*
G36*
X113314703Y-60995722D02*
X113329264Y-60997882D01*
X113343543Y-61001459D01*
X113357403Y-61006418D01*
X113370710Y-61012712D01*
X113383336Y-61020280D01*
X113395159Y-61029048D01*
X113406066Y-61038934D01*
X113415952Y-61049841D01*
X113424720Y-61061664D01*
X113432288Y-61074290D01*
X113438582Y-61087597D01*
X113443541Y-61101457D01*
X113447118Y-61115736D01*
X113449278Y-61130297D01*
X113450000Y-61145000D01*
X113450000Y-61445000D01*
X113449278Y-61459703D01*
X113447118Y-61474264D01*
X113443541Y-61488543D01*
X113438582Y-61502403D01*
X113432288Y-61515710D01*
X113424720Y-61528336D01*
X113415952Y-61540159D01*
X113406066Y-61551066D01*
X113395159Y-61560952D01*
X113383336Y-61569720D01*
X113370710Y-61577288D01*
X113357403Y-61583582D01*
X113343543Y-61588541D01*
X113329264Y-61592118D01*
X113314703Y-61594278D01*
X113300000Y-61595000D01*
X111650000Y-61595000D01*
X111635297Y-61594278D01*
X111620736Y-61592118D01*
X111606457Y-61588541D01*
X111592597Y-61583582D01*
X111579290Y-61577288D01*
X111566664Y-61569720D01*
X111554841Y-61560952D01*
X111543934Y-61551066D01*
X111534048Y-61540159D01*
X111525280Y-61528336D01*
X111517712Y-61515710D01*
X111511418Y-61502403D01*
X111506459Y-61488543D01*
X111502882Y-61474264D01*
X111500722Y-61459703D01*
X111500000Y-61445000D01*
X111500000Y-61145000D01*
X111500722Y-61130297D01*
X111502882Y-61115736D01*
X111506459Y-61101457D01*
X111511418Y-61087597D01*
X111517712Y-61074290D01*
X111525280Y-61061664D01*
X111534048Y-61049841D01*
X111543934Y-61038934D01*
X111554841Y-61029048D01*
X111566664Y-61020280D01*
X111579290Y-61012712D01*
X111592597Y-61006418D01*
X111606457Y-61001459D01*
X111620736Y-60997882D01*
X111635297Y-60995722D01*
X111650000Y-60995000D01*
X113300000Y-60995000D01*
X113314703Y-60995722D01*
X113314703Y-60995722D01*
G37*
D14*
X112475000Y-61295000D03*
D11*
G36*
X113314703Y-62265722D02*
X113329264Y-62267882D01*
X113343543Y-62271459D01*
X113357403Y-62276418D01*
X113370710Y-62282712D01*
X113383336Y-62290280D01*
X113395159Y-62299048D01*
X113406066Y-62308934D01*
X113415952Y-62319841D01*
X113424720Y-62331664D01*
X113432288Y-62344290D01*
X113438582Y-62357597D01*
X113443541Y-62371457D01*
X113447118Y-62385736D01*
X113449278Y-62400297D01*
X113450000Y-62415000D01*
X113450000Y-62715000D01*
X113449278Y-62729703D01*
X113447118Y-62744264D01*
X113443541Y-62758543D01*
X113438582Y-62772403D01*
X113432288Y-62785710D01*
X113424720Y-62798336D01*
X113415952Y-62810159D01*
X113406066Y-62821066D01*
X113395159Y-62830952D01*
X113383336Y-62839720D01*
X113370710Y-62847288D01*
X113357403Y-62853582D01*
X113343543Y-62858541D01*
X113329264Y-62862118D01*
X113314703Y-62864278D01*
X113300000Y-62865000D01*
X111650000Y-62865000D01*
X111635297Y-62864278D01*
X111620736Y-62862118D01*
X111606457Y-62858541D01*
X111592597Y-62853582D01*
X111579290Y-62847288D01*
X111566664Y-62839720D01*
X111554841Y-62830952D01*
X111543934Y-62821066D01*
X111534048Y-62810159D01*
X111525280Y-62798336D01*
X111517712Y-62785710D01*
X111511418Y-62772403D01*
X111506459Y-62758543D01*
X111502882Y-62744264D01*
X111500722Y-62729703D01*
X111500000Y-62715000D01*
X111500000Y-62415000D01*
X111500722Y-62400297D01*
X111502882Y-62385736D01*
X111506459Y-62371457D01*
X111511418Y-62357597D01*
X111517712Y-62344290D01*
X111525280Y-62331664D01*
X111534048Y-62319841D01*
X111543934Y-62308934D01*
X111554841Y-62299048D01*
X111566664Y-62290280D01*
X111579290Y-62282712D01*
X111592597Y-62276418D01*
X111606457Y-62271459D01*
X111620736Y-62267882D01*
X111635297Y-62265722D01*
X111650000Y-62265000D01*
X113300000Y-62265000D01*
X113314703Y-62265722D01*
X113314703Y-62265722D01*
G37*
D14*
X112475000Y-62565000D03*
D11*
G36*
X113314703Y-63535722D02*
X113329264Y-63537882D01*
X113343543Y-63541459D01*
X113357403Y-63546418D01*
X113370710Y-63552712D01*
X113383336Y-63560280D01*
X113395159Y-63569048D01*
X113406066Y-63578934D01*
X113415952Y-63589841D01*
X113424720Y-63601664D01*
X113432288Y-63614290D01*
X113438582Y-63627597D01*
X113443541Y-63641457D01*
X113447118Y-63655736D01*
X113449278Y-63670297D01*
X113450000Y-63685000D01*
X113450000Y-63985000D01*
X113449278Y-63999703D01*
X113447118Y-64014264D01*
X113443541Y-64028543D01*
X113438582Y-64042403D01*
X113432288Y-64055710D01*
X113424720Y-64068336D01*
X113415952Y-64080159D01*
X113406066Y-64091066D01*
X113395159Y-64100952D01*
X113383336Y-64109720D01*
X113370710Y-64117288D01*
X113357403Y-64123582D01*
X113343543Y-64128541D01*
X113329264Y-64132118D01*
X113314703Y-64134278D01*
X113300000Y-64135000D01*
X111650000Y-64135000D01*
X111635297Y-64134278D01*
X111620736Y-64132118D01*
X111606457Y-64128541D01*
X111592597Y-64123582D01*
X111579290Y-64117288D01*
X111566664Y-64109720D01*
X111554841Y-64100952D01*
X111543934Y-64091066D01*
X111534048Y-64080159D01*
X111525280Y-64068336D01*
X111517712Y-64055710D01*
X111511418Y-64042403D01*
X111506459Y-64028543D01*
X111502882Y-64014264D01*
X111500722Y-63999703D01*
X111500000Y-63985000D01*
X111500000Y-63685000D01*
X111500722Y-63670297D01*
X111502882Y-63655736D01*
X111506459Y-63641457D01*
X111511418Y-63627597D01*
X111517712Y-63614290D01*
X111525280Y-63601664D01*
X111534048Y-63589841D01*
X111543934Y-63578934D01*
X111554841Y-63569048D01*
X111566664Y-63560280D01*
X111579290Y-63552712D01*
X111592597Y-63546418D01*
X111606457Y-63541459D01*
X111620736Y-63537882D01*
X111635297Y-63535722D01*
X111650000Y-63535000D01*
X113300000Y-63535000D01*
X113314703Y-63535722D01*
X113314703Y-63535722D01*
G37*
D14*
X112475000Y-63835000D03*
D11*
G36*
X113314703Y-64805722D02*
X113329264Y-64807882D01*
X113343543Y-64811459D01*
X113357403Y-64816418D01*
X113370710Y-64822712D01*
X113383336Y-64830280D01*
X113395159Y-64839048D01*
X113406066Y-64848934D01*
X113415952Y-64859841D01*
X113424720Y-64871664D01*
X113432288Y-64884290D01*
X113438582Y-64897597D01*
X113443541Y-64911457D01*
X113447118Y-64925736D01*
X113449278Y-64940297D01*
X113450000Y-64955000D01*
X113450000Y-65255000D01*
X113449278Y-65269703D01*
X113447118Y-65284264D01*
X113443541Y-65298543D01*
X113438582Y-65312403D01*
X113432288Y-65325710D01*
X113424720Y-65338336D01*
X113415952Y-65350159D01*
X113406066Y-65361066D01*
X113395159Y-65370952D01*
X113383336Y-65379720D01*
X113370710Y-65387288D01*
X113357403Y-65393582D01*
X113343543Y-65398541D01*
X113329264Y-65402118D01*
X113314703Y-65404278D01*
X113300000Y-65405000D01*
X111650000Y-65405000D01*
X111635297Y-65404278D01*
X111620736Y-65402118D01*
X111606457Y-65398541D01*
X111592597Y-65393582D01*
X111579290Y-65387288D01*
X111566664Y-65379720D01*
X111554841Y-65370952D01*
X111543934Y-65361066D01*
X111534048Y-65350159D01*
X111525280Y-65338336D01*
X111517712Y-65325710D01*
X111511418Y-65312403D01*
X111506459Y-65298543D01*
X111502882Y-65284264D01*
X111500722Y-65269703D01*
X111500000Y-65255000D01*
X111500000Y-64955000D01*
X111500722Y-64940297D01*
X111502882Y-64925736D01*
X111506459Y-64911457D01*
X111511418Y-64897597D01*
X111517712Y-64884290D01*
X111525280Y-64871664D01*
X111534048Y-64859841D01*
X111543934Y-64848934D01*
X111554841Y-64839048D01*
X111566664Y-64830280D01*
X111579290Y-64822712D01*
X111592597Y-64816418D01*
X111606457Y-64811459D01*
X111620736Y-64807882D01*
X111635297Y-64805722D01*
X111650000Y-64805000D01*
X113300000Y-64805000D01*
X113314703Y-64805722D01*
X113314703Y-64805722D01*
G37*
D14*
X112475000Y-65105000D03*
D11*
G36*
X113314703Y-66075722D02*
X113329264Y-66077882D01*
X113343543Y-66081459D01*
X113357403Y-66086418D01*
X113370710Y-66092712D01*
X113383336Y-66100280D01*
X113395159Y-66109048D01*
X113406066Y-66118934D01*
X113415952Y-66129841D01*
X113424720Y-66141664D01*
X113432288Y-66154290D01*
X113438582Y-66167597D01*
X113443541Y-66181457D01*
X113447118Y-66195736D01*
X113449278Y-66210297D01*
X113450000Y-66225000D01*
X113450000Y-66525000D01*
X113449278Y-66539703D01*
X113447118Y-66554264D01*
X113443541Y-66568543D01*
X113438582Y-66582403D01*
X113432288Y-66595710D01*
X113424720Y-66608336D01*
X113415952Y-66620159D01*
X113406066Y-66631066D01*
X113395159Y-66640952D01*
X113383336Y-66649720D01*
X113370710Y-66657288D01*
X113357403Y-66663582D01*
X113343543Y-66668541D01*
X113329264Y-66672118D01*
X113314703Y-66674278D01*
X113300000Y-66675000D01*
X111650000Y-66675000D01*
X111635297Y-66674278D01*
X111620736Y-66672118D01*
X111606457Y-66668541D01*
X111592597Y-66663582D01*
X111579290Y-66657288D01*
X111566664Y-66649720D01*
X111554841Y-66640952D01*
X111543934Y-66631066D01*
X111534048Y-66620159D01*
X111525280Y-66608336D01*
X111517712Y-66595710D01*
X111511418Y-66582403D01*
X111506459Y-66568543D01*
X111502882Y-66554264D01*
X111500722Y-66539703D01*
X111500000Y-66525000D01*
X111500000Y-66225000D01*
X111500722Y-66210297D01*
X111502882Y-66195736D01*
X111506459Y-66181457D01*
X111511418Y-66167597D01*
X111517712Y-66154290D01*
X111525280Y-66141664D01*
X111534048Y-66129841D01*
X111543934Y-66118934D01*
X111554841Y-66109048D01*
X111566664Y-66100280D01*
X111579290Y-66092712D01*
X111592597Y-66086418D01*
X111606457Y-66081459D01*
X111620736Y-66077882D01*
X111635297Y-66075722D01*
X111650000Y-66075000D01*
X113300000Y-66075000D01*
X113314703Y-66075722D01*
X113314703Y-66075722D01*
G37*
D14*
X112475000Y-66375000D03*
D11*
G36*
X113314703Y-67345722D02*
X113329264Y-67347882D01*
X113343543Y-67351459D01*
X113357403Y-67356418D01*
X113370710Y-67362712D01*
X113383336Y-67370280D01*
X113395159Y-67379048D01*
X113406066Y-67388934D01*
X113415952Y-67399841D01*
X113424720Y-67411664D01*
X113432288Y-67424290D01*
X113438582Y-67437597D01*
X113443541Y-67451457D01*
X113447118Y-67465736D01*
X113449278Y-67480297D01*
X113450000Y-67495000D01*
X113450000Y-67795000D01*
X113449278Y-67809703D01*
X113447118Y-67824264D01*
X113443541Y-67838543D01*
X113438582Y-67852403D01*
X113432288Y-67865710D01*
X113424720Y-67878336D01*
X113415952Y-67890159D01*
X113406066Y-67901066D01*
X113395159Y-67910952D01*
X113383336Y-67919720D01*
X113370710Y-67927288D01*
X113357403Y-67933582D01*
X113343543Y-67938541D01*
X113329264Y-67942118D01*
X113314703Y-67944278D01*
X113300000Y-67945000D01*
X111650000Y-67945000D01*
X111635297Y-67944278D01*
X111620736Y-67942118D01*
X111606457Y-67938541D01*
X111592597Y-67933582D01*
X111579290Y-67927288D01*
X111566664Y-67919720D01*
X111554841Y-67910952D01*
X111543934Y-67901066D01*
X111534048Y-67890159D01*
X111525280Y-67878336D01*
X111517712Y-67865710D01*
X111511418Y-67852403D01*
X111506459Y-67838543D01*
X111502882Y-67824264D01*
X111500722Y-67809703D01*
X111500000Y-67795000D01*
X111500000Y-67495000D01*
X111500722Y-67480297D01*
X111502882Y-67465736D01*
X111506459Y-67451457D01*
X111511418Y-67437597D01*
X111517712Y-67424290D01*
X111525280Y-67411664D01*
X111534048Y-67399841D01*
X111543934Y-67388934D01*
X111554841Y-67379048D01*
X111566664Y-67370280D01*
X111579290Y-67362712D01*
X111592597Y-67356418D01*
X111606457Y-67351459D01*
X111620736Y-67347882D01*
X111635297Y-67345722D01*
X111650000Y-67345000D01*
X113300000Y-67345000D01*
X113314703Y-67345722D01*
X113314703Y-67345722D01*
G37*
D14*
X112475000Y-67645000D03*
M02*
