%TF.GenerationSoftware,KiCad,Pcbnew,5.0.0-fee4fd1~66~ubuntu16.04.1*%
%TF.CreationDate,2020-03-09T22:27:40+01:00*%
%TF.ProjectId,robotond2020_ch340,726F626F746F6E64323032305F636833,rev?*%
%TF.SameCoordinates,Original*%
%TF.FileFunction,Soldermask,Bot*%
%TF.FilePolarity,Negative*%
%FSLAX46Y46*%
G04 Gerber Fmt 4.6, Leading zero omitted, Abs format (unit mm)*
G04 Created by KiCad (PCBNEW 5.0.0-fee4fd1~66~ubuntu16.04.1) date Mon Mar  9 22:27:40 2020*
%MOMM*%
%LPD*%
G01*
G04 APERTURE LIST*
%ADD10C,0.200000*%
%ADD11C,0.150000*%
%ADD12O,2.400000X2.100000*%
%ADD13C,2.100000*%
%ADD14R,2.900000X2.700000*%
%ADD15O,2.100000X2.350000*%
%ADD16O,2.100000X2.100000*%
%ADD17R,2.100000X2.100000*%
%ADD18O,2.300000X1.500000*%
%ADD19C,1.850000*%
%ADD20O,2.100000X2.400000*%
%ADD21R,1.924000X1.924000*%
%ADD22C,1.924000*%
%ADD23C,1.550000*%
%ADD24C,1.000000*%
G04 APERTURE END LIST*
D10*
X197600000Y-96000000D02*
G75*
G03X197600000Y-96000000I-1600000J0D01*
G01*
X105600000Y-96000000D02*
G75*
G03X105600000Y-96000000I-1600000J0D01*
G01*
X105600000Y-54000000D02*
G75*
G03X105600000Y-54000000I-1600000J0D01*
G01*
X197600000Y-54000000D02*
G75*
G03X197600000Y-54000000I-1600000J0D01*
G01*
D11*
X100000000Y-100000000D02*
X100000000Y-50000000D01*
X200000000Y-100000000D02*
X100000000Y-100000000D01*
X200000000Y-50000000D02*
X200000000Y-100000000D01*
X100000000Y-50000000D02*
X200000000Y-50000000D01*
D12*
X142350000Y-53400000D03*
D11*
G36*
X143271447Y-54851487D02*
X143301425Y-54855934D01*
X143330824Y-54863298D01*
X143359358Y-54873508D01*
X143386755Y-54886465D01*
X143412750Y-54902046D01*
X143437092Y-54920100D01*
X143459548Y-54940452D01*
X143479900Y-54962908D01*
X143497954Y-54987250D01*
X143513535Y-55013245D01*
X143526492Y-55040642D01*
X143536702Y-55069176D01*
X143544066Y-55098575D01*
X143548513Y-55128553D01*
X143550000Y-55158823D01*
X143550000Y-56641177D01*
X143548513Y-56671447D01*
X143544066Y-56701425D01*
X143536702Y-56730824D01*
X143526492Y-56759358D01*
X143513535Y-56786755D01*
X143497954Y-56812750D01*
X143479900Y-56837092D01*
X143459548Y-56859548D01*
X143437092Y-56879900D01*
X143412750Y-56897954D01*
X143386755Y-56913535D01*
X143359358Y-56926492D01*
X143330824Y-56936702D01*
X143301425Y-56944066D01*
X143271447Y-56948513D01*
X143241177Y-56950000D01*
X141458823Y-56950000D01*
X141428553Y-56948513D01*
X141398575Y-56944066D01*
X141369176Y-56936702D01*
X141340642Y-56926492D01*
X141313245Y-56913535D01*
X141287250Y-56897954D01*
X141262908Y-56879900D01*
X141240452Y-56859548D01*
X141220100Y-56837092D01*
X141202046Y-56812750D01*
X141186465Y-56786755D01*
X141173508Y-56759358D01*
X141163298Y-56730824D01*
X141155934Y-56701425D01*
X141151487Y-56671447D01*
X141150000Y-56641177D01*
X141150000Y-55158823D01*
X141151487Y-55128553D01*
X141155934Y-55098575D01*
X141163298Y-55069176D01*
X141173508Y-55040642D01*
X141186465Y-55013245D01*
X141202046Y-54987250D01*
X141220100Y-54962908D01*
X141240452Y-54940452D01*
X141262908Y-54920100D01*
X141287250Y-54902046D01*
X141313245Y-54886465D01*
X141340642Y-54873508D01*
X141369176Y-54863298D01*
X141398575Y-54855934D01*
X141428553Y-54851487D01*
X141458823Y-54850000D01*
X143241177Y-54850000D01*
X143271447Y-54851487D01*
X143271447Y-54851487D01*
G37*
D13*
X142350000Y-55900000D03*
D14*
X167500000Y-90300000D03*
X163200000Y-90300000D03*
X154650000Y-90300000D03*
X158950000Y-90300000D03*
X150450000Y-90300000D03*
X146150000Y-90300000D03*
D11*
G36*
X117371447Y-51726487D02*
X117401425Y-51730934D01*
X117430824Y-51738298D01*
X117459358Y-51748508D01*
X117486755Y-51761465D01*
X117512750Y-51777046D01*
X117537092Y-51795100D01*
X117559548Y-51815452D01*
X117579900Y-51837908D01*
X117597954Y-51862250D01*
X117613535Y-51888245D01*
X117626492Y-51915642D01*
X117636702Y-51944176D01*
X117644066Y-51973575D01*
X117648513Y-52003553D01*
X117650000Y-52033823D01*
X117650000Y-53766177D01*
X117648513Y-53796447D01*
X117644066Y-53826425D01*
X117636702Y-53855824D01*
X117626492Y-53884358D01*
X117613535Y-53911755D01*
X117597954Y-53937750D01*
X117579900Y-53962092D01*
X117559548Y-53984548D01*
X117537092Y-54004900D01*
X117512750Y-54022954D01*
X117486755Y-54038535D01*
X117459358Y-54051492D01*
X117430824Y-54061702D01*
X117401425Y-54069066D01*
X117371447Y-54073513D01*
X117341177Y-54075000D01*
X115858823Y-54075000D01*
X115828553Y-54073513D01*
X115798575Y-54069066D01*
X115769176Y-54061702D01*
X115740642Y-54051492D01*
X115713245Y-54038535D01*
X115687250Y-54022954D01*
X115662908Y-54004900D01*
X115640452Y-53984548D01*
X115620100Y-53962092D01*
X115602046Y-53937750D01*
X115586465Y-53911755D01*
X115573508Y-53884358D01*
X115563298Y-53855824D01*
X115555934Y-53826425D01*
X115551487Y-53796447D01*
X115550000Y-53766177D01*
X115550000Y-52033823D01*
X115551487Y-52003553D01*
X115555934Y-51973575D01*
X115563298Y-51944176D01*
X115573508Y-51915642D01*
X115586465Y-51888245D01*
X115602046Y-51862250D01*
X115620100Y-51837908D01*
X115640452Y-51815452D01*
X115662908Y-51795100D01*
X115687250Y-51777046D01*
X115713245Y-51761465D01*
X115740642Y-51748508D01*
X115769176Y-51738298D01*
X115798575Y-51730934D01*
X115828553Y-51726487D01*
X115858823Y-51725000D01*
X117341177Y-51725000D01*
X117371447Y-51726487D01*
X117371447Y-51726487D01*
G37*
D13*
X116600000Y-52900000D03*
D15*
X119100000Y-52900000D03*
X121600000Y-52900000D03*
X124100000Y-52900000D03*
X126600000Y-52900000D03*
X129100000Y-52900000D03*
D16*
X131500000Y-97670000D03*
X128960000Y-97670000D03*
X131500000Y-95130000D03*
X128960000Y-95130000D03*
X131500000Y-92590000D03*
X128960000Y-92590000D03*
X131500000Y-90050000D03*
X128960000Y-90050000D03*
X131500000Y-87510000D03*
D17*
X128960000Y-87510000D03*
D18*
X101850000Y-65250000D03*
D19*
X104550000Y-59250000D03*
X104550000Y-64250000D03*
D18*
X101850000Y-58250000D03*
D17*
X180500000Y-54450000D03*
D16*
X180500000Y-51910000D03*
X183040000Y-54450000D03*
X183040000Y-51910000D03*
X185580000Y-54450000D03*
X185580000Y-51910000D03*
X188120000Y-54450000D03*
X188120000Y-51910000D03*
X190660000Y-54450000D03*
X190660000Y-51910000D03*
X191860000Y-87460000D03*
X191860000Y-90000000D03*
X189320000Y-87460000D03*
X189320000Y-90000000D03*
X186780000Y-87460000D03*
X186780000Y-90000000D03*
X184240000Y-87460000D03*
X184240000Y-90000000D03*
X181700000Y-87460000D03*
D17*
X181700000Y-90000000D03*
D12*
X104150000Y-80950000D03*
D11*
G36*
X105071447Y-77401487D02*
X105101425Y-77405934D01*
X105130824Y-77413298D01*
X105159358Y-77423508D01*
X105186755Y-77436465D01*
X105212750Y-77452046D01*
X105237092Y-77470100D01*
X105259548Y-77490452D01*
X105279900Y-77512908D01*
X105297954Y-77537250D01*
X105313535Y-77563245D01*
X105326492Y-77590642D01*
X105336702Y-77619176D01*
X105344066Y-77648575D01*
X105348513Y-77678553D01*
X105350000Y-77708823D01*
X105350000Y-79191177D01*
X105348513Y-79221447D01*
X105344066Y-79251425D01*
X105336702Y-79280824D01*
X105326492Y-79309358D01*
X105313535Y-79336755D01*
X105297954Y-79362750D01*
X105279900Y-79387092D01*
X105259548Y-79409548D01*
X105237092Y-79429900D01*
X105212750Y-79447954D01*
X105186755Y-79463535D01*
X105159358Y-79476492D01*
X105130824Y-79486702D01*
X105101425Y-79494066D01*
X105071447Y-79498513D01*
X105041177Y-79500000D01*
X103258823Y-79500000D01*
X103228553Y-79498513D01*
X103198575Y-79494066D01*
X103169176Y-79486702D01*
X103140642Y-79476492D01*
X103113245Y-79463535D01*
X103087250Y-79447954D01*
X103062908Y-79429900D01*
X103040452Y-79409548D01*
X103020100Y-79387092D01*
X103002046Y-79362750D01*
X102986465Y-79336755D01*
X102973508Y-79309358D01*
X102963298Y-79280824D01*
X102955934Y-79251425D01*
X102951487Y-79221447D01*
X102950000Y-79191177D01*
X102950000Y-77708823D01*
X102951487Y-77678553D01*
X102955934Y-77648575D01*
X102963298Y-77619176D01*
X102973508Y-77590642D01*
X102986465Y-77563245D01*
X103002046Y-77537250D01*
X103020100Y-77512908D01*
X103040452Y-77490452D01*
X103062908Y-77470100D01*
X103087250Y-77452046D01*
X103113245Y-77436465D01*
X103140642Y-77423508D01*
X103169176Y-77413298D01*
X103198575Y-77405934D01*
X103228553Y-77401487D01*
X103258823Y-77400000D01*
X105041177Y-77400000D01*
X105071447Y-77401487D01*
X105071447Y-77401487D01*
G37*
D13*
X104150000Y-78450000D03*
D11*
G36*
X111971447Y-77401487D02*
X112001425Y-77405934D01*
X112030824Y-77413298D01*
X112059358Y-77423508D01*
X112086755Y-77436465D01*
X112112750Y-77452046D01*
X112137092Y-77470100D01*
X112159548Y-77490452D01*
X112179900Y-77512908D01*
X112197954Y-77537250D01*
X112213535Y-77563245D01*
X112226492Y-77590642D01*
X112236702Y-77619176D01*
X112244066Y-77648575D01*
X112248513Y-77678553D01*
X112250000Y-77708823D01*
X112250000Y-79191177D01*
X112248513Y-79221447D01*
X112244066Y-79251425D01*
X112236702Y-79280824D01*
X112226492Y-79309358D01*
X112213535Y-79336755D01*
X112197954Y-79362750D01*
X112179900Y-79387092D01*
X112159548Y-79409548D01*
X112137092Y-79429900D01*
X112112750Y-79447954D01*
X112086755Y-79463535D01*
X112059358Y-79476492D01*
X112030824Y-79486702D01*
X112001425Y-79494066D01*
X111971447Y-79498513D01*
X111941177Y-79500000D01*
X110158823Y-79500000D01*
X110128553Y-79498513D01*
X110098575Y-79494066D01*
X110069176Y-79486702D01*
X110040642Y-79476492D01*
X110013245Y-79463535D01*
X109987250Y-79447954D01*
X109962908Y-79429900D01*
X109940452Y-79409548D01*
X109920100Y-79387092D01*
X109902046Y-79362750D01*
X109886465Y-79336755D01*
X109873508Y-79309358D01*
X109863298Y-79280824D01*
X109855934Y-79251425D01*
X109851487Y-79221447D01*
X109850000Y-79191177D01*
X109850000Y-77708823D01*
X109851487Y-77678553D01*
X109855934Y-77648575D01*
X109863298Y-77619176D01*
X109873508Y-77590642D01*
X109886465Y-77563245D01*
X109902046Y-77537250D01*
X109920100Y-77512908D01*
X109940452Y-77490452D01*
X109962908Y-77470100D01*
X109987250Y-77452046D01*
X110013245Y-77436465D01*
X110040642Y-77423508D01*
X110069176Y-77413298D01*
X110098575Y-77405934D01*
X110128553Y-77401487D01*
X110158823Y-77400000D01*
X111941177Y-77400000D01*
X111971447Y-77401487D01*
X111971447Y-77401487D01*
G37*
D13*
X111050000Y-78450000D03*
D12*
X111050000Y-80950000D03*
D17*
X167400000Y-65200000D03*
D16*
X167400000Y-67740000D03*
X164860000Y-65200000D03*
X164860000Y-67740000D03*
X162320000Y-65200000D03*
X162320000Y-67740000D03*
X159780000Y-65200000D03*
X159780000Y-67740000D03*
X157240000Y-65200000D03*
X157240000Y-67740000D03*
D17*
X139950000Y-87400000D03*
D16*
X142490000Y-87400000D03*
X139950000Y-89940000D03*
X142490000Y-89940000D03*
X139950000Y-92480000D03*
X142490000Y-92480000D03*
X139950000Y-95020000D03*
X142490000Y-95020000D03*
X139950000Y-97560000D03*
X142490000Y-97560000D03*
D17*
X134300000Y-52400000D03*
D16*
X136840000Y-52400000D03*
X134300000Y-54940000D03*
X136840000Y-54940000D03*
D12*
X104150000Y-89450000D03*
D11*
G36*
X105071447Y-85901487D02*
X105101425Y-85905934D01*
X105130824Y-85913298D01*
X105159358Y-85923508D01*
X105186755Y-85936465D01*
X105212750Y-85952046D01*
X105237092Y-85970100D01*
X105259548Y-85990452D01*
X105279900Y-86012908D01*
X105297954Y-86037250D01*
X105313535Y-86063245D01*
X105326492Y-86090642D01*
X105336702Y-86119176D01*
X105344066Y-86148575D01*
X105348513Y-86178553D01*
X105350000Y-86208823D01*
X105350000Y-87691177D01*
X105348513Y-87721447D01*
X105344066Y-87751425D01*
X105336702Y-87780824D01*
X105326492Y-87809358D01*
X105313535Y-87836755D01*
X105297954Y-87862750D01*
X105279900Y-87887092D01*
X105259548Y-87909548D01*
X105237092Y-87929900D01*
X105212750Y-87947954D01*
X105186755Y-87963535D01*
X105159358Y-87976492D01*
X105130824Y-87986702D01*
X105101425Y-87994066D01*
X105071447Y-87998513D01*
X105041177Y-88000000D01*
X103258823Y-88000000D01*
X103228553Y-87998513D01*
X103198575Y-87994066D01*
X103169176Y-87986702D01*
X103140642Y-87976492D01*
X103113245Y-87963535D01*
X103087250Y-87947954D01*
X103062908Y-87929900D01*
X103040452Y-87909548D01*
X103020100Y-87887092D01*
X103002046Y-87862750D01*
X102986465Y-87836755D01*
X102973508Y-87809358D01*
X102963298Y-87780824D01*
X102955934Y-87751425D01*
X102951487Y-87721447D01*
X102950000Y-87691177D01*
X102950000Y-86208823D01*
X102951487Y-86178553D01*
X102955934Y-86148575D01*
X102963298Y-86119176D01*
X102973508Y-86090642D01*
X102986465Y-86063245D01*
X103002046Y-86037250D01*
X103020100Y-86012908D01*
X103040452Y-85990452D01*
X103062908Y-85970100D01*
X103087250Y-85952046D01*
X103113245Y-85936465D01*
X103140642Y-85923508D01*
X103169176Y-85913298D01*
X103198575Y-85905934D01*
X103228553Y-85901487D01*
X103258823Y-85900000D01*
X105041177Y-85900000D01*
X105071447Y-85901487D01*
X105071447Y-85901487D01*
G37*
D13*
X104150000Y-86950000D03*
D11*
G36*
X111971447Y-85901487D02*
X112001425Y-85905934D01*
X112030824Y-85913298D01*
X112059358Y-85923508D01*
X112086755Y-85936465D01*
X112112750Y-85952046D01*
X112137092Y-85970100D01*
X112159548Y-85990452D01*
X112179900Y-86012908D01*
X112197954Y-86037250D01*
X112213535Y-86063245D01*
X112226492Y-86090642D01*
X112236702Y-86119176D01*
X112244066Y-86148575D01*
X112248513Y-86178553D01*
X112250000Y-86208823D01*
X112250000Y-87691177D01*
X112248513Y-87721447D01*
X112244066Y-87751425D01*
X112236702Y-87780824D01*
X112226492Y-87809358D01*
X112213535Y-87836755D01*
X112197954Y-87862750D01*
X112179900Y-87887092D01*
X112159548Y-87909548D01*
X112137092Y-87929900D01*
X112112750Y-87947954D01*
X112086755Y-87963535D01*
X112059358Y-87976492D01*
X112030824Y-87986702D01*
X112001425Y-87994066D01*
X111971447Y-87998513D01*
X111941177Y-88000000D01*
X110158823Y-88000000D01*
X110128553Y-87998513D01*
X110098575Y-87994066D01*
X110069176Y-87986702D01*
X110040642Y-87976492D01*
X110013245Y-87963535D01*
X109987250Y-87947954D01*
X109962908Y-87929900D01*
X109940452Y-87909548D01*
X109920100Y-87887092D01*
X109902046Y-87862750D01*
X109886465Y-87836755D01*
X109873508Y-87809358D01*
X109863298Y-87780824D01*
X109855934Y-87751425D01*
X109851487Y-87721447D01*
X109850000Y-87691177D01*
X109850000Y-86208823D01*
X109851487Y-86178553D01*
X109855934Y-86148575D01*
X109863298Y-86119176D01*
X109873508Y-86090642D01*
X109886465Y-86063245D01*
X109902046Y-86037250D01*
X109920100Y-86012908D01*
X109940452Y-85990452D01*
X109962908Y-85970100D01*
X109987250Y-85952046D01*
X110013245Y-85936465D01*
X110040642Y-85923508D01*
X110069176Y-85913298D01*
X110098575Y-85905934D01*
X110128553Y-85901487D01*
X110158823Y-85900000D01*
X111941177Y-85900000D01*
X111971447Y-85901487D01*
X111971447Y-85901487D01*
G37*
D13*
X111050000Y-86950000D03*
D12*
X111050000Y-89450000D03*
D20*
X167150000Y-95500000D03*
D11*
G36*
X165421447Y-94301487D02*
X165451425Y-94305934D01*
X165480824Y-94313298D01*
X165509358Y-94323508D01*
X165536755Y-94336465D01*
X165562750Y-94352046D01*
X165587092Y-94370100D01*
X165609548Y-94390452D01*
X165629900Y-94412908D01*
X165647954Y-94437250D01*
X165663535Y-94463245D01*
X165676492Y-94490642D01*
X165686702Y-94519176D01*
X165694066Y-94548575D01*
X165698513Y-94578553D01*
X165700000Y-94608823D01*
X165700000Y-96391177D01*
X165698513Y-96421447D01*
X165694066Y-96451425D01*
X165686702Y-96480824D01*
X165676492Y-96509358D01*
X165663535Y-96536755D01*
X165647954Y-96562750D01*
X165629900Y-96587092D01*
X165609548Y-96609548D01*
X165587092Y-96629900D01*
X165562750Y-96647954D01*
X165536755Y-96663535D01*
X165509358Y-96676492D01*
X165480824Y-96686702D01*
X165451425Y-96694066D01*
X165421447Y-96698513D01*
X165391177Y-96700000D01*
X163908823Y-96700000D01*
X163878553Y-96698513D01*
X163848575Y-96694066D01*
X163819176Y-96686702D01*
X163790642Y-96676492D01*
X163763245Y-96663535D01*
X163737250Y-96647954D01*
X163712908Y-96629900D01*
X163690452Y-96609548D01*
X163670100Y-96587092D01*
X163652046Y-96562750D01*
X163636465Y-96536755D01*
X163623508Y-96509358D01*
X163613298Y-96480824D01*
X163605934Y-96451425D01*
X163601487Y-96421447D01*
X163600000Y-96391177D01*
X163600000Y-94608823D01*
X163601487Y-94578553D01*
X163605934Y-94548575D01*
X163613298Y-94519176D01*
X163623508Y-94490642D01*
X163636465Y-94463245D01*
X163652046Y-94437250D01*
X163670100Y-94412908D01*
X163690452Y-94390452D01*
X163712908Y-94370100D01*
X163737250Y-94352046D01*
X163763245Y-94336465D01*
X163790642Y-94323508D01*
X163819176Y-94313298D01*
X163848575Y-94305934D01*
X163878553Y-94301487D01*
X163908823Y-94300000D01*
X165391177Y-94300000D01*
X165421447Y-94301487D01*
X165421447Y-94301487D01*
G37*
D13*
X164650000Y-95500000D03*
D11*
G36*
X156871447Y-94301487D02*
X156901425Y-94305934D01*
X156930824Y-94313298D01*
X156959358Y-94323508D01*
X156986755Y-94336465D01*
X157012750Y-94352046D01*
X157037092Y-94370100D01*
X157059548Y-94390452D01*
X157079900Y-94412908D01*
X157097954Y-94437250D01*
X157113535Y-94463245D01*
X157126492Y-94490642D01*
X157136702Y-94519176D01*
X157144066Y-94548575D01*
X157148513Y-94578553D01*
X157150000Y-94608823D01*
X157150000Y-96391177D01*
X157148513Y-96421447D01*
X157144066Y-96451425D01*
X157136702Y-96480824D01*
X157126492Y-96509358D01*
X157113535Y-96536755D01*
X157097954Y-96562750D01*
X157079900Y-96587092D01*
X157059548Y-96609548D01*
X157037092Y-96629900D01*
X157012750Y-96647954D01*
X156986755Y-96663535D01*
X156959358Y-96676492D01*
X156930824Y-96686702D01*
X156901425Y-96694066D01*
X156871447Y-96698513D01*
X156841177Y-96700000D01*
X155358823Y-96700000D01*
X155328553Y-96698513D01*
X155298575Y-96694066D01*
X155269176Y-96686702D01*
X155240642Y-96676492D01*
X155213245Y-96663535D01*
X155187250Y-96647954D01*
X155162908Y-96629900D01*
X155140452Y-96609548D01*
X155120100Y-96587092D01*
X155102046Y-96562750D01*
X155086465Y-96536755D01*
X155073508Y-96509358D01*
X155063298Y-96480824D01*
X155055934Y-96451425D01*
X155051487Y-96421447D01*
X155050000Y-96391177D01*
X155050000Y-94608823D01*
X155051487Y-94578553D01*
X155055934Y-94548575D01*
X155063298Y-94519176D01*
X155073508Y-94490642D01*
X155086465Y-94463245D01*
X155102046Y-94437250D01*
X155120100Y-94412908D01*
X155140452Y-94390452D01*
X155162908Y-94370100D01*
X155187250Y-94352046D01*
X155213245Y-94336465D01*
X155240642Y-94323508D01*
X155269176Y-94313298D01*
X155298575Y-94305934D01*
X155328553Y-94301487D01*
X155358823Y-94300000D01*
X156841177Y-94300000D01*
X156871447Y-94301487D01*
X156871447Y-94301487D01*
G37*
D13*
X156100000Y-95500000D03*
D20*
X158600000Y-95500000D03*
D11*
G36*
X148371447Y-94301487D02*
X148401425Y-94305934D01*
X148430824Y-94313298D01*
X148459358Y-94323508D01*
X148486755Y-94336465D01*
X148512750Y-94352046D01*
X148537092Y-94370100D01*
X148559548Y-94390452D01*
X148579900Y-94412908D01*
X148597954Y-94437250D01*
X148613535Y-94463245D01*
X148626492Y-94490642D01*
X148636702Y-94519176D01*
X148644066Y-94548575D01*
X148648513Y-94578553D01*
X148650000Y-94608823D01*
X148650000Y-96391177D01*
X148648513Y-96421447D01*
X148644066Y-96451425D01*
X148636702Y-96480824D01*
X148626492Y-96509358D01*
X148613535Y-96536755D01*
X148597954Y-96562750D01*
X148579900Y-96587092D01*
X148559548Y-96609548D01*
X148537092Y-96629900D01*
X148512750Y-96647954D01*
X148486755Y-96663535D01*
X148459358Y-96676492D01*
X148430824Y-96686702D01*
X148401425Y-96694066D01*
X148371447Y-96698513D01*
X148341177Y-96700000D01*
X146858823Y-96700000D01*
X146828553Y-96698513D01*
X146798575Y-96694066D01*
X146769176Y-96686702D01*
X146740642Y-96676492D01*
X146713245Y-96663535D01*
X146687250Y-96647954D01*
X146662908Y-96629900D01*
X146640452Y-96609548D01*
X146620100Y-96587092D01*
X146602046Y-96562750D01*
X146586465Y-96536755D01*
X146573508Y-96509358D01*
X146563298Y-96480824D01*
X146555934Y-96451425D01*
X146551487Y-96421447D01*
X146550000Y-96391177D01*
X146550000Y-94608823D01*
X146551487Y-94578553D01*
X146555934Y-94548575D01*
X146563298Y-94519176D01*
X146573508Y-94490642D01*
X146586465Y-94463245D01*
X146602046Y-94437250D01*
X146620100Y-94412908D01*
X146640452Y-94390452D01*
X146662908Y-94370100D01*
X146687250Y-94352046D01*
X146713245Y-94336465D01*
X146740642Y-94323508D01*
X146769176Y-94313298D01*
X146798575Y-94305934D01*
X146828553Y-94301487D01*
X146858823Y-94300000D01*
X148341177Y-94300000D01*
X148371447Y-94301487D01*
X148371447Y-94301487D01*
G37*
D13*
X147600000Y-95500000D03*
D20*
X150100000Y-95500000D03*
D21*
X148200000Y-61100000D03*
D22*
X148200000Y-51900000D03*
X163200000Y-61100000D03*
X163200000Y-51900000D03*
X136900000Y-89550000D03*
X136900000Y-92050000D03*
X136900000Y-95250000D03*
X136900000Y-97950000D03*
X122900000Y-89550000D03*
X122900000Y-92050000D03*
X122900000Y-95250000D03*
X122900000Y-97950000D03*
X140500000Y-81150000D03*
X140500000Y-83850000D03*
D17*
X172800000Y-84800000D03*
D16*
X175340000Y-84800000D03*
X172800000Y-87340000D03*
X175340000Y-87340000D03*
D11*
G36*
X117571072Y-66801623D02*
X117603782Y-66806475D01*
X117635858Y-66814509D01*
X117666992Y-66825649D01*
X117696885Y-66839787D01*
X117725248Y-66856787D01*
X117751808Y-66876485D01*
X117776309Y-66898692D01*
X117798516Y-66923193D01*
X117818214Y-66949753D01*
X117835214Y-66978116D01*
X117849352Y-67008009D01*
X117860492Y-67039143D01*
X117868526Y-67071219D01*
X117873378Y-67103929D01*
X117875001Y-67136956D01*
X117875001Y-68263044D01*
X117873378Y-68296071D01*
X117868526Y-68328781D01*
X117860492Y-68360857D01*
X117849352Y-68391991D01*
X117835214Y-68421884D01*
X117818214Y-68450247D01*
X117798516Y-68476807D01*
X117776309Y-68501308D01*
X117751808Y-68523515D01*
X117725248Y-68543213D01*
X117696885Y-68560213D01*
X117666992Y-68574351D01*
X117635858Y-68585491D01*
X117603782Y-68593525D01*
X117571072Y-68598377D01*
X117538045Y-68600000D01*
X116661957Y-68600000D01*
X116628930Y-68598377D01*
X116596220Y-68593525D01*
X116564144Y-68585491D01*
X116533010Y-68574351D01*
X116503117Y-68560213D01*
X116474754Y-68543213D01*
X116448194Y-68523515D01*
X116423693Y-68501308D01*
X116401486Y-68476807D01*
X116381788Y-68450247D01*
X116364788Y-68421884D01*
X116350650Y-68391991D01*
X116339510Y-68360857D01*
X116331476Y-68328781D01*
X116326624Y-68296071D01*
X116325001Y-68263044D01*
X116325001Y-67136956D01*
X116326624Y-67103929D01*
X116331476Y-67071219D01*
X116339510Y-67039143D01*
X116350650Y-67008009D01*
X116364788Y-66978116D01*
X116381788Y-66949753D01*
X116401486Y-66923193D01*
X116423693Y-66898692D01*
X116448194Y-66876485D01*
X116474754Y-66856787D01*
X116503117Y-66839787D01*
X116533010Y-66825649D01*
X116564144Y-66814509D01*
X116596220Y-66806475D01*
X116628930Y-66801623D01*
X116661957Y-66800000D01*
X117538045Y-66800000D01*
X117571072Y-66801623D01*
X117571072Y-66801623D01*
G37*
D23*
X117100001Y-67700000D03*
D11*
G36*
X115521072Y-66801623D02*
X115553782Y-66806475D01*
X115585858Y-66814509D01*
X115616992Y-66825649D01*
X115646885Y-66839787D01*
X115675248Y-66856787D01*
X115701808Y-66876485D01*
X115726309Y-66898692D01*
X115748516Y-66923193D01*
X115768214Y-66949753D01*
X115785214Y-66978116D01*
X115799352Y-67008009D01*
X115810492Y-67039143D01*
X115818526Y-67071219D01*
X115823378Y-67103929D01*
X115825001Y-67136956D01*
X115825001Y-68263044D01*
X115823378Y-68296071D01*
X115818526Y-68328781D01*
X115810492Y-68360857D01*
X115799352Y-68391991D01*
X115785214Y-68421884D01*
X115768214Y-68450247D01*
X115748516Y-68476807D01*
X115726309Y-68501308D01*
X115701808Y-68523515D01*
X115675248Y-68543213D01*
X115646885Y-68560213D01*
X115616992Y-68574351D01*
X115585858Y-68585491D01*
X115553782Y-68593525D01*
X115521072Y-68598377D01*
X115488045Y-68600000D01*
X114611957Y-68600000D01*
X114578930Y-68598377D01*
X114546220Y-68593525D01*
X114514144Y-68585491D01*
X114483010Y-68574351D01*
X114453117Y-68560213D01*
X114424754Y-68543213D01*
X114398194Y-68523515D01*
X114373693Y-68501308D01*
X114351486Y-68476807D01*
X114331788Y-68450247D01*
X114314788Y-68421884D01*
X114300650Y-68391991D01*
X114289510Y-68360857D01*
X114281476Y-68328781D01*
X114276624Y-68296071D01*
X114275001Y-68263044D01*
X114275001Y-67136956D01*
X114276624Y-67103929D01*
X114281476Y-67071219D01*
X114289510Y-67039143D01*
X114300650Y-67008009D01*
X114314788Y-66978116D01*
X114331788Y-66949753D01*
X114351486Y-66923193D01*
X114373693Y-66898692D01*
X114398194Y-66876485D01*
X114424754Y-66856787D01*
X114453117Y-66839787D01*
X114483010Y-66825649D01*
X114514144Y-66814509D01*
X114546220Y-66806475D01*
X114578930Y-66801623D01*
X114611957Y-66800000D01*
X115488045Y-66800000D01*
X115521072Y-66801623D01*
X115521072Y-66801623D01*
G37*
D23*
X115050001Y-67700000D03*
D11*
G36*
X106996071Y-71301623D02*
X107028781Y-71306475D01*
X107060857Y-71314509D01*
X107091991Y-71325649D01*
X107121884Y-71339787D01*
X107150247Y-71356787D01*
X107176807Y-71376485D01*
X107201308Y-71398692D01*
X107223515Y-71423193D01*
X107243213Y-71449753D01*
X107260213Y-71478116D01*
X107274351Y-71508009D01*
X107285491Y-71539143D01*
X107293525Y-71571219D01*
X107298377Y-71603929D01*
X107300000Y-71636956D01*
X107300000Y-72763044D01*
X107298377Y-72796071D01*
X107293525Y-72828781D01*
X107285491Y-72860857D01*
X107274351Y-72891991D01*
X107260213Y-72921884D01*
X107243213Y-72950247D01*
X107223515Y-72976807D01*
X107201308Y-73001308D01*
X107176807Y-73023515D01*
X107150247Y-73043213D01*
X107121884Y-73060213D01*
X107091991Y-73074351D01*
X107060857Y-73085491D01*
X107028781Y-73093525D01*
X106996071Y-73098377D01*
X106963044Y-73100000D01*
X106086956Y-73100000D01*
X106053929Y-73098377D01*
X106021219Y-73093525D01*
X105989143Y-73085491D01*
X105958009Y-73074351D01*
X105928116Y-73060213D01*
X105899753Y-73043213D01*
X105873193Y-73023515D01*
X105848692Y-73001308D01*
X105826485Y-72976807D01*
X105806787Y-72950247D01*
X105789787Y-72921884D01*
X105775649Y-72891991D01*
X105764509Y-72860857D01*
X105756475Y-72828781D01*
X105751623Y-72796071D01*
X105750000Y-72763044D01*
X105750000Y-71636956D01*
X105751623Y-71603929D01*
X105756475Y-71571219D01*
X105764509Y-71539143D01*
X105775649Y-71508009D01*
X105789787Y-71478116D01*
X105806787Y-71449753D01*
X105826485Y-71423193D01*
X105848692Y-71398692D01*
X105873193Y-71376485D01*
X105899753Y-71356787D01*
X105928116Y-71339787D01*
X105958009Y-71325649D01*
X105989143Y-71314509D01*
X106021219Y-71306475D01*
X106053929Y-71301623D01*
X106086956Y-71300000D01*
X106963044Y-71300000D01*
X106996071Y-71301623D01*
X106996071Y-71301623D01*
G37*
D23*
X106525000Y-72200000D03*
D11*
G36*
X104946071Y-71301623D02*
X104978781Y-71306475D01*
X105010857Y-71314509D01*
X105041991Y-71325649D01*
X105071884Y-71339787D01*
X105100247Y-71356787D01*
X105126807Y-71376485D01*
X105151308Y-71398692D01*
X105173515Y-71423193D01*
X105193213Y-71449753D01*
X105210213Y-71478116D01*
X105224351Y-71508009D01*
X105235491Y-71539143D01*
X105243525Y-71571219D01*
X105248377Y-71603929D01*
X105250000Y-71636956D01*
X105250000Y-72763044D01*
X105248377Y-72796071D01*
X105243525Y-72828781D01*
X105235491Y-72860857D01*
X105224351Y-72891991D01*
X105210213Y-72921884D01*
X105193213Y-72950247D01*
X105173515Y-72976807D01*
X105151308Y-73001308D01*
X105126807Y-73023515D01*
X105100247Y-73043213D01*
X105071884Y-73060213D01*
X105041991Y-73074351D01*
X105010857Y-73085491D01*
X104978781Y-73093525D01*
X104946071Y-73098377D01*
X104913044Y-73100000D01*
X104036956Y-73100000D01*
X104003929Y-73098377D01*
X103971219Y-73093525D01*
X103939143Y-73085491D01*
X103908009Y-73074351D01*
X103878116Y-73060213D01*
X103849753Y-73043213D01*
X103823193Y-73023515D01*
X103798692Y-73001308D01*
X103776485Y-72976807D01*
X103756787Y-72950247D01*
X103739787Y-72921884D01*
X103725649Y-72891991D01*
X103714509Y-72860857D01*
X103706475Y-72828781D01*
X103701623Y-72796071D01*
X103700000Y-72763044D01*
X103700000Y-71636956D01*
X103701623Y-71603929D01*
X103706475Y-71571219D01*
X103714509Y-71539143D01*
X103725649Y-71508009D01*
X103739787Y-71478116D01*
X103756787Y-71449753D01*
X103776485Y-71423193D01*
X103798692Y-71398692D01*
X103823193Y-71376485D01*
X103849753Y-71356787D01*
X103878116Y-71339787D01*
X103908009Y-71325649D01*
X103939143Y-71314509D01*
X103971219Y-71306475D01*
X104003929Y-71301623D01*
X104036956Y-71300000D01*
X104913044Y-71300000D01*
X104946071Y-71301623D01*
X104946071Y-71301623D01*
G37*
D23*
X104475000Y-72200000D03*
D11*
G36*
X112396071Y-54001623D02*
X112428781Y-54006475D01*
X112460857Y-54014509D01*
X112491991Y-54025649D01*
X112521884Y-54039787D01*
X112550247Y-54056787D01*
X112576807Y-54076485D01*
X112601308Y-54098692D01*
X112623515Y-54123193D01*
X112643213Y-54149753D01*
X112660213Y-54178116D01*
X112674351Y-54208009D01*
X112685491Y-54239143D01*
X112693525Y-54271219D01*
X112698377Y-54303929D01*
X112700000Y-54336956D01*
X112700000Y-55463044D01*
X112698377Y-55496071D01*
X112693525Y-55528781D01*
X112685491Y-55560857D01*
X112674351Y-55591991D01*
X112660213Y-55621884D01*
X112643213Y-55650247D01*
X112623515Y-55676807D01*
X112601308Y-55701308D01*
X112576807Y-55723515D01*
X112550247Y-55743213D01*
X112521884Y-55760213D01*
X112491991Y-55774351D01*
X112460857Y-55785491D01*
X112428781Y-55793525D01*
X112396071Y-55798377D01*
X112363044Y-55800000D01*
X111486956Y-55800000D01*
X111453929Y-55798377D01*
X111421219Y-55793525D01*
X111389143Y-55785491D01*
X111358009Y-55774351D01*
X111328116Y-55760213D01*
X111299753Y-55743213D01*
X111273193Y-55723515D01*
X111248692Y-55701308D01*
X111226485Y-55676807D01*
X111206787Y-55650247D01*
X111189787Y-55621884D01*
X111175649Y-55591991D01*
X111164509Y-55560857D01*
X111156475Y-55528781D01*
X111151623Y-55496071D01*
X111150000Y-55463044D01*
X111150000Y-54336956D01*
X111151623Y-54303929D01*
X111156475Y-54271219D01*
X111164509Y-54239143D01*
X111175649Y-54208009D01*
X111189787Y-54178116D01*
X111206787Y-54149753D01*
X111226485Y-54123193D01*
X111248692Y-54098692D01*
X111273193Y-54076485D01*
X111299753Y-54056787D01*
X111328116Y-54039787D01*
X111358009Y-54025649D01*
X111389143Y-54014509D01*
X111421219Y-54006475D01*
X111453929Y-54001623D01*
X111486956Y-54000000D01*
X112363044Y-54000000D01*
X112396071Y-54001623D01*
X112396071Y-54001623D01*
G37*
D23*
X111925000Y-54900000D03*
D11*
G36*
X110346071Y-54001623D02*
X110378781Y-54006475D01*
X110410857Y-54014509D01*
X110441991Y-54025649D01*
X110471884Y-54039787D01*
X110500247Y-54056787D01*
X110526807Y-54076485D01*
X110551308Y-54098692D01*
X110573515Y-54123193D01*
X110593213Y-54149753D01*
X110610213Y-54178116D01*
X110624351Y-54208009D01*
X110635491Y-54239143D01*
X110643525Y-54271219D01*
X110648377Y-54303929D01*
X110650000Y-54336956D01*
X110650000Y-55463044D01*
X110648377Y-55496071D01*
X110643525Y-55528781D01*
X110635491Y-55560857D01*
X110624351Y-55591991D01*
X110610213Y-55621884D01*
X110593213Y-55650247D01*
X110573515Y-55676807D01*
X110551308Y-55701308D01*
X110526807Y-55723515D01*
X110500247Y-55743213D01*
X110471884Y-55760213D01*
X110441991Y-55774351D01*
X110410857Y-55785491D01*
X110378781Y-55793525D01*
X110346071Y-55798377D01*
X110313044Y-55800000D01*
X109436956Y-55800000D01*
X109403929Y-55798377D01*
X109371219Y-55793525D01*
X109339143Y-55785491D01*
X109308009Y-55774351D01*
X109278116Y-55760213D01*
X109249753Y-55743213D01*
X109223193Y-55723515D01*
X109198692Y-55701308D01*
X109176485Y-55676807D01*
X109156787Y-55650247D01*
X109139787Y-55621884D01*
X109125649Y-55591991D01*
X109114509Y-55560857D01*
X109106475Y-55528781D01*
X109101623Y-55496071D01*
X109100000Y-55463044D01*
X109100000Y-54336956D01*
X109101623Y-54303929D01*
X109106475Y-54271219D01*
X109114509Y-54239143D01*
X109125649Y-54208009D01*
X109139787Y-54178116D01*
X109156787Y-54149753D01*
X109176485Y-54123193D01*
X109198692Y-54098692D01*
X109223193Y-54076485D01*
X109249753Y-54056787D01*
X109278116Y-54039787D01*
X109308009Y-54025649D01*
X109339143Y-54014509D01*
X109371219Y-54006475D01*
X109403929Y-54001623D01*
X109436956Y-54000000D01*
X110313044Y-54000000D01*
X110346071Y-54001623D01*
X110346071Y-54001623D01*
G37*
D23*
X109875000Y-54900000D03*
D11*
G36*
X110046071Y-68701623D02*
X110078781Y-68706475D01*
X110110857Y-68714509D01*
X110141991Y-68725649D01*
X110171884Y-68739787D01*
X110200247Y-68756787D01*
X110226807Y-68776485D01*
X110251308Y-68798692D01*
X110273515Y-68823193D01*
X110293213Y-68849753D01*
X110310213Y-68878116D01*
X110324351Y-68908009D01*
X110335491Y-68939143D01*
X110343525Y-68971219D01*
X110348377Y-69003929D01*
X110350000Y-69036956D01*
X110350000Y-70163044D01*
X110348377Y-70196071D01*
X110343525Y-70228781D01*
X110335491Y-70260857D01*
X110324351Y-70291991D01*
X110310213Y-70321884D01*
X110293213Y-70350247D01*
X110273515Y-70376807D01*
X110251308Y-70401308D01*
X110226807Y-70423515D01*
X110200247Y-70443213D01*
X110171884Y-70460213D01*
X110141991Y-70474351D01*
X110110857Y-70485491D01*
X110078781Y-70493525D01*
X110046071Y-70498377D01*
X110013044Y-70500000D01*
X109136956Y-70500000D01*
X109103929Y-70498377D01*
X109071219Y-70493525D01*
X109039143Y-70485491D01*
X109008009Y-70474351D01*
X108978116Y-70460213D01*
X108949753Y-70443213D01*
X108923193Y-70423515D01*
X108898692Y-70401308D01*
X108876485Y-70376807D01*
X108856787Y-70350247D01*
X108839787Y-70321884D01*
X108825649Y-70291991D01*
X108814509Y-70260857D01*
X108806475Y-70228781D01*
X108801623Y-70196071D01*
X108800000Y-70163044D01*
X108800000Y-69036956D01*
X108801623Y-69003929D01*
X108806475Y-68971219D01*
X108814509Y-68939143D01*
X108825649Y-68908009D01*
X108839787Y-68878116D01*
X108856787Y-68849753D01*
X108876485Y-68823193D01*
X108898692Y-68798692D01*
X108923193Y-68776485D01*
X108949753Y-68756787D01*
X108978116Y-68739787D01*
X109008009Y-68725649D01*
X109039143Y-68714509D01*
X109071219Y-68706475D01*
X109103929Y-68701623D01*
X109136956Y-68700000D01*
X110013044Y-68700000D01*
X110046071Y-68701623D01*
X110046071Y-68701623D01*
G37*
D23*
X109575000Y-69600000D03*
D11*
G36*
X112096071Y-68701623D02*
X112128781Y-68706475D01*
X112160857Y-68714509D01*
X112191991Y-68725649D01*
X112221884Y-68739787D01*
X112250247Y-68756787D01*
X112276807Y-68776485D01*
X112301308Y-68798692D01*
X112323515Y-68823193D01*
X112343213Y-68849753D01*
X112360213Y-68878116D01*
X112374351Y-68908009D01*
X112385491Y-68939143D01*
X112393525Y-68971219D01*
X112398377Y-69003929D01*
X112400000Y-69036956D01*
X112400000Y-70163044D01*
X112398377Y-70196071D01*
X112393525Y-70228781D01*
X112385491Y-70260857D01*
X112374351Y-70291991D01*
X112360213Y-70321884D01*
X112343213Y-70350247D01*
X112323515Y-70376807D01*
X112301308Y-70401308D01*
X112276807Y-70423515D01*
X112250247Y-70443213D01*
X112221884Y-70460213D01*
X112191991Y-70474351D01*
X112160857Y-70485491D01*
X112128781Y-70493525D01*
X112096071Y-70498377D01*
X112063044Y-70500000D01*
X111186956Y-70500000D01*
X111153929Y-70498377D01*
X111121219Y-70493525D01*
X111089143Y-70485491D01*
X111058009Y-70474351D01*
X111028116Y-70460213D01*
X110999753Y-70443213D01*
X110973193Y-70423515D01*
X110948692Y-70401308D01*
X110926485Y-70376807D01*
X110906787Y-70350247D01*
X110889787Y-70321884D01*
X110875649Y-70291991D01*
X110864509Y-70260857D01*
X110856475Y-70228781D01*
X110851623Y-70196071D01*
X110850000Y-70163044D01*
X110850000Y-69036956D01*
X110851623Y-69003929D01*
X110856475Y-68971219D01*
X110864509Y-68939143D01*
X110875649Y-68908009D01*
X110889787Y-68878116D01*
X110906787Y-68849753D01*
X110926485Y-68823193D01*
X110948692Y-68798692D01*
X110973193Y-68776485D01*
X110999753Y-68756787D01*
X111028116Y-68739787D01*
X111058009Y-68725649D01*
X111089143Y-68714509D01*
X111121219Y-68706475D01*
X111153929Y-68701623D01*
X111186956Y-68700000D01*
X112063044Y-68700000D01*
X112096071Y-68701623D01*
X112096071Y-68701623D01*
G37*
D23*
X111625000Y-69600000D03*
D11*
G36*
X108474504Y-67146204D02*
X108498773Y-67149804D01*
X108522571Y-67155765D01*
X108545671Y-67164030D01*
X108567849Y-67174520D01*
X108588893Y-67187133D01*
X108608598Y-67201747D01*
X108626777Y-67218223D01*
X108643253Y-67236402D01*
X108657867Y-67256107D01*
X108670480Y-67277151D01*
X108680970Y-67299329D01*
X108689235Y-67322429D01*
X108695196Y-67346227D01*
X108698796Y-67370496D01*
X108700000Y-67395000D01*
X108700000Y-67895000D01*
X108698796Y-67919504D01*
X108695196Y-67943773D01*
X108689235Y-67967571D01*
X108680970Y-67990671D01*
X108670480Y-68012849D01*
X108657867Y-68033893D01*
X108643253Y-68053598D01*
X108626777Y-68071777D01*
X108608598Y-68088253D01*
X108588893Y-68102867D01*
X108567849Y-68115480D01*
X108545671Y-68125970D01*
X108522571Y-68134235D01*
X108498773Y-68140196D01*
X108474504Y-68143796D01*
X108450000Y-68145000D01*
X106600000Y-68145000D01*
X106575496Y-68143796D01*
X106551227Y-68140196D01*
X106527429Y-68134235D01*
X106504329Y-68125970D01*
X106482151Y-68115480D01*
X106461107Y-68102867D01*
X106441402Y-68088253D01*
X106423223Y-68071777D01*
X106406747Y-68053598D01*
X106392133Y-68033893D01*
X106379520Y-68012849D01*
X106369030Y-67990671D01*
X106360765Y-67967571D01*
X106354804Y-67943773D01*
X106351204Y-67919504D01*
X106350000Y-67895000D01*
X106350000Y-67395000D01*
X106351204Y-67370496D01*
X106354804Y-67346227D01*
X106360765Y-67322429D01*
X106369030Y-67299329D01*
X106379520Y-67277151D01*
X106392133Y-67256107D01*
X106406747Y-67236402D01*
X106423223Y-67218223D01*
X106441402Y-67201747D01*
X106461107Y-67187133D01*
X106482151Y-67174520D01*
X106504329Y-67164030D01*
X106527429Y-67155765D01*
X106551227Y-67149804D01*
X106575496Y-67146204D01*
X106600000Y-67145000D01*
X108450000Y-67145000D01*
X108474504Y-67146204D01*
X108474504Y-67146204D01*
G37*
D24*
X107525000Y-67645000D03*
D11*
G36*
X108474504Y-65876204D02*
X108498773Y-65879804D01*
X108522571Y-65885765D01*
X108545671Y-65894030D01*
X108567849Y-65904520D01*
X108588893Y-65917133D01*
X108608598Y-65931747D01*
X108626777Y-65948223D01*
X108643253Y-65966402D01*
X108657867Y-65986107D01*
X108670480Y-66007151D01*
X108680970Y-66029329D01*
X108689235Y-66052429D01*
X108695196Y-66076227D01*
X108698796Y-66100496D01*
X108700000Y-66125000D01*
X108700000Y-66625000D01*
X108698796Y-66649504D01*
X108695196Y-66673773D01*
X108689235Y-66697571D01*
X108680970Y-66720671D01*
X108670480Y-66742849D01*
X108657867Y-66763893D01*
X108643253Y-66783598D01*
X108626777Y-66801777D01*
X108608598Y-66818253D01*
X108588893Y-66832867D01*
X108567849Y-66845480D01*
X108545671Y-66855970D01*
X108522571Y-66864235D01*
X108498773Y-66870196D01*
X108474504Y-66873796D01*
X108450000Y-66875000D01*
X106600000Y-66875000D01*
X106575496Y-66873796D01*
X106551227Y-66870196D01*
X106527429Y-66864235D01*
X106504329Y-66855970D01*
X106482151Y-66845480D01*
X106461107Y-66832867D01*
X106441402Y-66818253D01*
X106423223Y-66801777D01*
X106406747Y-66783598D01*
X106392133Y-66763893D01*
X106379520Y-66742849D01*
X106369030Y-66720671D01*
X106360765Y-66697571D01*
X106354804Y-66673773D01*
X106351204Y-66649504D01*
X106350000Y-66625000D01*
X106350000Y-66125000D01*
X106351204Y-66100496D01*
X106354804Y-66076227D01*
X106360765Y-66052429D01*
X106369030Y-66029329D01*
X106379520Y-66007151D01*
X106392133Y-65986107D01*
X106406747Y-65966402D01*
X106423223Y-65948223D01*
X106441402Y-65931747D01*
X106461107Y-65917133D01*
X106482151Y-65904520D01*
X106504329Y-65894030D01*
X106527429Y-65885765D01*
X106551227Y-65879804D01*
X106575496Y-65876204D01*
X106600000Y-65875000D01*
X108450000Y-65875000D01*
X108474504Y-65876204D01*
X108474504Y-65876204D01*
G37*
D24*
X107525000Y-66375000D03*
D11*
G36*
X108474504Y-64606204D02*
X108498773Y-64609804D01*
X108522571Y-64615765D01*
X108545671Y-64624030D01*
X108567849Y-64634520D01*
X108588893Y-64647133D01*
X108608598Y-64661747D01*
X108626777Y-64678223D01*
X108643253Y-64696402D01*
X108657867Y-64716107D01*
X108670480Y-64737151D01*
X108680970Y-64759329D01*
X108689235Y-64782429D01*
X108695196Y-64806227D01*
X108698796Y-64830496D01*
X108700000Y-64855000D01*
X108700000Y-65355000D01*
X108698796Y-65379504D01*
X108695196Y-65403773D01*
X108689235Y-65427571D01*
X108680970Y-65450671D01*
X108670480Y-65472849D01*
X108657867Y-65493893D01*
X108643253Y-65513598D01*
X108626777Y-65531777D01*
X108608598Y-65548253D01*
X108588893Y-65562867D01*
X108567849Y-65575480D01*
X108545671Y-65585970D01*
X108522571Y-65594235D01*
X108498773Y-65600196D01*
X108474504Y-65603796D01*
X108450000Y-65605000D01*
X106600000Y-65605000D01*
X106575496Y-65603796D01*
X106551227Y-65600196D01*
X106527429Y-65594235D01*
X106504329Y-65585970D01*
X106482151Y-65575480D01*
X106461107Y-65562867D01*
X106441402Y-65548253D01*
X106423223Y-65531777D01*
X106406747Y-65513598D01*
X106392133Y-65493893D01*
X106379520Y-65472849D01*
X106369030Y-65450671D01*
X106360765Y-65427571D01*
X106354804Y-65403773D01*
X106351204Y-65379504D01*
X106350000Y-65355000D01*
X106350000Y-64855000D01*
X106351204Y-64830496D01*
X106354804Y-64806227D01*
X106360765Y-64782429D01*
X106369030Y-64759329D01*
X106379520Y-64737151D01*
X106392133Y-64716107D01*
X106406747Y-64696402D01*
X106423223Y-64678223D01*
X106441402Y-64661747D01*
X106461107Y-64647133D01*
X106482151Y-64634520D01*
X106504329Y-64624030D01*
X106527429Y-64615765D01*
X106551227Y-64609804D01*
X106575496Y-64606204D01*
X106600000Y-64605000D01*
X108450000Y-64605000D01*
X108474504Y-64606204D01*
X108474504Y-64606204D01*
G37*
D24*
X107525000Y-65105000D03*
D11*
G36*
X108474504Y-63336204D02*
X108498773Y-63339804D01*
X108522571Y-63345765D01*
X108545671Y-63354030D01*
X108567849Y-63364520D01*
X108588893Y-63377133D01*
X108608598Y-63391747D01*
X108626777Y-63408223D01*
X108643253Y-63426402D01*
X108657867Y-63446107D01*
X108670480Y-63467151D01*
X108680970Y-63489329D01*
X108689235Y-63512429D01*
X108695196Y-63536227D01*
X108698796Y-63560496D01*
X108700000Y-63585000D01*
X108700000Y-64085000D01*
X108698796Y-64109504D01*
X108695196Y-64133773D01*
X108689235Y-64157571D01*
X108680970Y-64180671D01*
X108670480Y-64202849D01*
X108657867Y-64223893D01*
X108643253Y-64243598D01*
X108626777Y-64261777D01*
X108608598Y-64278253D01*
X108588893Y-64292867D01*
X108567849Y-64305480D01*
X108545671Y-64315970D01*
X108522571Y-64324235D01*
X108498773Y-64330196D01*
X108474504Y-64333796D01*
X108450000Y-64335000D01*
X106600000Y-64335000D01*
X106575496Y-64333796D01*
X106551227Y-64330196D01*
X106527429Y-64324235D01*
X106504329Y-64315970D01*
X106482151Y-64305480D01*
X106461107Y-64292867D01*
X106441402Y-64278253D01*
X106423223Y-64261777D01*
X106406747Y-64243598D01*
X106392133Y-64223893D01*
X106379520Y-64202849D01*
X106369030Y-64180671D01*
X106360765Y-64157571D01*
X106354804Y-64133773D01*
X106351204Y-64109504D01*
X106350000Y-64085000D01*
X106350000Y-63585000D01*
X106351204Y-63560496D01*
X106354804Y-63536227D01*
X106360765Y-63512429D01*
X106369030Y-63489329D01*
X106379520Y-63467151D01*
X106392133Y-63446107D01*
X106406747Y-63426402D01*
X106423223Y-63408223D01*
X106441402Y-63391747D01*
X106461107Y-63377133D01*
X106482151Y-63364520D01*
X106504329Y-63354030D01*
X106527429Y-63345765D01*
X106551227Y-63339804D01*
X106575496Y-63336204D01*
X106600000Y-63335000D01*
X108450000Y-63335000D01*
X108474504Y-63336204D01*
X108474504Y-63336204D01*
G37*
D24*
X107525000Y-63835000D03*
D11*
G36*
X108474504Y-62066204D02*
X108498773Y-62069804D01*
X108522571Y-62075765D01*
X108545671Y-62084030D01*
X108567849Y-62094520D01*
X108588893Y-62107133D01*
X108608598Y-62121747D01*
X108626777Y-62138223D01*
X108643253Y-62156402D01*
X108657867Y-62176107D01*
X108670480Y-62197151D01*
X108680970Y-62219329D01*
X108689235Y-62242429D01*
X108695196Y-62266227D01*
X108698796Y-62290496D01*
X108700000Y-62315000D01*
X108700000Y-62815000D01*
X108698796Y-62839504D01*
X108695196Y-62863773D01*
X108689235Y-62887571D01*
X108680970Y-62910671D01*
X108670480Y-62932849D01*
X108657867Y-62953893D01*
X108643253Y-62973598D01*
X108626777Y-62991777D01*
X108608598Y-63008253D01*
X108588893Y-63022867D01*
X108567849Y-63035480D01*
X108545671Y-63045970D01*
X108522571Y-63054235D01*
X108498773Y-63060196D01*
X108474504Y-63063796D01*
X108450000Y-63065000D01*
X106600000Y-63065000D01*
X106575496Y-63063796D01*
X106551227Y-63060196D01*
X106527429Y-63054235D01*
X106504329Y-63045970D01*
X106482151Y-63035480D01*
X106461107Y-63022867D01*
X106441402Y-63008253D01*
X106423223Y-62991777D01*
X106406747Y-62973598D01*
X106392133Y-62953893D01*
X106379520Y-62932849D01*
X106369030Y-62910671D01*
X106360765Y-62887571D01*
X106354804Y-62863773D01*
X106351204Y-62839504D01*
X106350000Y-62815000D01*
X106350000Y-62315000D01*
X106351204Y-62290496D01*
X106354804Y-62266227D01*
X106360765Y-62242429D01*
X106369030Y-62219329D01*
X106379520Y-62197151D01*
X106392133Y-62176107D01*
X106406747Y-62156402D01*
X106423223Y-62138223D01*
X106441402Y-62121747D01*
X106461107Y-62107133D01*
X106482151Y-62094520D01*
X106504329Y-62084030D01*
X106527429Y-62075765D01*
X106551227Y-62069804D01*
X106575496Y-62066204D01*
X106600000Y-62065000D01*
X108450000Y-62065000D01*
X108474504Y-62066204D01*
X108474504Y-62066204D01*
G37*
D24*
X107525000Y-62565000D03*
D11*
G36*
X108474504Y-60796204D02*
X108498773Y-60799804D01*
X108522571Y-60805765D01*
X108545671Y-60814030D01*
X108567849Y-60824520D01*
X108588893Y-60837133D01*
X108608598Y-60851747D01*
X108626777Y-60868223D01*
X108643253Y-60886402D01*
X108657867Y-60906107D01*
X108670480Y-60927151D01*
X108680970Y-60949329D01*
X108689235Y-60972429D01*
X108695196Y-60996227D01*
X108698796Y-61020496D01*
X108700000Y-61045000D01*
X108700000Y-61545000D01*
X108698796Y-61569504D01*
X108695196Y-61593773D01*
X108689235Y-61617571D01*
X108680970Y-61640671D01*
X108670480Y-61662849D01*
X108657867Y-61683893D01*
X108643253Y-61703598D01*
X108626777Y-61721777D01*
X108608598Y-61738253D01*
X108588893Y-61752867D01*
X108567849Y-61765480D01*
X108545671Y-61775970D01*
X108522571Y-61784235D01*
X108498773Y-61790196D01*
X108474504Y-61793796D01*
X108450000Y-61795000D01*
X106600000Y-61795000D01*
X106575496Y-61793796D01*
X106551227Y-61790196D01*
X106527429Y-61784235D01*
X106504329Y-61775970D01*
X106482151Y-61765480D01*
X106461107Y-61752867D01*
X106441402Y-61738253D01*
X106423223Y-61721777D01*
X106406747Y-61703598D01*
X106392133Y-61683893D01*
X106379520Y-61662849D01*
X106369030Y-61640671D01*
X106360765Y-61617571D01*
X106354804Y-61593773D01*
X106351204Y-61569504D01*
X106350000Y-61545000D01*
X106350000Y-61045000D01*
X106351204Y-61020496D01*
X106354804Y-60996227D01*
X106360765Y-60972429D01*
X106369030Y-60949329D01*
X106379520Y-60927151D01*
X106392133Y-60906107D01*
X106406747Y-60886402D01*
X106423223Y-60868223D01*
X106441402Y-60851747D01*
X106461107Y-60837133D01*
X106482151Y-60824520D01*
X106504329Y-60814030D01*
X106527429Y-60805765D01*
X106551227Y-60799804D01*
X106575496Y-60796204D01*
X106600000Y-60795000D01*
X108450000Y-60795000D01*
X108474504Y-60796204D01*
X108474504Y-60796204D01*
G37*
D24*
X107525000Y-61295000D03*
D11*
G36*
X108474504Y-59526204D02*
X108498773Y-59529804D01*
X108522571Y-59535765D01*
X108545671Y-59544030D01*
X108567849Y-59554520D01*
X108588893Y-59567133D01*
X108608598Y-59581747D01*
X108626777Y-59598223D01*
X108643253Y-59616402D01*
X108657867Y-59636107D01*
X108670480Y-59657151D01*
X108680970Y-59679329D01*
X108689235Y-59702429D01*
X108695196Y-59726227D01*
X108698796Y-59750496D01*
X108700000Y-59775000D01*
X108700000Y-60275000D01*
X108698796Y-60299504D01*
X108695196Y-60323773D01*
X108689235Y-60347571D01*
X108680970Y-60370671D01*
X108670480Y-60392849D01*
X108657867Y-60413893D01*
X108643253Y-60433598D01*
X108626777Y-60451777D01*
X108608598Y-60468253D01*
X108588893Y-60482867D01*
X108567849Y-60495480D01*
X108545671Y-60505970D01*
X108522571Y-60514235D01*
X108498773Y-60520196D01*
X108474504Y-60523796D01*
X108450000Y-60525000D01*
X106600000Y-60525000D01*
X106575496Y-60523796D01*
X106551227Y-60520196D01*
X106527429Y-60514235D01*
X106504329Y-60505970D01*
X106482151Y-60495480D01*
X106461107Y-60482867D01*
X106441402Y-60468253D01*
X106423223Y-60451777D01*
X106406747Y-60433598D01*
X106392133Y-60413893D01*
X106379520Y-60392849D01*
X106369030Y-60370671D01*
X106360765Y-60347571D01*
X106354804Y-60323773D01*
X106351204Y-60299504D01*
X106350000Y-60275000D01*
X106350000Y-59775000D01*
X106351204Y-59750496D01*
X106354804Y-59726227D01*
X106360765Y-59702429D01*
X106369030Y-59679329D01*
X106379520Y-59657151D01*
X106392133Y-59636107D01*
X106406747Y-59616402D01*
X106423223Y-59598223D01*
X106441402Y-59581747D01*
X106461107Y-59567133D01*
X106482151Y-59554520D01*
X106504329Y-59544030D01*
X106527429Y-59535765D01*
X106551227Y-59529804D01*
X106575496Y-59526204D01*
X106600000Y-59525000D01*
X108450000Y-59525000D01*
X108474504Y-59526204D01*
X108474504Y-59526204D01*
G37*
D24*
X107525000Y-60025000D03*
D11*
G36*
X108474504Y-58256204D02*
X108498773Y-58259804D01*
X108522571Y-58265765D01*
X108545671Y-58274030D01*
X108567849Y-58284520D01*
X108588893Y-58297133D01*
X108608598Y-58311747D01*
X108626777Y-58328223D01*
X108643253Y-58346402D01*
X108657867Y-58366107D01*
X108670480Y-58387151D01*
X108680970Y-58409329D01*
X108689235Y-58432429D01*
X108695196Y-58456227D01*
X108698796Y-58480496D01*
X108700000Y-58505000D01*
X108700000Y-59005000D01*
X108698796Y-59029504D01*
X108695196Y-59053773D01*
X108689235Y-59077571D01*
X108680970Y-59100671D01*
X108670480Y-59122849D01*
X108657867Y-59143893D01*
X108643253Y-59163598D01*
X108626777Y-59181777D01*
X108608598Y-59198253D01*
X108588893Y-59212867D01*
X108567849Y-59225480D01*
X108545671Y-59235970D01*
X108522571Y-59244235D01*
X108498773Y-59250196D01*
X108474504Y-59253796D01*
X108450000Y-59255000D01*
X106600000Y-59255000D01*
X106575496Y-59253796D01*
X106551227Y-59250196D01*
X106527429Y-59244235D01*
X106504329Y-59235970D01*
X106482151Y-59225480D01*
X106461107Y-59212867D01*
X106441402Y-59198253D01*
X106423223Y-59181777D01*
X106406747Y-59163598D01*
X106392133Y-59143893D01*
X106379520Y-59122849D01*
X106369030Y-59100671D01*
X106360765Y-59077571D01*
X106354804Y-59053773D01*
X106351204Y-59029504D01*
X106350000Y-59005000D01*
X106350000Y-58505000D01*
X106351204Y-58480496D01*
X106354804Y-58456227D01*
X106360765Y-58432429D01*
X106369030Y-58409329D01*
X106379520Y-58387151D01*
X106392133Y-58366107D01*
X106406747Y-58346402D01*
X106423223Y-58328223D01*
X106441402Y-58311747D01*
X106461107Y-58297133D01*
X106482151Y-58284520D01*
X106504329Y-58274030D01*
X106527429Y-58265765D01*
X106551227Y-58259804D01*
X106575496Y-58256204D01*
X106600000Y-58255000D01*
X108450000Y-58255000D01*
X108474504Y-58256204D01*
X108474504Y-58256204D01*
G37*
D24*
X107525000Y-58755000D03*
D11*
G36*
X113424504Y-58256204D02*
X113448773Y-58259804D01*
X113472571Y-58265765D01*
X113495671Y-58274030D01*
X113517849Y-58284520D01*
X113538893Y-58297133D01*
X113558598Y-58311747D01*
X113576777Y-58328223D01*
X113593253Y-58346402D01*
X113607867Y-58366107D01*
X113620480Y-58387151D01*
X113630970Y-58409329D01*
X113639235Y-58432429D01*
X113645196Y-58456227D01*
X113648796Y-58480496D01*
X113650000Y-58505000D01*
X113650000Y-59005000D01*
X113648796Y-59029504D01*
X113645196Y-59053773D01*
X113639235Y-59077571D01*
X113630970Y-59100671D01*
X113620480Y-59122849D01*
X113607867Y-59143893D01*
X113593253Y-59163598D01*
X113576777Y-59181777D01*
X113558598Y-59198253D01*
X113538893Y-59212867D01*
X113517849Y-59225480D01*
X113495671Y-59235970D01*
X113472571Y-59244235D01*
X113448773Y-59250196D01*
X113424504Y-59253796D01*
X113400000Y-59255000D01*
X111550000Y-59255000D01*
X111525496Y-59253796D01*
X111501227Y-59250196D01*
X111477429Y-59244235D01*
X111454329Y-59235970D01*
X111432151Y-59225480D01*
X111411107Y-59212867D01*
X111391402Y-59198253D01*
X111373223Y-59181777D01*
X111356747Y-59163598D01*
X111342133Y-59143893D01*
X111329520Y-59122849D01*
X111319030Y-59100671D01*
X111310765Y-59077571D01*
X111304804Y-59053773D01*
X111301204Y-59029504D01*
X111300000Y-59005000D01*
X111300000Y-58505000D01*
X111301204Y-58480496D01*
X111304804Y-58456227D01*
X111310765Y-58432429D01*
X111319030Y-58409329D01*
X111329520Y-58387151D01*
X111342133Y-58366107D01*
X111356747Y-58346402D01*
X111373223Y-58328223D01*
X111391402Y-58311747D01*
X111411107Y-58297133D01*
X111432151Y-58284520D01*
X111454329Y-58274030D01*
X111477429Y-58265765D01*
X111501227Y-58259804D01*
X111525496Y-58256204D01*
X111550000Y-58255000D01*
X113400000Y-58255000D01*
X113424504Y-58256204D01*
X113424504Y-58256204D01*
G37*
D24*
X112475000Y-58755000D03*
D11*
G36*
X113424504Y-59526204D02*
X113448773Y-59529804D01*
X113472571Y-59535765D01*
X113495671Y-59544030D01*
X113517849Y-59554520D01*
X113538893Y-59567133D01*
X113558598Y-59581747D01*
X113576777Y-59598223D01*
X113593253Y-59616402D01*
X113607867Y-59636107D01*
X113620480Y-59657151D01*
X113630970Y-59679329D01*
X113639235Y-59702429D01*
X113645196Y-59726227D01*
X113648796Y-59750496D01*
X113650000Y-59775000D01*
X113650000Y-60275000D01*
X113648796Y-60299504D01*
X113645196Y-60323773D01*
X113639235Y-60347571D01*
X113630970Y-60370671D01*
X113620480Y-60392849D01*
X113607867Y-60413893D01*
X113593253Y-60433598D01*
X113576777Y-60451777D01*
X113558598Y-60468253D01*
X113538893Y-60482867D01*
X113517849Y-60495480D01*
X113495671Y-60505970D01*
X113472571Y-60514235D01*
X113448773Y-60520196D01*
X113424504Y-60523796D01*
X113400000Y-60525000D01*
X111550000Y-60525000D01*
X111525496Y-60523796D01*
X111501227Y-60520196D01*
X111477429Y-60514235D01*
X111454329Y-60505970D01*
X111432151Y-60495480D01*
X111411107Y-60482867D01*
X111391402Y-60468253D01*
X111373223Y-60451777D01*
X111356747Y-60433598D01*
X111342133Y-60413893D01*
X111329520Y-60392849D01*
X111319030Y-60370671D01*
X111310765Y-60347571D01*
X111304804Y-60323773D01*
X111301204Y-60299504D01*
X111300000Y-60275000D01*
X111300000Y-59775000D01*
X111301204Y-59750496D01*
X111304804Y-59726227D01*
X111310765Y-59702429D01*
X111319030Y-59679329D01*
X111329520Y-59657151D01*
X111342133Y-59636107D01*
X111356747Y-59616402D01*
X111373223Y-59598223D01*
X111391402Y-59581747D01*
X111411107Y-59567133D01*
X111432151Y-59554520D01*
X111454329Y-59544030D01*
X111477429Y-59535765D01*
X111501227Y-59529804D01*
X111525496Y-59526204D01*
X111550000Y-59525000D01*
X113400000Y-59525000D01*
X113424504Y-59526204D01*
X113424504Y-59526204D01*
G37*
D24*
X112475000Y-60025000D03*
D11*
G36*
X113424504Y-60796204D02*
X113448773Y-60799804D01*
X113472571Y-60805765D01*
X113495671Y-60814030D01*
X113517849Y-60824520D01*
X113538893Y-60837133D01*
X113558598Y-60851747D01*
X113576777Y-60868223D01*
X113593253Y-60886402D01*
X113607867Y-60906107D01*
X113620480Y-60927151D01*
X113630970Y-60949329D01*
X113639235Y-60972429D01*
X113645196Y-60996227D01*
X113648796Y-61020496D01*
X113650000Y-61045000D01*
X113650000Y-61545000D01*
X113648796Y-61569504D01*
X113645196Y-61593773D01*
X113639235Y-61617571D01*
X113630970Y-61640671D01*
X113620480Y-61662849D01*
X113607867Y-61683893D01*
X113593253Y-61703598D01*
X113576777Y-61721777D01*
X113558598Y-61738253D01*
X113538893Y-61752867D01*
X113517849Y-61765480D01*
X113495671Y-61775970D01*
X113472571Y-61784235D01*
X113448773Y-61790196D01*
X113424504Y-61793796D01*
X113400000Y-61795000D01*
X111550000Y-61795000D01*
X111525496Y-61793796D01*
X111501227Y-61790196D01*
X111477429Y-61784235D01*
X111454329Y-61775970D01*
X111432151Y-61765480D01*
X111411107Y-61752867D01*
X111391402Y-61738253D01*
X111373223Y-61721777D01*
X111356747Y-61703598D01*
X111342133Y-61683893D01*
X111329520Y-61662849D01*
X111319030Y-61640671D01*
X111310765Y-61617571D01*
X111304804Y-61593773D01*
X111301204Y-61569504D01*
X111300000Y-61545000D01*
X111300000Y-61045000D01*
X111301204Y-61020496D01*
X111304804Y-60996227D01*
X111310765Y-60972429D01*
X111319030Y-60949329D01*
X111329520Y-60927151D01*
X111342133Y-60906107D01*
X111356747Y-60886402D01*
X111373223Y-60868223D01*
X111391402Y-60851747D01*
X111411107Y-60837133D01*
X111432151Y-60824520D01*
X111454329Y-60814030D01*
X111477429Y-60805765D01*
X111501227Y-60799804D01*
X111525496Y-60796204D01*
X111550000Y-60795000D01*
X113400000Y-60795000D01*
X113424504Y-60796204D01*
X113424504Y-60796204D01*
G37*
D24*
X112475000Y-61295000D03*
D11*
G36*
X113424504Y-62066204D02*
X113448773Y-62069804D01*
X113472571Y-62075765D01*
X113495671Y-62084030D01*
X113517849Y-62094520D01*
X113538893Y-62107133D01*
X113558598Y-62121747D01*
X113576777Y-62138223D01*
X113593253Y-62156402D01*
X113607867Y-62176107D01*
X113620480Y-62197151D01*
X113630970Y-62219329D01*
X113639235Y-62242429D01*
X113645196Y-62266227D01*
X113648796Y-62290496D01*
X113650000Y-62315000D01*
X113650000Y-62815000D01*
X113648796Y-62839504D01*
X113645196Y-62863773D01*
X113639235Y-62887571D01*
X113630970Y-62910671D01*
X113620480Y-62932849D01*
X113607867Y-62953893D01*
X113593253Y-62973598D01*
X113576777Y-62991777D01*
X113558598Y-63008253D01*
X113538893Y-63022867D01*
X113517849Y-63035480D01*
X113495671Y-63045970D01*
X113472571Y-63054235D01*
X113448773Y-63060196D01*
X113424504Y-63063796D01*
X113400000Y-63065000D01*
X111550000Y-63065000D01*
X111525496Y-63063796D01*
X111501227Y-63060196D01*
X111477429Y-63054235D01*
X111454329Y-63045970D01*
X111432151Y-63035480D01*
X111411107Y-63022867D01*
X111391402Y-63008253D01*
X111373223Y-62991777D01*
X111356747Y-62973598D01*
X111342133Y-62953893D01*
X111329520Y-62932849D01*
X111319030Y-62910671D01*
X111310765Y-62887571D01*
X111304804Y-62863773D01*
X111301204Y-62839504D01*
X111300000Y-62815000D01*
X111300000Y-62315000D01*
X111301204Y-62290496D01*
X111304804Y-62266227D01*
X111310765Y-62242429D01*
X111319030Y-62219329D01*
X111329520Y-62197151D01*
X111342133Y-62176107D01*
X111356747Y-62156402D01*
X111373223Y-62138223D01*
X111391402Y-62121747D01*
X111411107Y-62107133D01*
X111432151Y-62094520D01*
X111454329Y-62084030D01*
X111477429Y-62075765D01*
X111501227Y-62069804D01*
X111525496Y-62066204D01*
X111550000Y-62065000D01*
X113400000Y-62065000D01*
X113424504Y-62066204D01*
X113424504Y-62066204D01*
G37*
D24*
X112475000Y-62565000D03*
D11*
G36*
X113424504Y-63336204D02*
X113448773Y-63339804D01*
X113472571Y-63345765D01*
X113495671Y-63354030D01*
X113517849Y-63364520D01*
X113538893Y-63377133D01*
X113558598Y-63391747D01*
X113576777Y-63408223D01*
X113593253Y-63426402D01*
X113607867Y-63446107D01*
X113620480Y-63467151D01*
X113630970Y-63489329D01*
X113639235Y-63512429D01*
X113645196Y-63536227D01*
X113648796Y-63560496D01*
X113650000Y-63585000D01*
X113650000Y-64085000D01*
X113648796Y-64109504D01*
X113645196Y-64133773D01*
X113639235Y-64157571D01*
X113630970Y-64180671D01*
X113620480Y-64202849D01*
X113607867Y-64223893D01*
X113593253Y-64243598D01*
X113576777Y-64261777D01*
X113558598Y-64278253D01*
X113538893Y-64292867D01*
X113517849Y-64305480D01*
X113495671Y-64315970D01*
X113472571Y-64324235D01*
X113448773Y-64330196D01*
X113424504Y-64333796D01*
X113400000Y-64335000D01*
X111550000Y-64335000D01*
X111525496Y-64333796D01*
X111501227Y-64330196D01*
X111477429Y-64324235D01*
X111454329Y-64315970D01*
X111432151Y-64305480D01*
X111411107Y-64292867D01*
X111391402Y-64278253D01*
X111373223Y-64261777D01*
X111356747Y-64243598D01*
X111342133Y-64223893D01*
X111329520Y-64202849D01*
X111319030Y-64180671D01*
X111310765Y-64157571D01*
X111304804Y-64133773D01*
X111301204Y-64109504D01*
X111300000Y-64085000D01*
X111300000Y-63585000D01*
X111301204Y-63560496D01*
X111304804Y-63536227D01*
X111310765Y-63512429D01*
X111319030Y-63489329D01*
X111329520Y-63467151D01*
X111342133Y-63446107D01*
X111356747Y-63426402D01*
X111373223Y-63408223D01*
X111391402Y-63391747D01*
X111411107Y-63377133D01*
X111432151Y-63364520D01*
X111454329Y-63354030D01*
X111477429Y-63345765D01*
X111501227Y-63339804D01*
X111525496Y-63336204D01*
X111550000Y-63335000D01*
X113400000Y-63335000D01*
X113424504Y-63336204D01*
X113424504Y-63336204D01*
G37*
D24*
X112475000Y-63835000D03*
D11*
G36*
X113424504Y-64606204D02*
X113448773Y-64609804D01*
X113472571Y-64615765D01*
X113495671Y-64624030D01*
X113517849Y-64634520D01*
X113538893Y-64647133D01*
X113558598Y-64661747D01*
X113576777Y-64678223D01*
X113593253Y-64696402D01*
X113607867Y-64716107D01*
X113620480Y-64737151D01*
X113630970Y-64759329D01*
X113639235Y-64782429D01*
X113645196Y-64806227D01*
X113648796Y-64830496D01*
X113650000Y-64855000D01*
X113650000Y-65355000D01*
X113648796Y-65379504D01*
X113645196Y-65403773D01*
X113639235Y-65427571D01*
X113630970Y-65450671D01*
X113620480Y-65472849D01*
X113607867Y-65493893D01*
X113593253Y-65513598D01*
X113576777Y-65531777D01*
X113558598Y-65548253D01*
X113538893Y-65562867D01*
X113517849Y-65575480D01*
X113495671Y-65585970D01*
X113472571Y-65594235D01*
X113448773Y-65600196D01*
X113424504Y-65603796D01*
X113400000Y-65605000D01*
X111550000Y-65605000D01*
X111525496Y-65603796D01*
X111501227Y-65600196D01*
X111477429Y-65594235D01*
X111454329Y-65585970D01*
X111432151Y-65575480D01*
X111411107Y-65562867D01*
X111391402Y-65548253D01*
X111373223Y-65531777D01*
X111356747Y-65513598D01*
X111342133Y-65493893D01*
X111329520Y-65472849D01*
X111319030Y-65450671D01*
X111310765Y-65427571D01*
X111304804Y-65403773D01*
X111301204Y-65379504D01*
X111300000Y-65355000D01*
X111300000Y-64855000D01*
X111301204Y-64830496D01*
X111304804Y-64806227D01*
X111310765Y-64782429D01*
X111319030Y-64759329D01*
X111329520Y-64737151D01*
X111342133Y-64716107D01*
X111356747Y-64696402D01*
X111373223Y-64678223D01*
X111391402Y-64661747D01*
X111411107Y-64647133D01*
X111432151Y-64634520D01*
X111454329Y-64624030D01*
X111477429Y-64615765D01*
X111501227Y-64609804D01*
X111525496Y-64606204D01*
X111550000Y-64605000D01*
X113400000Y-64605000D01*
X113424504Y-64606204D01*
X113424504Y-64606204D01*
G37*
D24*
X112475000Y-65105000D03*
D11*
G36*
X113424504Y-65876204D02*
X113448773Y-65879804D01*
X113472571Y-65885765D01*
X113495671Y-65894030D01*
X113517849Y-65904520D01*
X113538893Y-65917133D01*
X113558598Y-65931747D01*
X113576777Y-65948223D01*
X113593253Y-65966402D01*
X113607867Y-65986107D01*
X113620480Y-66007151D01*
X113630970Y-66029329D01*
X113639235Y-66052429D01*
X113645196Y-66076227D01*
X113648796Y-66100496D01*
X113650000Y-66125000D01*
X113650000Y-66625000D01*
X113648796Y-66649504D01*
X113645196Y-66673773D01*
X113639235Y-66697571D01*
X113630970Y-66720671D01*
X113620480Y-66742849D01*
X113607867Y-66763893D01*
X113593253Y-66783598D01*
X113576777Y-66801777D01*
X113558598Y-66818253D01*
X113538893Y-66832867D01*
X113517849Y-66845480D01*
X113495671Y-66855970D01*
X113472571Y-66864235D01*
X113448773Y-66870196D01*
X113424504Y-66873796D01*
X113400000Y-66875000D01*
X111550000Y-66875000D01*
X111525496Y-66873796D01*
X111501227Y-66870196D01*
X111477429Y-66864235D01*
X111454329Y-66855970D01*
X111432151Y-66845480D01*
X111411107Y-66832867D01*
X111391402Y-66818253D01*
X111373223Y-66801777D01*
X111356747Y-66783598D01*
X111342133Y-66763893D01*
X111329520Y-66742849D01*
X111319030Y-66720671D01*
X111310765Y-66697571D01*
X111304804Y-66673773D01*
X111301204Y-66649504D01*
X111300000Y-66625000D01*
X111300000Y-66125000D01*
X111301204Y-66100496D01*
X111304804Y-66076227D01*
X111310765Y-66052429D01*
X111319030Y-66029329D01*
X111329520Y-66007151D01*
X111342133Y-65986107D01*
X111356747Y-65966402D01*
X111373223Y-65948223D01*
X111391402Y-65931747D01*
X111411107Y-65917133D01*
X111432151Y-65904520D01*
X111454329Y-65894030D01*
X111477429Y-65885765D01*
X111501227Y-65879804D01*
X111525496Y-65876204D01*
X111550000Y-65875000D01*
X113400000Y-65875000D01*
X113424504Y-65876204D01*
X113424504Y-65876204D01*
G37*
D24*
X112475000Y-66375000D03*
D11*
G36*
X113424504Y-67146204D02*
X113448773Y-67149804D01*
X113472571Y-67155765D01*
X113495671Y-67164030D01*
X113517849Y-67174520D01*
X113538893Y-67187133D01*
X113558598Y-67201747D01*
X113576777Y-67218223D01*
X113593253Y-67236402D01*
X113607867Y-67256107D01*
X113620480Y-67277151D01*
X113630970Y-67299329D01*
X113639235Y-67322429D01*
X113645196Y-67346227D01*
X113648796Y-67370496D01*
X113650000Y-67395000D01*
X113650000Y-67895000D01*
X113648796Y-67919504D01*
X113645196Y-67943773D01*
X113639235Y-67967571D01*
X113630970Y-67990671D01*
X113620480Y-68012849D01*
X113607867Y-68033893D01*
X113593253Y-68053598D01*
X113576777Y-68071777D01*
X113558598Y-68088253D01*
X113538893Y-68102867D01*
X113517849Y-68115480D01*
X113495671Y-68125970D01*
X113472571Y-68134235D01*
X113448773Y-68140196D01*
X113424504Y-68143796D01*
X113400000Y-68145000D01*
X111550000Y-68145000D01*
X111525496Y-68143796D01*
X111501227Y-68140196D01*
X111477429Y-68134235D01*
X111454329Y-68125970D01*
X111432151Y-68115480D01*
X111411107Y-68102867D01*
X111391402Y-68088253D01*
X111373223Y-68071777D01*
X111356747Y-68053598D01*
X111342133Y-68033893D01*
X111329520Y-68012849D01*
X111319030Y-67990671D01*
X111310765Y-67967571D01*
X111304804Y-67943773D01*
X111301204Y-67919504D01*
X111300000Y-67895000D01*
X111300000Y-67395000D01*
X111301204Y-67370496D01*
X111304804Y-67346227D01*
X111310765Y-67322429D01*
X111319030Y-67299329D01*
X111329520Y-67277151D01*
X111342133Y-67256107D01*
X111356747Y-67236402D01*
X111373223Y-67218223D01*
X111391402Y-67201747D01*
X111411107Y-67187133D01*
X111432151Y-67174520D01*
X111454329Y-67164030D01*
X111477429Y-67155765D01*
X111501227Y-67149804D01*
X111525496Y-67146204D01*
X111550000Y-67145000D01*
X113400000Y-67145000D01*
X113424504Y-67146204D01*
X113424504Y-67146204D01*
G37*
D24*
X112475000Y-67645000D03*
M02*
