%TF.GenerationSoftware,KiCad,Pcbnew,5.0.0-fee4fd1~66~ubuntu16.04.1*%
%TF.CreationDate,2020-03-09T22:27:40+01:00*%
%TF.ProjectId,robotond2020_ch340,726F626F746F6E64323032305F636833,rev?*%
%TF.SameCoordinates,Original*%
%TF.FileFunction,Legend,Top*%
%TF.FilePolarity,Positive*%
%FSLAX46Y46*%
G04 Gerber Fmt 4.6, Leading zero omitted, Abs format (unit mm)*
G04 Created by KiCad (PCBNEW 5.0.0-fee4fd1~66~ubuntu16.04.1) date Mon Mar  9 22:27:40 2020*
%MOMM*%
%LPD*%
G01*
G04 APERTURE LIST*
%ADD10C,0.150000*%
%ADD11C,0.200000*%
%ADD12C,0.120000*%
%ADD13C,0.100000*%
G04 APERTURE END LIST*
D10*
X158738095Y-58652380D02*
X158738095Y-57652380D01*
X158738095Y-58033333D02*
X158833333Y-57985714D01*
X159023809Y-57985714D01*
X159119047Y-58033333D01*
X159166666Y-58080952D01*
X159214285Y-58176190D01*
X159214285Y-58461904D01*
X159166666Y-58557142D01*
X159119047Y-58604761D01*
X159023809Y-58652380D01*
X158833333Y-58652380D01*
X158738095Y-58604761D01*
X159547619Y-57985714D02*
X159785714Y-58652380D01*
X160023809Y-57985714D02*
X159785714Y-58652380D01*
X159690476Y-58890476D01*
X159642857Y-58938095D01*
X159547619Y-58985714D01*
X160404761Y-57985714D02*
X160404761Y-58985714D01*
X160404761Y-58033333D02*
X160500000Y-57985714D01*
X160690476Y-57985714D01*
X160785714Y-58033333D01*
X160833333Y-58080952D01*
X160880952Y-58176190D01*
X160880952Y-58461904D01*
X160833333Y-58557142D01*
X160785714Y-58604761D01*
X160690476Y-58652380D01*
X160500000Y-58652380D01*
X160404761Y-58604761D01*
X161738095Y-58652380D02*
X161738095Y-58128571D01*
X161690476Y-58033333D01*
X161595238Y-57985714D01*
X161404761Y-57985714D01*
X161309523Y-58033333D01*
X161738095Y-58604761D02*
X161642857Y-58652380D01*
X161404761Y-58652380D01*
X161309523Y-58604761D01*
X161261904Y-58509523D01*
X161261904Y-58414285D01*
X161309523Y-58319047D01*
X161404761Y-58271428D01*
X161642857Y-58271428D01*
X161738095Y-58223809D01*
X162166666Y-58604761D02*
X162261904Y-58652380D01*
X162452380Y-58652380D01*
X162547619Y-58604761D01*
X162595238Y-58509523D01*
X162595238Y-58461904D01*
X162547619Y-58366666D01*
X162452380Y-58319047D01*
X162309523Y-58319047D01*
X162214285Y-58271428D01*
X162166666Y-58176190D01*
X162166666Y-58128571D01*
X162214285Y-58033333D01*
X162309523Y-57985714D01*
X162452380Y-57985714D01*
X162547619Y-58033333D01*
X162976190Y-58604761D02*
X163071428Y-58652380D01*
X163261904Y-58652380D01*
X163357142Y-58604761D01*
X163404761Y-58509523D01*
X163404761Y-58461904D01*
X163357142Y-58366666D01*
X163261904Y-58319047D01*
X163119047Y-58319047D01*
X163023809Y-58271428D01*
X162976190Y-58176190D01*
X162976190Y-58128571D01*
X163023809Y-58033333D01*
X163119047Y-57985714D01*
X163261904Y-57985714D01*
X163357142Y-58033333D01*
X164547619Y-57747619D02*
X164595238Y-57700000D01*
X164690476Y-57652380D01*
X164928571Y-57652380D01*
X165023809Y-57700000D01*
X165071428Y-57747619D01*
X165119047Y-57842857D01*
X165119047Y-57938095D01*
X165071428Y-58080952D01*
X164500000Y-58652380D01*
X165119047Y-58652380D01*
X165547619Y-58271428D02*
X166309523Y-58271428D01*
X167214285Y-57985714D02*
X167214285Y-58652380D01*
X166976190Y-57604761D02*
X166738095Y-58319047D01*
X167357142Y-58319047D01*
D11*
X160338095Y-50400000D02*
X160242857Y-50352380D01*
X160100000Y-50352380D01*
X159957142Y-50400000D01*
X159861904Y-50495238D01*
X159814285Y-50590476D01*
X159766666Y-50780952D01*
X159766666Y-50923809D01*
X159814285Y-51114285D01*
X159861904Y-51209523D01*
X159957142Y-51304761D01*
X160100000Y-51352380D01*
X160195238Y-51352380D01*
X160338095Y-51304761D01*
X160385714Y-51257142D01*
X160385714Y-50923809D01*
X160195238Y-50923809D01*
X160814285Y-51352380D02*
X160814285Y-50352380D01*
X161385714Y-51352380D01*
X161385714Y-50352380D01*
X161861904Y-51352380D02*
X161861904Y-50352380D01*
X162100000Y-50352380D01*
X162242857Y-50400000D01*
X162338095Y-50495238D01*
X162385714Y-50590476D01*
X162433333Y-50780952D01*
X162433333Y-50923809D01*
X162385714Y-51114285D01*
X162338095Y-51209523D01*
X162242857Y-51304761D01*
X162100000Y-51352380D01*
X161861904Y-51352380D01*
X148538095Y-50400000D02*
X148442857Y-50352380D01*
X148300000Y-50352380D01*
X148157142Y-50400000D01*
X148061904Y-50495238D01*
X148014285Y-50590476D01*
X147966666Y-50780952D01*
X147966666Y-50923809D01*
X148014285Y-51114285D01*
X148061904Y-51209523D01*
X148157142Y-51304761D01*
X148300000Y-51352380D01*
X148395238Y-51352380D01*
X148538095Y-51304761D01*
X148585714Y-51257142D01*
X148585714Y-50923809D01*
X148395238Y-50923809D01*
X149014285Y-51352380D02*
X149014285Y-50352380D01*
X149585714Y-51352380D01*
X149585714Y-50352380D01*
X150061904Y-51352380D02*
X150061904Y-50352380D01*
X150300000Y-50352380D01*
X150442857Y-50400000D01*
X150538095Y-50495238D01*
X150585714Y-50590476D01*
X150633333Y-50780952D01*
X150633333Y-50923809D01*
X150585714Y-51114285D01*
X150538095Y-51209523D01*
X150442857Y-51304761D01*
X150300000Y-51352380D01*
X150061904Y-51352380D01*
X160928571Y-59671428D02*
X161690476Y-59671428D01*
X161309523Y-60052380D02*
X161309523Y-59290476D01*
X162166666Y-60052380D02*
X162166666Y-59385714D01*
X162166666Y-59052380D02*
X162119047Y-59100000D01*
X162166666Y-59147619D01*
X162214285Y-59100000D01*
X162166666Y-59052380D01*
X162166666Y-59147619D01*
X162642857Y-59385714D02*
X162642857Y-60052380D01*
X162642857Y-59480952D02*
X162690476Y-59433333D01*
X162785714Y-59385714D01*
X162928571Y-59385714D01*
X163023809Y-59433333D01*
X163071428Y-59528571D01*
X163071428Y-60052380D01*
X146628571Y-59471428D02*
X147390476Y-59471428D01*
X147009523Y-59852380D02*
X147009523Y-59090476D01*
X148009523Y-59852380D02*
X147914285Y-59804761D01*
X147866666Y-59757142D01*
X147819047Y-59661904D01*
X147819047Y-59376190D01*
X147866666Y-59280952D01*
X147914285Y-59233333D01*
X148009523Y-59185714D01*
X148152380Y-59185714D01*
X148247619Y-59233333D01*
X148295238Y-59280952D01*
X148342857Y-59376190D01*
X148342857Y-59661904D01*
X148295238Y-59757142D01*
X148247619Y-59804761D01*
X148152380Y-59852380D01*
X148009523Y-59852380D01*
X149200000Y-59185714D02*
X149200000Y-59852380D01*
X148771428Y-59185714D02*
X148771428Y-59709523D01*
X148819047Y-59804761D01*
X148914285Y-59852380D01*
X149057142Y-59852380D01*
X149152380Y-59804761D01*
X149200000Y-59757142D01*
X149533333Y-59185714D02*
X149914285Y-59185714D01*
X149676190Y-58852380D02*
X149676190Y-59709523D01*
X149723809Y-59804761D01*
X149819047Y-59852380D01*
X149914285Y-59852380D01*
X139590476Y-55285714D02*
X139590476Y-55952380D01*
X139352380Y-54904761D02*
X139114285Y-55619047D01*
X139733333Y-55619047D01*
X138366666Y-53652380D02*
X138985714Y-53652380D01*
X138652380Y-54033333D01*
X138795238Y-54033333D01*
X138890476Y-54080952D01*
X138938095Y-54128571D01*
X138985714Y-54223809D01*
X138985714Y-54461904D01*
X138938095Y-54557142D01*
X138890476Y-54604761D01*
X138795238Y-54652380D01*
X138509523Y-54652380D01*
X138414285Y-54604761D01*
X138366666Y-54557142D01*
X139114285Y-52247619D02*
X139161904Y-52200000D01*
X139257142Y-52152380D01*
X139495238Y-52152380D01*
X139590476Y-52200000D01*
X139638095Y-52247619D01*
X139685714Y-52342857D01*
X139685714Y-52438095D01*
X139638095Y-52580952D01*
X139066666Y-53152380D01*
X139685714Y-53152380D01*
X138985714Y-51952380D02*
X138414285Y-51952380D01*
X138700000Y-51952380D02*
X138700000Y-50952380D01*
X138604761Y-51095238D01*
X138509523Y-51190476D01*
X138414285Y-51238095D01*
D10*
X157723809Y-53627380D02*
X157723809Y-54341666D01*
X157676190Y-54484523D01*
X157580952Y-54579761D01*
X157438095Y-54627380D01*
X157342857Y-54627380D01*
X158723809Y-54627380D02*
X158152380Y-54627380D01*
X158438095Y-54627380D02*
X158438095Y-53627380D01*
X158342857Y-53770238D01*
X158247619Y-53865476D01*
X158152380Y-53913095D01*
X159342857Y-53627380D02*
X159438095Y-53627380D01*
X159533333Y-53675000D01*
X159580952Y-53722619D01*
X159628571Y-53817857D01*
X159676190Y-54008333D01*
X159676190Y-54246428D01*
X159628571Y-54436904D01*
X159580952Y-54532142D01*
X159533333Y-54579761D01*
X159438095Y-54627380D01*
X159342857Y-54627380D01*
X159247619Y-54579761D01*
X159200000Y-54532142D01*
X159152380Y-54436904D01*
X159104761Y-54246428D01*
X159104761Y-54008333D01*
X159152380Y-53817857D01*
X159200000Y-53722619D01*
X159247619Y-53675000D01*
X159342857Y-53627380D01*
X160057142Y-54579761D02*
X160152380Y-54627380D01*
X160342857Y-54627380D01*
X160438095Y-54579761D01*
X160485714Y-54484523D01*
X160485714Y-54436904D01*
X160438095Y-54341666D01*
X160342857Y-54294047D01*
X160200000Y-54294047D01*
X160104761Y-54246428D01*
X160057142Y-54151190D01*
X160057142Y-54103571D01*
X160104761Y-54008333D01*
X160200000Y-53960714D01*
X160342857Y-53960714D01*
X160438095Y-54008333D01*
X160914285Y-54627380D02*
X160914285Y-53960714D01*
X160914285Y-54055952D02*
X160961904Y-54008333D01*
X161057142Y-53960714D01*
X161200000Y-53960714D01*
X161295238Y-54008333D01*
X161342857Y-54103571D01*
X161342857Y-54627380D01*
X161342857Y-54103571D02*
X161390476Y-54008333D01*
X161485714Y-53960714D01*
X161628571Y-53960714D01*
X161723809Y-54008333D01*
X161771428Y-54103571D01*
X161771428Y-54627380D01*
X162247619Y-53960714D02*
X162247619Y-54960714D01*
X162247619Y-54008333D02*
X162342857Y-53960714D01*
X162533333Y-53960714D01*
X162628571Y-54008333D01*
X162676190Y-54055952D01*
X162723809Y-54151190D01*
X162723809Y-54436904D01*
X162676190Y-54532142D01*
X162628571Y-54579761D01*
X162533333Y-54627380D01*
X162342857Y-54627380D01*
X162247619Y-54579761D01*
X163104761Y-54579761D02*
X163200000Y-54627380D01*
X163390476Y-54627380D01*
X163485714Y-54579761D01*
X163533333Y-54484523D01*
X163533333Y-54436904D01*
X163485714Y-54341666D01*
X163390476Y-54294047D01*
X163247619Y-54294047D01*
X163152380Y-54246428D01*
X163104761Y-54151190D01*
X163104761Y-54103571D01*
X163152380Y-54008333D01*
X163247619Y-53960714D01*
X163390476Y-53960714D01*
X163485714Y-54008333D01*
X163961904Y-54532142D02*
X164009523Y-54579761D01*
X163961904Y-54627380D01*
X163914285Y-54579761D01*
X163961904Y-54532142D01*
X163961904Y-54627380D01*
X163961904Y-54008333D02*
X164009523Y-54055952D01*
X163961904Y-54103571D01*
X163914285Y-54055952D01*
X163961904Y-54008333D01*
X163961904Y-54103571D01*
X157938095Y-56277380D02*
X157366666Y-56277380D01*
X157652380Y-56277380D02*
X157652380Y-55277380D01*
X157557142Y-55420238D01*
X157461904Y-55515476D01*
X157366666Y-55563095D01*
X158366666Y-55896428D02*
X159128571Y-55896428D01*
X159557142Y-55372619D02*
X159604761Y-55325000D01*
X159700000Y-55277380D01*
X159938095Y-55277380D01*
X160033333Y-55325000D01*
X160080952Y-55372619D01*
X160128571Y-55467857D01*
X160128571Y-55563095D01*
X160080952Y-55705952D01*
X159509523Y-56277380D01*
X160128571Y-56277380D01*
X161223809Y-55277380D02*
X161842857Y-55277380D01*
X161509523Y-55658333D01*
X161652380Y-55658333D01*
X161747619Y-55705952D01*
X161795238Y-55753571D01*
X161842857Y-55848809D01*
X161842857Y-56086904D01*
X161795238Y-56182142D01*
X161747619Y-56229761D01*
X161652380Y-56277380D01*
X161366666Y-56277380D01*
X161271428Y-56229761D01*
X161223809Y-56182142D01*
X162271428Y-55896428D02*
X163033333Y-55896428D01*
X163938095Y-55610714D02*
X163938095Y-56277380D01*
X163700000Y-55229761D02*
X163461904Y-55944047D01*
X164080952Y-55944047D01*
D11*
X146719047Y-56071428D02*
X147480952Y-56071428D01*
X147100000Y-56452380D02*
X147100000Y-55690476D01*
X146619047Y-53371428D02*
X147380952Y-53371428D01*
X147960233Y-56039768D02*
G75*
G03X147960233Y-56039768I-860233J0D01*
G01*
X147900001Y-53400000D02*
G75*
G03X147900001Y-53400000I-860233J0D01*
G01*
X131800000Y-53061904D02*
X131752380Y-53157142D01*
X131752380Y-53300000D01*
X131800000Y-53442857D01*
X131895238Y-53538095D01*
X131990476Y-53585714D01*
X132180952Y-53633333D01*
X132323809Y-53633333D01*
X132514285Y-53585714D01*
X132609523Y-53538095D01*
X132704761Y-53442857D01*
X132752380Y-53300000D01*
X132752380Y-53204761D01*
X132704761Y-53061904D01*
X132657142Y-53014285D01*
X132323809Y-53014285D01*
X132323809Y-53204761D01*
X132752380Y-52585714D02*
X131752380Y-52585714D01*
X132752380Y-52014285D01*
X131752380Y-52014285D01*
X132752380Y-51538095D02*
X131752380Y-51538095D01*
X131752380Y-51300000D01*
X131800000Y-51157142D01*
X131895238Y-51061904D01*
X131990476Y-51014285D01*
X132180952Y-50966666D01*
X132323809Y-50966666D01*
X132514285Y-51014285D01*
X132609523Y-51061904D01*
X132704761Y-51157142D01*
X132752380Y-51300000D01*
X132752380Y-51538095D01*
X111166666Y-54752380D02*
X111500000Y-55752380D01*
X111833333Y-54752380D01*
X112166666Y-55752380D02*
X112166666Y-54752380D01*
X112404761Y-54752380D01*
X112547619Y-54800000D01*
X112642857Y-54895238D01*
X112690476Y-54990476D01*
X112738095Y-55180952D01*
X112738095Y-55323809D01*
X112690476Y-55514285D01*
X112642857Y-55609523D01*
X112547619Y-55704761D01*
X112404761Y-55752380D01*
X112166666Y-55752380D01*
X113166666Y-55752380D02*
X113166666Y-54752380D01*
X113404761Y-54752380D01*
X113547619Y-54800000D01*
X113642857Y-54895238D01*
X113690476Y-54990476D01*
X113738095Y-55180952D01*
X113738095Y-55323809D01*
X113690476Y-55514285D01*
X113642857Y-55609523D01*
X113547619Y-55704761D01*
X113404761Y-55752380D01*
X113166666Y-55752380D01*
X125157142Y-58952380D02*
X125157142Y-57952380D01*
X125395238Y-57952380D01*
X125538095Y-58000000D01*
X125633333Y-58095238D01*
X125680952Y-58190476D01*
X125728571Y-58380952D01*
X125728571Y-58523809D01*
X125680952Y-58714285D01*
X125633333Y-58809523D01*
X125538095Y-58904761D01*
X125395238Y-58952380D01*
X125157142Y-58952380D01*
X126014285Y-57952380D02*
X126585714Y-57952380D01*
X126300000Y-58952380D02*
X126300000Y-57952380D01*
X127490476Y-58952380D02*
X127157142Y-58476190D01*
X126919047Y-58952380D02*
X126919047Y-57952380D01*
X127300000Y-57952380D01*
X127395238Y-58000000D01*
X127442857Y-58047619D01*
X127490476Y-58142857D01*
X127490476Y-58285714D01*
X127442857Y-58380952D01*
X127395238Y-58428571D01*
X127300000Y-58476190D01*
X126919047Y-58476190D01*
X124952380Y-57652380D02*
X124619047Y-57176190D01*
X124380952Y-57652380D02*
X124380952Y-56652380D01*
X124761904Y-56652380D01*
X124857142Y-56700000D01*
X124904761Y-56747619D01*
X124952380Y-56842857D01*
X124952380Y-56985714D01*
X124904761Y-57080952D01*
X124857142Y-57128571D01*
X124761904Y-57176190D01*
X124380952Y-57176190D01*
X125238095Y-56652380D02*
X125809523Y-56652380D01*
X125523809Y-57652380D02*
X125523809Y-56652380D01*
X126095238Y-57604761D02*
X126238095Y-57652380D01*
X126476190Y-57652380D01*
X126571428Y-57604761D01*
X126619047Y-57557142D01*
X126666666Y-57461904D01*
X126666666Y-57366666D01*
X126619047Y-57271428D01*
X126571428Y-57223809D01*
X126476190Y-57176190D01*
X126285714Y-57128571D01*
X126190476Y-57080952D01*
X126142857Y-57033333D01*
X126095238Y-56938095D01*
X126095238Y-56842857D01*
X126142857Y-56747619D01*
X126190476Y-56700000D01*
X126285714Y-56652380D01*
X126523809Y-56652380D01*
X126666666Y-56700000D01*
X117723809Y-56452380D02*
X118295238Y-56452380D01*
X118009523Y-57452380D02*
X118009523Y-56452380D01*
X118533333Y-56452380D02*
X119200000Y-57452380D01*
X119200000Y-56452380D02*
X118533333Y-57452380D01*
X119580952Y-57357142D02*
X119628571Y-57404761D01*
X119580952Y-57452380D01*
X119533333Y-57404761D01*
X119580952Y-57357142D01*
X119580952Y-57452380D01*
X120628571Y-57452380D02*
X120295238Y-56976190D01*
X120057142Y-57452380D02*
X120057142Y-56452380D01*
X120438095Y-56452380D01*
X120533333Y-56500000D01*
X120580952Y-56547619D01*
X120628571Y-56642857D01*
X120628571Y-56785714D01*
X120580952Y-56880952D01*
X120533333Y-56928571D01*
X120438095Y-56976190D01*
X120057142Y-56976190D01*
X120961904Y-56452380D02*
X121628571Y-57452380D01*
X121628571Y-56452380D02*
X120961904Y-57452380D01*
X134241370Y-98018866D02*
X134241370Y-97951522D01*
X134275042Y-97850507D01*
X134443400Y-97682148D01*
X134544416Y-97648477D01*
X134611759Y-97648477D01*
X134712774Y-97682148D01*
X134780118Y-97749492D01*
X134847461Y-97884179D01*
X134847461Y-98692301D01*
X135285194Y-98254568D01*
X135184179Y-96941370D02*
X135049492Y-97076057D01*
X135015820Y-97177072D01*
X135015820Y-97244416D01*
X135049492Y-97412774D01*
X135150507Y-97581133D01*
X135419881Y-97850507D01*
X135520896Y-97884179D01*
X135588240Y-97884179D01*
X135689255Y-97850507D01*
X135823942Y-97715820D01*
X135857614Y-97614805D01*
X135857614Y-97547461D01*
X135823942Y-97446446D01*
X135655583Y-97278087D01*
X135554568Y-97244416D01*
X135487225Y-97244416D01*
X135386209Y-97278087D01*
X135251522Y-97412774D01*
X135217851Y-97513790D01*
X135217851Y-97581133D01*
X135251522Y-97682148D01*
X134141370Y-95518866D02*
X134141370Y-95451522D01*
X134175042Y-95350507D01*
X134343400Y-95182148D01*
X134444416Y-95148477D01*
X134511759Y-95148477D01*
X134612774Y-95182148D01*
X134680118Y-95249492D01*
X134747461Y-95384179D01*
X134747461Y-96192301D01*
X135185194Y-95754568D01*
X135117851Y-94407698D02*
X134781133Y-94744416D01*
X135084179Y-95114805D01*
X135084179Y-95047461D01*
X135117851Y-94946446D01*
X135286209Y-94778087D01*
X135387225Y-94744416D01*
X135454568Y-94744416D01*
X135555583Y-94778087D01*
X135723942Y-94946446D01*
X135757614Y-95047461D01*
X135757614Y-95114805D01*
X135723942Y-95215820D01*
X135555583Y-95384179D01*
X135454568Y-95417851D01*
X135387225Y-95417851D01*
X134040355Y-92285194D02*
X134478087Y-91847461D01*
X134511759Y-92352538D01*
X134612774Y-92251522D01*
X134713790Y-92217851D01*
X134781133Y-92217851D01*
X134882148Y-92251522D01*
X135050507Y-92419881D01*
X135084179Y-92520896D01*
X135084179Y-92588240D01*
X135050507Y-92689255D01*
X134848477Y-92891286D01*
X134747461Y-92924957D01*
X134680118Y-92924957D01*
X134713790Y-91611759D02*
X135151522Y-91174026D01*
X135185194Y-91679103D01*
X135286209Y-91578087D01*
X135387225Y-91544416D01*
X135454568Y-91544416D01*
X135555583Y-91578087D01*
X135723942Y-91746446D01*
X135757614Y-91847461D01*
X135757614Y-91914805D01*
X135723942Y-92015820D01*
X135521912Y-92217851D01*
X135420896Y-92251522D01*
X135353553Y-92251522D01*
X134040355Y-89685194D02*
X134478087Y-89247461D01*
X134511759Y-89752538D01*
X134612774Y-89651522D01*
X134713790Y-89617851D01*
X134781133Y-89617851D01*
X134882148Y-89651522D01*
X135050507Y-89819881D01*
X135084179Y-89920896D01*
X135084179Y-89988240D01*
X135050507Y-90089255D01*
X134848477Y-90291286D01*
X134747461Y-90324957D01*
X134680118Y-90324957D01*
X134814805Y-89045431D02*
X134814805Y-88978087D01*
X134848477Y-88877072D01*
X135016835Y-88708713D01*
X135117851Y-88675042D01*
X135185194Y-88675042D01*
X135286209Y-88708713D01*
X135353553Y-88776057D01*
X135420896Y-88910744D01*
X135420896Y-89718866D01*
X135858629Y-89281133D01*
X137600000Y-88800000D02*
X138800000Y-87600000D01*
X137700000Y-91400000D02*
X138900000Y-90400000D01*
X137600000Y-94500000D02*
X139100000Y-93100000D01*
X137700000Y-97200000D02*
X139200000Y-95700000D01*
X133147619Y-98761904D02*
X133100000Y-98714285D01*
X133052380Y-98619047D01*
X133052380Y-98380952D01*
X133100000Y-98285714D01*
X133147619Y-98238095D01*
X133242857Y-98190476D01*
X133338095Y-98190476D01*
X133480952Y-98238095D01*
X134052380Y-98809523D01*
X134052380Y-98190476D01*
X133052380Y-97857142D02*
X133052380Y-97190476D01*
X134052380Y-97619047D01*
X133066666Y-87052380D02*
X133400000Y-88052380D01*
X133733333Y-87052380D01*
X134066666Y-88052380D02*
X134066666Y-87052380D01*
X134304761Y-87052380D01*
X134447619Y-87100000D01*
X134542857Y-87195238D01*
X134590476Y-87290476D01*
X134638095Y-87480952D01*
X134638095Y-87623809D01*
X134590476Y-87814285D01*
X134542857Y-87909523D01*
X134447619Y-88004761D01*
X134304761Y-88052380D01*
X134066666Y-88052380D01*
X135066666Y-88052380D02*
X135066666Y-87052380D01*
X135304761Y-87052380D01*
X135447619Y-87100000D01*
X135542857Y-87195238D01*
X135590476Y-87290476D01*
X135638095Y-87480952D01*
X135638095Y-87623809D01*
X135590476Y-87814285D01*
X135542857Y-87909523D01*
X135447619Y-88004761D01*
X135304761Y-88052380D01*
X135066666Y-88052380D01*
X125338095Y-91800000D02*
X125242857Y-91752380D01*
X125100000Y-91752380D01*
X124957142Y-91800000D01*
X124861904Y-91895238D01*
X124814285Y-91990476D01*
X124766666Y-92180952D01*
X124766666Y-92323809D01*
X124814285Y-92514285D01*
X124861904Y-92609523D01*
X124957142Y-92704761D01*
X125100000Y-92752380D01*
X125195238Y-92752380D01*
X125338095Y-92704761D01*
X125385714Y-92657142D01*
X125385714Y-92323809D01*
X125195238Y-92323809D01*
X125814285Y-92752380D02*
X125814285Y-91752380D01*
X126385714Y-92752380D01*
X126385714Y-91752380D01*
X126861904Y-92752380D02*
X126861904Y-91752380D01*
X127100000Y-91752380D01*
X127242857Y-91800000D01*
X127338095Y-91895238D01*
X127385714Y-91990476D01*
X127433333Y-92180952D01*
X127433333Y-92323809D01*
X127385714Y-92514285D01*
X127338095Y-92609523D01*
X127242857Y-92704761D01*
X127100000Y-92752380D01*
X126861904Y-92752380D01*
X124842857Y-86828571D02*
X125176190Y-86828571D01*
X125319047Y-87352380D02*
X124842857Y-87352380D01*
X124842857Y-86352380D01*
X125319047Y-86352380D01*
X125747619Y-87352380D02*
X125747619Y-86352380D01*
X126319047Y-87352380D01*
X126319047Y-86352380D01*
X126795238Y-86971428D02*
X127557142Y-86971428D01*
X123890476Y-97152380D02*
X123890476Y-96152380D01*
X124223809Y-96866666D01*
X124557142Y-96152380D01*
X124557142Y-97152380D01*
X124985714Y-96247619D02*
X125033333Y-96200000D01*
X125128571Y-96152380D01*
X125366666Y-96152380D01*
X125461904Y-96200000D01*
X125509523Y-96247619D01*
X125557142Y-96342857D01*
X125557142Y-96438095D01*
X125509523Y-96580952D01*
X124938095Y-97152380D01*
X125557142Y-97152380D01*
X126319047Y-96628571D02*
X126461904Y-96676190D01*
X126509523Y-96723809D01*
X126557142Y-96819047D01*
X126557142Y-96961904D01*
X126509523Y-97057142D01*
X126461904Y-97104761D01*
X126366666Y-97152380D01*
X125985714Y-97152380D01*
X125985714Y-96152380D01*
X126319047Y-96152380D01*
X126414285Y-96200000D01*
X126461904Y-96247619D01*
X126509523Y-96342857D01*
X126509523Y-96438095D01*
X126461904Y-96533333D01*
X126414285Y-96580952D01*
X126319047Y-96628571D01*
X125985714Y-96628571D01*
X123961904Y-94252380D02*
X123961904Y-93252380D01*
X124295238Y-93966666D01*
X124628571Y-93252380D01*
X124628571Y-94252380D01*
X125057142Y-93347619D02*
X125104761Y-93300000D01*
X125200000Y-93252380D01*
X125438095Y-93252380D01*
X125533333Y-93300000D01*
X125580952Y-93347619D01*
X125628571Y-93442857D01*
X125628571Y-93538095D01*
X125580952Y-93680952D01*
X125009523Y-94252380D01*
X125628571Y-94252380D01*
X126009523Y-93966666D02*
X126485714Y-93966666D01*
X125914285Y-94252380D02*
X126247619Y-93252380D01*
X126580952Y-94252380D01*
X123890476Y-91352380D02*
X123890476Y-90352380D01*
X124223809Y-91066666D01*
X124557142Y-90352380D01*
X124557142Y-91352380D01*
X125557142Y-91352380D02*
X124985714Y-91352380D01*
X125271428Y-91352380D02*
X125271428Y-90352380D01*
X125176190Y-90495238D01*
X125080952Y-90590476D01*
X124985714Y-90638095D01*
X126319047Y-90828571D02*
X126461904Y-90876190D01*
X126509523Y-90923809D01*
X126557142Y-91019047D01*
X126557142Y-91161904D01*
X126509523Y-91257142D01*
X126461904Y-91304761D01*
X126366666Y-91352380D01*
X125985714Y-91352380D01*
X125985714Y-90352380D01*
X126319047Y-90352380D01*
X126414285Y-90400000D01*
X126461904Y-90447619D01*
X126509523Y-90542857D01*
X126509523Y-90638095D01*
X126461904Y-90733333D01*
X126414285Y-90780952D01*
X126319047Y-90828571D01*
X125985714Y-90828571D01*
X123961904Y-88752380D02*
X123961904Y-87752380D01*
X124295238Y-88466666D01*
X124628571Y-87752380D01*
X124628571Y-88752380D01*
X125628571Y-88752380D02*
X125057142Y-88752380D01*
X125342857Y-88752380D02*
X125342857Y-87752380D01*
X125247619Y-87895238D01*
X125152380Y-87990476D01*
X125057142Y-88038095D01*
X126009523Y-88466666D02*
X126485714Y-88466666D01*
X125914285Y-88752380D02*
X126247619Y-87752380D01*
X126580952Y-88752380D01*
X186600000Y-60338095D02*
X186552380Y-60433333D01*
X186552380Y-60576190D01*
X186600000Y-60719047D01*
X186695238Y-60814285D01*
X186790476Y-60861904D01*
X186980952Y-60909523D01*
X187123809Y-60909523D01*
X187314285Y-60861904D01*
X187409523Y-60814285D01*
X187504761Y-60719047D01*
X187552380Y-60576190D01*
X187552380Y-60480952D01*
X187504761Y-60338095D01*
X187457142Y-60290476D01*
X187123809Y-60290476D01*
X187123809Y-60480952D01*
X182852380Y-60809523D02*
X182852380Y-60190476D01*
X183233333Y-60523809D01*
X183233333Y-60380952D01*
X183280952Y-60285714D01*
X183328571Y-60238095D01*
X183423809Y-60190476D01*
X183661904Y-60190476D01*
X183757142Y-60238095D01*
X183804761Y-60285714D01*
X183852380Y-60380952D01*
X183852380Y-60666666D01*
X183804761Y-60761904D01*
X183757142Y-60809523D01*
X182852380Y-59285714D02*
X182852380Y-59761904D01*
X183328571Y-59809523D01*
X183280952Y-59761904D01*
X183233333Y-59666666D01*
X183233333Y-59428571D01*
X183280952Y-59333333D01*
X183328571Y-59285714D01*
X183423809Y-59238095D01*
X183661904Y-59238095D01*
X183757142Y-59285714D01*
X183804761Y-59333333D01*
X183852380Y-59428571D01*
X183852380Y-59666666D01*
X183804761Y-59761904D01*
X183757142Y-59809523D01*
X186552380Y-58938095D02*
X186552380Y-58319047D01*
X186933333Y-58652380D01*
X186933333Y-58509523D01*
X186980952Y-58414285D01*
X187028571Y-58366666D01*
X187123809Y-58319047D01*
X187361904Y-58319047D01*
X187457142Y-58366666D01*
X187504761Y-58414285D01*
X187552380Y-58509523D01*
X187552380Y-58795238D01*
X187504761Y-58890476D01*
X187457142Y-58938095D01*
X186552380Y-58033333D02*
X187552380Y-57700000D01*
X186552380Y-57366666D01*
X186552380Y-57128571D02*
X186552380Y-56509523D01*
X186933333Y-56842857D01*
X186933333Y-56700000D01*
X186980952Y-56604761D01*
X187028571Y-56557142D01*
X187123809Y-56509523D01*
X187361904Y-56509523D01*
X187457142Y-56557142D01*
X187504761Y-56604761D01*
X187552380Y-56700000D01*
X187552380Y-56985714D01*
X187504761Y-57080952D01*
X187457142Y-57128571D01*
X183652380Y-57390476D02*
X183652380Y-57961904D01*
X183652380Y-57676190D02*
X182652380Y-57676190D01*
X182795238Y-57771428D01*
X182890476Y-57866666D01*
X182938095Y-57961904D01*
X182652380Y-56485714D02*
X182652380Y-56961904D01*
X183128571Y-57009523D01*
X183080952Y-56961904D01*
X183033333Y-56866666D01*
X183033333Y-56628571D01*
X183080952Y-56533333D01*
X183128571Y-56485714D01*
X183223809Y-56438095D01*
X183461904Y-56438095D01*
X183557142Y-56485714D01*
X183604761Y-56533333D01*
X183652380Y-56628571D01*
X183652380Y-56866666D01*
X183604761Y-56961904D01*
X183557142Y-57009523D01*
X183338095Y-98852380D02*
X183338095Y-97852380D01*
X183719047Y-97852380D01*
X183814285Y-97900000D01*
X183861904Y-97947619D01*
X183909523Y-98042857D01*
X183909523Y-98185714D01*
X183861904Y-98280952D01*
X183814285Y-98328571D01*
X183719047Y-98376190D01*
X183338095Y-98376190D01*
X184242857Y-97852380D02*
X184480952Y-98852380D01*
X184671428Y-98138095D01*
X184861904Y-98852380D01*
X185100000Y-97852380D01*
X186052380Y-98852380D02*
X185719047Y-98376190D01*
X185480952Y-98852380D02*
X185480952Y-97852380D01*
X185861904Y-97852380D01*
X185957142Y-97900000D01*
X186004761Y-97947619D01*
X186052380Y-98042857D01*
X186052380Y-98185714D01*
X186004761Y-98280952D01*
X185957142Y-98328571D01*
X185861904Y-98376190D01*
X185480952Y-98376190D01*
X186242857Y-98947619D02*
X187004761Y-98947619D01*
X187195238Y-98804761D02*
X187338095Y-98852380D01*
X187576190Y-98852380D01*
X187671428Y-98804761D01*
X187719047Y-98757142D01*
X187766666Y-98661904D01*
X187766666Y-98566666D01*
X187719047Y-98471428D01*
X187671428Y-98423809D01*
X187576190Y-98376190D01*
X187385714Y-98328571D01*
X187290476Y-98280952D01*
X187242857Y-98233333D01*
X187195238Y-98138095D01*
X187195238Y-98042857D01*
X187242857Y-97947619D01*
X187290476Y-97900000D01*
X187385714Y-97852380D01*
X187623809Y-97852380D01*
X187766666Y-97900000D01*
X188100000Y-97852380D02*
X188338095Y-98852380D01*
X188528571Y-98138095D01*
X188719047Y-98852380D01*
X188957142Y-97852380D01*
X181552380Y-60809523D02*
X181552380Y-60190476D01*
X181933333Y-60523809D01*
X181933333Y-60380952D01*
X181980952Y-60285714D01*
X182028571Y-60238095D01*
X182123809Y-60190476D01*
X182361904Y-60190476D01*
X182457142Y-60238095D01*
X182504761Y-60285714D01*
X182552380Y-60380952D01*
X182552380Y-60666666D01*
X182504761Y-60761904D01*
X182457142Y-60809523D01*
X181885714Y-59333333D02*
X182552380Y-59333333D01*
X181504761Y-59571428D02*
X182219047Y-59809523D01*
X182219047Y-59190476D01*
X182352380Y-57390476D02*
X182352380Y-57961904D01*
X182352380Y-57676190D02*
X181352380Y-57676190D01*
X181495238Y-57771428D01*
X181590476Y-57866666D01*
X181638095Y-57961904D01*
X181685714Y-56533333D02*
X182352380Y-56533333D01*
X181304761Y-56771428D02*
X182019047Y-57009523D01*
X182019047Y-56390476D01*
X180252380Y-59561904D02*
X180252380Y-60038095D01*
X180728571Y-60085714D01*
X180680952Y-60038095D01*
X180633333Y-59942857D01*
X180633333Y-59704761D01*
X180680952Y-59609523D01*
X180728571Y-59561904D01*
X180823809Y-59514285D01*
X181061904Y-59514285D01*
X181157142Y-59561904D01*
X181204761Y-59609523D01*
X181252380Y-59704761D01*
X181252380Y-59942857D01*
X181204761Y-60038095D01*
X181157142Y-60085714D01*
X181052380Y-57390476D02*
X181052380Y-57961904D01*
X181052380Y-57676190D02*
X180052380Y-57676190D01*
X180195238Y-57771428D01*
X180290476Y-57866666D01*
X180338095Y-57961904D01*
X180052380Y-57057142D02*
X180052380Y-56438095D01*
X180433333Y-56771428D01*
X180433333Y-56628571D01*
X180480952Y-56533333D01*
X180528571Y-56485714D01*
X180623809Y-56438095D01*
X180861904Y-56438095D01*
X180957142Y-56485714D01*
X181004761Y-56533333D01*
X181052380Y-56628571D01*
X181052380Y-56914285D01*
X181004761Y-57009523D01*
X180957142Y-57057142D01*
X179185714Y-59609523D02*
X179852380Y-59609523D01*
X178804761Y-59847619D02*
X179519047Y-60085714D01*
X179519047Y-59466666D01*
X179552380Y-57390476D02*
X179552380Y-57961904D01*
X179552380Y-57676190D02*
X178552380Y-57676190D01*
X178695238Y-57771428D01*
X178790476Y-57866666D01*
X178838095Y-57961904D01*
X178647619Y-57009523D02*
X178600000Y-56961904D01*
X178552380Y-56866666D01*
X178552380Y-56628571D01*
X178600000Y-56533333D01*
X178647619Y-56485714D01*
X178742857Y-56438095D01*
X178838095Y-56438095D01*
X178980952Y-56485714D01*
X179552380Y-57057142D01*
X179552380Y-56438095D01*
X152852380Y-72338095D02*
X151852380Y-72338095D01*
X151852380Y-72100000D01*
X151900000Y-71957142D01*
X151995238Y-71861904D01*
X152090476Y-71814285D01*
X152280952Y-71766666D01*
X152423809Y-71766666D01*
X152614285Y-71814285D01*
X152709523Y-71861904D01*
X152804761Y-71957142D01*
X152852380Y-72100000D01*
X152852380Y-72338095D01*
X151947619Y-71385714D02*
X151900000Y-71338095D01*
X151852380Y-71242857D01*
X151852380Y-71004761D01*
X151900000Y-70909523D01*
X151947619Y-70861904D01*
X152042857Y-70814285D01*
X152138095Y-70814285D01*
X152280952Y-70861904D01*
X152852380Y-71433333D01*
X152852380Y-70814285D01*
X150352380Y-75533333D02*
X149352380Y-75533333D01*
X149352380Y-75152380D01*
X149400000Y-75057142D01*
X149447619Y-75009523D01*
X149542857Y-74961904D01*
X149685714Y-74961904D01*
X149780952Y-75009523D01*
X149828571Y-75057142D01*
X149876190Y-75152380D01*
X149876190Y-75533333D01*
X149352380Y-74628571D02*
X150352380Y-74390476D01*
X149638095Y-74200000D01*
X150352380Y-74009523D01*
X149352380Y-73771428D01*
X150352380Y-72819047D02*
X149876190Y-73152380D01*
X150352380Y-73390476D02*
X149352380Y-73390476D01*
X149352380Y-73009523D01*
X149400000Y-72914285D01*
X149447619Y-72866666D01*
X149542857Y-72819047D01*
X149685714Y-72819047D01*
X149780952Y-72866666D01*
X149828571Y-72914285D01*
X149876190Y-73009523D01*
X149876190Y-73390476D01*
X148428571Y-74966666D02*
X148428571Y-74633333D01*
X148952380Y-74490476D02*
X148952380Y-74966666D01*
X147952380Y-74966666D01*
X147952380Y-74490476D01*
X148904761Y-74109523D02*
X148952380Y-73966666D01*
X148952380Y-73728571D01*
X148904761Y-73633333D01*
X148857142Y-73585714D01*
X148761904Y-73538095D01*
X148666666Y-73538095D01*
X148571428Y-73585714D01*
X148523809Y-73633333D01*
X148476190Y-73728571D01*
X148428571Y-73919047D01*
X148380952Y-74014285D01*
X148333333Y-74061904D01*
X148238095Y-74109523D01*
X148142857Y-74109523D01*
X148047619Y-74061904D01*
X148000000Y-74014285D01*
X147952380Y-73919047D01*
X147952380Y-73680952D01*
X148000000Y-73538095D01*
X148952380Y-73109523D02*
X147952380Y-73109523D01*
X147952380Y-72728571D01*
X148000000Y-72633333D01*
X148047619Y-72585714D01*
X148142857Y-72538095D01*
X148285714Y-72538095D01*
X148380952Y-72585714D01*
X148428571Y-72633333D01*
X148476190Y-72728571D01*
X148476190Y-73109523D01*
X148952380Y-71538095D02*
X148476190Y-71871428D01*
X148952380Y-72109523D02*
X147952380Y-72109523D01*
X147952380Y-71728571D01*
X148000000Y-71633333D01*
X148047619Y-71585714D01*
X148142857Y-71538095D01*
X148285714Y-71538095D01*
X148380952Y-71585714D01*
X148428571Y-71633333D01*
X148476190Y-71728571D01*
X148476190Y-72109523D01*
X147952380Y-71204761D02*
X148952380Y-70538095D01*
X147952380Y-70538095D02*
X148952380Y-71204761D01*
X146428571Y-74847619D02*
X146428571Y-74514285D01*
X146952380Y-74371428D02*
X146952380Y-74847619D01*
X145952380Y-74847619D01*
X145952380Y-74371428D01*
X146904761Y-73990476D02*
X146952380Y-73847619D01*
X146952380Y-73609523D01*
X146904761Y-73514285D01*
X146857142Y-73466666D01*
X146761904Y-73419047D01*
X146666666Y-73419047D01*
X146571428Y-73466666D01*
X146523809Y-73514285D01*
X146476190Y-73609523D01*
X146428571Y-73800000D01*
X146380952Y-73895238D01*
X146333333Y-73942857D01*
X146238095Y-73990476D01*
X146142857Y-73990476D01*
X146047619Y-73942857D01*
X146000000Y-73895238D01*
X145952380Y-73800000D01*
X145952380Y-73561904D01*
X146000000Y-73419047D01*
X146952380Y-72990476D02*
X145952380Y-72990476D01*
X145952380Y-72609523D01*
X146000000Y-72514285D01*
X146047619Y-72466666D01*
X146142857Y-72419047D01*
X146285714Y-72419047D01*
X146380952Y-72466666D01*
X146428571Y-72514285D01*
X146476190Y-72609523D01*
X146476190Y-72990476D01*
X145952380Y-72133333D02*
X145952380Y-71561904D01*
X146952380Y-71847619D02*
X145952380Y-71847619D01*
X145952380Y-71323809D02*
X146952380Y-70657142D01*
X145952380Y-70657142D02*
X146952380Y-71323809D01*
X199500000Y-54000000D02*
G75*
G03X199500000Y-54000000I-3500000J0D01*
G01*
X199500000Y-96000000D02*
G75*
G03X199500000Y-96000000I-3500000J0D01*
G01*
X107500000Y-96000000D02*
G75*
G03X107500000Y-96000000I-3500000J0D01*
G01*
X107500000Y-54000000D02*
G75*
G03X107500000Y-54000000I-3500000J0D01*
G01*
X197600000Y-96000000D02*
G75*
G03X197600000Y-96000000I-1600000J0D01*
G01*
X105600000Y-96000000D02*
G75*
G03X105600000Y-96000000I-1600000J0D01*
G01*
X105600000Y-54000000D02*
G75*
G03X105600000Y-54000000I-1600000J0D01*
G01*
X197600000Y-54000000D02*
G75*
G03X197600000Y-54000000I-1600000J0D01*
G01*
D10*
X100000000Y-100000000D02*
X100000000Y-50000000D01*
X200000000Y-100000000D02*
X100000000Y-100000000D01*
X200000000Y-50000000D02*
X200000000Y-100000000D01*
X100000000Y-50000000D02*
X200000000Y-50000000D01*
D12*
X139600000Y-58750000D02*
X140850000Y-58750000D01*
X139600000Y-57500000D02*
X139600000Y-58750000D01*
X145100000Y-51600000D02*
X145100000Y-54650000D01*
X142150000Y-51600000D02*
X145100000Y-51600000D01*
X142150000Y-50850000D02*
X142150000Y-51600000D01*
X145100000Y-57700000D02*
X145100000Y-54650000D01*
X142150000Y-57700000D02*
X145100000Y-57700000D01*
X142150000Y-58450000D02*
X142150000Y-57700000D01*
X139900000Y-50850000D02*
X139900000Y-52650000D01*
X140650000Y-50850000D02*
X139900000Y-50850000D01*
X140650000Y-52650000D02*
X140650000Y-50850000D01*
X139900000Y-52650000D02*
X140650000Y-52650000D01*
X139900000Y-56650000D02*
X139900000Y-58450000D01*
X140650000Y-56650000D02*
X139900000Y-56650000D01*
X140650000Y-58450000D02*
X140650000Y-56650000D01*
X139900000Y-58450000D02*
X140650000Y-58450000D01*
X139900000Y-54150000D02*
X139900000Y-55150000D01*
X140650000Y-54150000D02*
X139900000Y-54150000D01*
X140650000Y-55150000D02*
X140650000Y-54150000D01*
X139900000Y-55150000D02*
X140650000Y-55150000D01*
X139890000Y-50840000D02*
X139890000Y-58460000D01*
X145860000Y-50840000D02*
X139890000Y-50840000D01*
X145860000Y-58460000D02*
X145860000Y-50840000D01*
X139890000Y-58460000D02*
X145860000Y-58460000D01*
X137241250Y-71756250D02*
X136453750Y-71756250D01*
X136847500Y-71362500D02*
X136847500Y-72150000D01*
X132654437Y-72390000D02*
X131590000Y-73454437D01*
X137345563Y-72390000D02*
X138410000Y-73454437D01*
X137345563Y-72390000D02*
X136060000Y-72390000D01*
X132654437Y-72390000D02*
X133940000Y-72390000D01*
X131590000Y-73454437D02*
X131590000Y-79210000D01*
X138410000Y-73454437D02*
X138410000Y-79210000D01*
X138410000Y-79210000D02*
X136060000Y-79210000D01*
X131590000Y-79210000D02*
X133940000Y-79210000D01*
X119310000Y-99410000D02*
X119310000Y-97060000D01*
X119310000Y-92590000D02*
X119310000Y-94940000D01*
X113554437Y-92590000D02*
X119310000Y-92590000D01*
X113554437Y-99410000D02*
X119310000Y-99410000D01*
X112490000Y-98345563D02*
X112490000Y-97060000D01*
X112490000Y-93654437D02*
X112490000Y-94940000D01*
X112490000Y-93654437D02*
X113554437Y-92590000D01*
X112490000Y-98345563D02*
X113554437Y-99410000D01*
X111462500Y-94152500D02*
X112250000Y-94152500D01*
X111856250Y-93758750D02*
X111856250Y-94546250D01*
X122990000Y-78590000D02*
X122990000Y-80940000D01*
X122990000Y-85410000D02*
X122990000Y-83060000D01*
X128745563Y-85410000D02*
X122990000Y-85410000D01*
X128745563Y-78590000D02*
X122990000Y-78590000D01*
X129810000Y-79654437D02*
X129810000Y-80940000D01*
X129810000Y-84345563D02*
X129810000Y-83060000D01*
X129810000Y-84345563D02*
X128745563Y-85410000D01*
X129810000Y-79654437D02*
X128745563Y-78590000D01*
X130837500Y-83847500D02*
X130050000Y-83847500D01*
X130443750Y-84241250D02*
X130443750Y-83453750D01*
X109990000Y-53061252D02*
X109990000Y-52538748D01*
X111410000Y-53061252D02*
X111410000Y-52538748D01*
X121061252Y-66590000D02*
X120538748Y-66590000D01*
X121061252Y-68010000D02*
X120538748Y-68010000D01*
X145238748Y-75390000D02*
X145761252Y-75390000D01*
X145238748Y-76810000D02*
X145761252Y-76810000D01*
X189838748Y-57890000D02*
X190361252Y-57890000D01*
X189838748Y-59310000D02*
X190361252Y-59310000D01*
X196890000Y-88038748D02*
X196890000Y-88561252D01*
X198310000Y-88038748D02*
X198310000Y-88561252D01*
X194261252Y-59310000D02*
X193738748Y-59310000D01*
X194261252Y-57890000D02*
X193738748Y-57890000D01*
X168461252Y-51340000D02*
X167938748Y-51340000D01*
X168461252Y-52760000D02*
X167938748Y-52760000D01*
X168461252Y-54810000D02*
X167938748Y-54810000D01*
X168461252Y-53390000D02*
X167938748Y-53390000D01*
X125761252Y-68790000D02*
X125238748Y-68790000D01*
X125761252Y-70210000D02*
X125238748Y-70210000D01*
X196010000Y-88038748D02*
X196010000Y-88561252D01*
X194590000Y-88038748D02*
X194590000Y-88561252D01*
X147212699Y-65569716D02*
X147212699Y-63109716D01*
X147212699Y-63109716D02*
X145742699Y-63109716D01*
X145742699Y-63109716D02*
X145742699Y-65569716D01*
X147742700Y-63134716D02*
X147742700Y-65594716D01*
X149212700Y-63134716D02*
X147742700Y-63134716D01*
X149212700Y-65594716D02*
X149212700Y-63134716D01*
X149742699Y-63134716D02*
X149742699Y-65594716D01*
X151212699Y-63134716D02*
X149742699Y-63134716D01*
X151212699Y-65594716D02*
X151212699Y-63134716D01*
X153212699Y-65569716D02*
X153212699Y-63109716D01*
X153212699Y-63109716D02*
X151742699Y-63109716D01*
X151742699Y-63109716D02*
X151742699Y-65569716D01*
X121110000Y-80215000D02*
X118650000Y-80215000D01*
X121110000Y-81685000D02*
X121110000Y-80215000D01*
X118650000Y-81685000D02*
X121110000Y-81685000D01*
X118650000Y-79185000D02*
X121110000Y-79185000D01*
X121110000Y-79185000D02*
X121110000Y-77715000D01*
X121110000Y-77715000D02*
X118650000Y-77715000D01*
X121110000Y-86215000D02*
X118650000Y-86215000D01*
X121110000Y-87685000D02*
X121110000Y-86215000D01*
X118650000Y-87685000D02*
X121110000Y-87685000D01*
X118650000Y-90185000D02*
X121110000Y-90185000D01*
X121110000Y-90185000D02*
X121110000Y-88715000D01*
X121110000Y-88715000D02*
X118650000Y-88715000D01*
X138550000Y-85150000D02*
X132850000Y-85150000D01*
X138550000Y-80850000D02*
X132850000Y-80850000D01*
X138550000Y-85150000D02*
X138550000Y-80850000D01*
X178430000Y-96590000D02*
X178430000Y-98050000D01*
X175270000Y-96590000D02*
X175270000Y-98750000D01*
X175270000Y-96590000D02*
X176200000Y-96590000D01*
X178430000Y-96590000D02*
X177500000Y-96590000D01*
X127650000Y-57050000D02*
X127650000Y-61350000D01*
X127650000Y-61350000D02*
X133350000Y-61350000D01*
X127650000Y-57050000D02*
X133350000Y-57050000D01*
X135750000Y-59450000D02*
X141450000Y-59450000D01*
X135750000Y-63750000D02*
X141450000Y-63750000D01*
X135750000Y-59450000D02*
X135750000Y-63750000D01*
X114040000Y-50440000D02*
X114040000Y-56410000D01*
X114040000Y-56410000D02*
X131660000Y-56410000D01*
X131660000Y-56410000D02*
X131660000Y-50440000D01*
X131660000Y-50440000D02*
X114040000Y-50440000D01*
X117350000Y-50450000D02*
X117350000Y-51200000D01*
X117350000Y-51200000D02*
X128350000Y-51200000D01*
X128350000Y-51200000D02*
X128350000Y-50450000D01*
X128350000Y-50450000D02*
X117350000Y-50450000D01*
X114050000Y-50450000D02*
X114050000Y-51200000D01*
X114050000Y-51200000D02*
X115850000Y-51200000D01*
X115850000Y-51200000D02*
X115850000Y-50450000D01*
X115850000Y-50450000D02*
X114050000Y-50450000D01*
X129850000Y-50450000D02*
X129850000Y-51200000D01*
X129850000Y-51200000D02*
X131650000Y-51200000D01*
X131650000Y-51200000D02*
X131650000Y-50450000D01*
X131650000Y-50450000D02*
X129850000Y-50450000D01*
X114050000Y-52700000D02*
X114800000Y-52700000D01*
X114800000Y-52700000D02*
X114800000Y-55650000D01*
X114800000Y-55650000D02*
X122850000Y-55650000D01*
X131650000Y-52700000D02*
X130900000Y-52700000D01*
X130900000Y-52700000D02*
X130900000Y-55650000D01*
X130900000Y-55650000D02*
X122850000Y-55650000D01*
X115000000Y-50150000D02*
X113750000Y-50150000D01*
X113750000Y-50150000D02*
X113750000Y-51400000D01*
X127630000Y-86180000D02*
X128960000Y-86180000D01*
X127630000Y-87510000D02*
X127630000Y-86180000D01*
X130230000Y-86180000D02*
X132830000Y-86180000D01*
X130230000Y-88780000D02*
X130230000Y-86180000D01*
X127630000Y-88780000D02*
X130230000Y-88780000D01*
X132830000Y-86180000D02*
X132830000Y-99000000D01*
X127630000Y-88780000D02*
X127630000Y-99000000D01*
X127630000Y-99000000D02*
X132830000Y-99000000D01*
D13*
X104650000Y-57850000D02*
X104650000Y-58350000D01*
X104650000Y-57850000D02*
X104150000Y-57850000D01*
X104650000Y-65650000D02*
X104650000Y-65150000D01*
X104650000Y-65650000D02*
X104250000Y-65650000D01*
X99450000Y-65650000D02*
X99950000Y-65650000D01*
X99450000Y-65650000D02*
X99450000Y-65150000D01*
X99450000Y-57850000D02*
X99450000Y-58350000D01*
X99450000Y-57850000D02*
X99950000Y-57850000D01*
D12*
X191990000Y-55780000D02*
X191990000Y-50580000D01*
X181770000Y-55780000D02*
X191990000Y-55780000D01*
X179170000Y-50580000D02*
X191990000Y-50580000D01*
X181770000Y-55780000D02*
X181770000Y-53180000D01*
X181770000Y-53180000D02*
X179170000Y-53180000D01*
X179170000Y-53180000D02*
X179170000Y-50580000D01*
X180500000Y-55780000D02*
X179170000Y-55780000D01*
X179170000Y-55780000D02*
X179170000Y-54450000D01*
X180370000Y-91330000D02*
X180370000Y-90000000D01*
X181700000Y-91330000D02*
X180370000Y-91330000D01*
X180370000Y-88730000D02*
X180370000Y-86130000D01*
X182970000Y-88730000D02*
X180370000Y-88730000D01*
X182970000Y-91330000D02*
X182970000Y-88730000D01*
X180370000Y-86130000D02*
X193190000Y-86130000D01*
X182970000Y-91330000D02*
X193190000Y-91330000D01*
X193190000Y-91330000D02*
X193190000Y-86130000D01*
X106900000Y-75600000D02*
X105650000Y-75600000D01*
X106900000Y-76850000D02*
X106900000Y-75600000D01*
X101400000Y-82750000D02*
X101400000Y-79700000D01*
X104350000Y-82750000D02*
X101400000Y-82750000D01*
X104350000Y-83500000D02*
X104350000Y-82750000D01*
X101400000Y-76650000D02*
X101400000Y-79700000D01*
X104350000Y-76650000D02*
X101400000Y-76650000D01*
X104350000Y-75900000D02*
X104350000Y-76650000D01*
X106600000Y-83500000D02*
X106600000Y-81700000D01*
X105850000Y-83500000D02*
X106600000Y-83500000D01*
X105850000Y-81700000D02*
X105850000Y-83500000D01*
X106600000Y-81700000D02*
X105850000Y-81700000D01*
X106600000Y-77700000D02*
X106600000Y-75900000D01*
X105850000Y-77700000D02*
X106600000Y-77700000D01*
X105850000Y-75900000D02*
X105850000Y-77700000D01*
X106600000Y-75900000D02*
X105850000Y-75900000D01*
X106600000Y-80200000D02*
X106600000Y-79200000D01*
X105850000Y-80200000D02*
X106600000Y-80200000D01*
X105850000Y-79200000D02*
X105850000Y-80200000D01*
X106600000Y-79200000D02*
X105850000Y-79200000D01*
X106610000Y-83510000D02*
X106610000Y-75890000D01*
X100640000Y-83510000D02*
X106610000Y-83510000D01*
X100640000Y-75890000D02*
X100640000Y-83510000D01*
X106610000Y-75890000D02*
X100640000Y-75890000D01*
X113510000Y-75890000D02*
X107540000Y-75890000D01*
X107540000Y-75890000D02*
X107540000Y-83510000D01*
X107540000Y-83510000D02*
X113510000Y-83510000D01*
X113510000Y-83510000D02*
X113510000Y-75890000D01*
X113500000Y-79200000D02*
X112750000Y-79200000D01*
X112750000Y-79200000D02*
X112750000Y-80200000D01*
X112750000Y-80200000D02*
X113500000Y-80200000D01*
X113500000Y-80200000D02*
X113500000Y-79200000D01*
X113500000Y-75900000D02*
X112750000Y-75900000D01*
X112750000Y-75900000D02*
X112750000Y-77700000D01*
X112750000Y-77700000D02*
X113500000Y-77700000D01*
X113500000Y-77700000D02*
X113500000Y-75900000D01*
X113500000Y-81700000D02*
X112750000Y-81700000D01*
X112750000Y-81700000D02*
X112750000Y-83500000D01*
X112750000Y-83500000D02*
X113500000Y-83500000D01*
X113500000Y-83500000D02*
X113500000Y-81700000D01*
X111250000Y-75900000D02*
X111250000Y-76650000D01*
X111250000Y-76650000D02*
X108300000Y-76650000D01*
X108300000Y-76650000D02*
X108300000Y-79700000D01*
X111250000Y-83500000D02*
X111250000Y-82750000D01*
X111250000Y-82750000D02*
X108300000Y-82750000D01*
X108300000Y-82750000D02*
X108300000Y-79700000D01*
X113800000Y-76850000D02*
X113800000Y-75600000D01*
X113800000Y-75600000D02*
X112550000Y-75600000D01*
X155910000Y-63870000D02*
X155910000Y-69070000D01*
X166130000Y-63870000D02*
X155910000Y-63870000D01*
X168730000Y-69070000D02*
X155910000Y-69070000D01*
X166130000Y-63870000D02*
X166130000Y-66470000D01*
X166130000Y-66470000D02*
X168730000Y-66470000D01*
X168730000Y-66470000D02*
X168730000Y-69070000D01*
X167400000Y-63870000D02*
X168730000Y-63870000D01*
X168730000Y-63870000D02*
X168730000Y-65200000D01*
X138620000Y-98890000D02*
X143820000Y-98890000D01*
X138620000Y-88670000D02*
X138620000Y-98890000D01*
X143820000Y-86070000D02*
X143820000Y-98890000D01*
X138620000Y-88670000D02*
X141220000Y-88670000D01*
X141220000Y-88670000D02*
X141220000Y-86070000D01*
X141220000Y-86070000D02*
X143820000Y-86070000D01*
X138620000Y-87400000D02*
X138620000Y-86070000D01*
X138620000Y-86070000D02*
X139950000Y-86070000D01*
X132970000Y-56270000D02*
X138170000Y-56270000D01*
X132970000Y-53670000D02*
X132970000Y-56270000D01*
X138170000Y-51070000D02*
X138170000Y-56270000D01*
X132970000Y-53670000D02*
X135570000Y-53670000D01*
X135570000Y-53670000D02*
X135570000Y-51070000D01*
X135570000Y-51070000D02*
X138170000Y-51070000D01*
X132970000Y-52400000D02*
X132970000Y-51070000D01*
X132970000Y-51070000D02*
X134300000Y-51070000D01*
X106900000Y-84100000D02*
X105650000Y-84100000D01*
X106900000Y-85350000D02*
X106900000Y-84100000D01*
X101400000Y-91250000D02*
X101400000Y-88200000D01*
X104350000Y-91250000D02*
X101400000Y-91250000D01*
X104350000Y-92000000D02*
X104350000Y-91250000D01*
X101400000Y-85150000D02*
X101400000Y-88200000D01*
X104350000Y-85150000D02*
X101400000Y-85150000D01*
X104350000Y-84400000D02*
X104350000Y-85150000D01*
X106600000Y-92000000D02*
X106600000Y-90200000D01*
X105850000Y-92000000D02*
X106600000Y-92000000D01*
X105850000Y-90200000D02*
X105850000Y-92000000D01*
X106600000Y-90200000D02*
X105850000Y-90200000D01*
X106600000Y-86200000D02*
X106600000Y-84400000D01*
X105850000Y-86200000D02*
X106600000Y-86200000D01*
X105850000Y-84400000D02*
X105850000Y-86200000D01*
X106600000Y-84400000D02*
X105850000Y-84400000D01*
X106600000Y-88700000D02*
X106600000Y-87700000D01*
X105850000Y-88700000D02*
X106600000Y-88700000D01*
X105850000Y-87700000D02*
X105850000Y-88700000D01*
X106600000Y-87700000D02*
X105850000Y-87700000D01*
X106610000Y-92010000D02*
X106610000Y-84390000D01*
X100640000Y-92010000D02*
X106610000Y-92010000D01*
X100640000Y-84390000D02*
X100640000Y-92010000D01*
X106610000Y-84390000D02*
X100640000Y-84390000D01*
X113510000Y-84390000D02*
X107540000Y-84390000D01*
X107540000Y-84390000D02*
X107540000Y-92010000D01*
X107540000Y-92010000D02*
X113510000Y-92010000D01*
X113510000Y-92010000D02*
X113510000Y-84390000D01*
X113500000Y-87700000D02*
X112750000Y-87700000D01*
X112750000Y-87700000D02*
X112750000Y-88700000D01*
X112750000Y-88700000D02*
X113500000Y-88700000D01*
X113500000Y-88700000D02*
X113500000Y-87700000D01*
X113500000Y-84400000D02*
X112750000Y-84400000D01*
X112750000Y-84400000D02*
X112750000Y-86200000D01*
X112750000Y-86200000D02*
X113500000Y-86200000D01*
X113500000Y-86200000D02*
X113500000Y-84400000D01*
X113500000Y-90200000D02*
X112750000Y-90200000D01*
X112750000Y-90200000D02*
X112750000Y-92000000D01*
X112750000Y-92000000D02*
X113500000Y-92000000D01*
X113500000Y-92000000D02*
X113500000Y-90200000D01*
X111250000Y-84400000D02*
X111250000Y-85150000D01*
X111250000Y-85150000D02*
X108300000Y-85150000D01*
X108300000Y-85150000D02*
X108300000Y-88200000D01*
X111250000Y-92000000D02*
X111250000Y-91250000D01*
X111250000Y-91250000D02*
X108300000Y-91250000D01*
X108300000Y-91250000D02*
X108300000Y-88200000D01*
X113800000Y-85350000D02*
X113800000Y-84100000D01*
X113800000Y-84100000D02*
X112550000Y-84100000D01*
X161800000Y-92750000D02*
X161800000Y-94000000D01*
X163050000Y-92750000D02*
X161800000Y-92750000D01*
X168950000Y-98250000D02*
X165900000Y-98250000D01*
X168950000Y-95300000D02*
X168950000Y-98250000D01*
X169700000Y-95300000D02*
X168950000Y-95300000D01*
X162850000Y-98250000D02*
X165900000Y-98250000D01*
X162850000Y-95300000D02*
X162850000Y-98250000D01*
X162100000Y-95300000D02*
X162850000Y-95300000D01*
X169700000Y-93050000D02*
X167900000Y-93050000D01*
X169700000Y-93800000D02*
X169700000Y-93050000D01*
X167900000Y-93800000D02*
X169700000Y-93800000D01*
X167900000Y-93050000D02*
X167900000Y-93800000D01*
X163900000Y-93050000D02*
X162100000Y-93050000D01*
X163900000Y-93800000D02*
X163900000Y-93050000D01*
X162100000Y-93800000D02*
X163900000Y-93800000D01*
X162100000Y-93050000D02*
X162100000Y-93800000D01*
X166400000Y-93050000D02*
X165400000Y-93050000D01*
X166400000Y-93800000D02*
X166400000Y-93050000D01*
X165400000Y-93800000D02*
X166400000Y-93800000D01*
X165400000Y-93050000D02*
X165400000Y-93800000D01*
X169710000Y-93040000D02*
X162090000Y-93040000D01*
X169710000Y-99010000D02*
X169710000Y-93040000D01*
X162090000Y-99010000D02*
X169710000Y-99010000D01*
X162090000Y-93040000D02*
X162090000Y-99010000D01*
X153540000Y-93040000D02*
X153540000Y-99010000D01*
X153540000Y-99010000D02*
X161160000Y-99010000D01*
X161160000Y-99010000D02*
X161160000Y-93040000D01*
X161160000Y-93040000D02*
X153540000Y-93040000D01*
X156850000Y-93050000D02*
X156850000Y-93800000D01*
X156850000Y-93800000D02*
X157850000Y-93800000D01*
X157850000Y-93800000D02*
X157850000Y-93050000D01*
X157850000Y-93050000D02*
X156850000Y-93050000D01*
X153550000Y-93050000D02*
X153550000Y-93800000D01*
X153550000Y-93800000D02*
X155350000Y-93800000D01*
X155350000Y-93800000D02*
X155350000Y-93050000D01*
X155350000Y-93050000D02*
X153550000Y-93050000D01*
X159350000Y-93050000D02*
X159350000Y-93800000D01*
X159350000Y-93800000D02*
X161150000Y-93800000D01*
X161150000Y-93800000D02*
X161150000Y-93050000D01*
X161150000Y-93050000D02*
X159350000Y-93050000D01*
X153550000Y-95300000D02*
X154300000Y-95300000D01*
X154300000Y-95300000D02*
X154300000Y-98250000D01*
X154300000Y-98250000D02*
X157350000Y-98250000D01*
X161150000Y-95300000D02*
X160400000Y-95300000D01*
X160400000Y-95300000D02*
X160400000Y-98250000D01*
X160400000Y-98250000D02*
X157350000Y-98250000D01*
X154500000Y-92750000D02*
X153250000Y-92750000D01*
X153250000Y-92750000D02*
X153250000Y-94000000D01*
X145040000Y-93040000D02*
X145040000Y-99010000D01*
X145040000Y-99010000D02*
X152660000Y-99010000D01*
X152660000Y-99010000D02*
X152660000Y-93040000D01*
X152660000Y-93040000D02*
X145040000Y-93040000D01*
X148350000Y-93050000D02*
X148350000Y-93800000D01*
X148350000Y-93800000D02*
X149350000Y-93800000D01*
X149350000Y-93800000D02*
X149350000Y-93050000D01*
X149350000Y-93050000D02*
X148350000Y-93050000D01*
X145050000Y-93050000D02*
X145050000Y-93800000D01*
X145050000Y-93800000D02*
X146850000Y-93800000D01*
X146850000Y-93800000D02*
X146850000Y-93050000D01*
X146850000Y-93050000D02*
X145050000Y-93050000D01*
X150850000Y-93050000D02*
X150850000Y-93800000D01*
X150850000Y-93800000D02*
X152650000Y-93800000D01*
X152650000Y-93800000D02*
X152650000Y-93050000D01*
X152650000Y-93050000D02*
X150850000Y-93050000D01*
X145050000Y-95300000D02*
X145800000Y-95300000D01*
X145800000Y-95300000D02*
X145800000Y-98250000D01*
X145800000Y-98250000D02*
X148850000Y-98250000D01*
X152650000Y-95300000D02*
X151900000Y-95300000D01*
X151900000Y-95300000D02*
X151900000Y-98250000D01*
X151900000Y-98250000D02*
X148850000Y-98250000D01*
X146000000Y-92750000D02*
X144750000Y-92750000D01*
X144750000Y-92750000D02*
X144750000Y-94000000D01*
X124160000Y-60280000D02*
X124160000Y-59350000D01*
X124160000Y-57120000D02*
X124160000Y-58050000D01*
X124160000Y-57120000D02*
X122000000Y-57120000D01*
X124160000Y-60280000D02*
X122700000Y-60280000D01*
X115870000Y-62510000D02*
X116800000Y-62510000D01*
X119030000Y-62510000D02*
X118100000Y-62510000D01*
X119030000Y-62510000D02*
X119030000Y-60350000D01*
X115870000Y-62510000D02*
X115870000Y-61050000D01*
X157055000Y-58895000D02*
X157055000Y-59995000D01*
X157325000Y-58895000D02*
X157055000Y-58895000D01*
X157325000Y-57395000D02*
X157325000Y-58895000D01*
X150695000Y-58895000D02*
X150695000Y-61725000D01*
X150425000Y-58895000D02*
X150695000Y-58895000D01*
X150425000Y-57395000D02*
X150425000Y-58895000D01*
X173620000Y-94360000D02*
X173620000Y-92900000D01*
X176780000Y-94360000D02*
X176780000Y-92200000D01*
X176780000Y-94360000D02*
X175850000Y-94360000D01*
X173620000Y-94360000D02*
X174550000Y-94360000D01*
X160100000Y-86030000D02*
X160100000Y-84530000D01*
X160100000Y-84530000D02*
X159830000Y-84530000D01*
X159830000Y-84530000D02*
X159830000Y-81700000D01*
X153200000Y-86030000D02*
X153200000Y-84530000D01*
X153200000Y-84530000D02*
X153470000Y-84530000D01*
X153470000Y-84530000D02*
X153470000Y-83430000D01*
X144970000Y-84530000D02*
X144970000Y-83430000D01*
X144700000Y-84530000D02*
X144970000Y-84530000D01*
X144700000Y-86030000D02*
X144700000Y-84530000D01*
X151330000Y-84530000D02*
X151330000Y-81700000D01*
X151600000Y-84530000D02*
X151330000Y-84530000D01*
X151600000Y-86030000D02*
X151600000Y-84530000D01*
X165670000Y-80410000D02*
X165670000Y-78950000D01*
X168830000Y-80410000D02*
X168830000Y-78250000D01*
X168830000Y-80410000D02*
X167900000Y-80410000D01*
X165670000Y-80410000D02*
X166600000Y-80410000D01*
X157120000Y-80410000D02*
X158050000Y-80410000D01*
X160280000Y-80410000D02*
X159350000Y-80410000D01*
X160280000Y-80410000D02*
X160280000Y-78250000D01*
X157120000Y-80410000D02*
X157120000Y-78950000D01*
X148620000Y-80410000D02*
X148620000Y-78950000D01*
X151780000Y-80410000D02*
X151780000Y-78250000D01*
X151780000Y-80410000D02*
X150850000Y-80410000D01*
X148620000Y-80410000D02*
X149550000Y-80410000D01*
X118938748Y-59210000D02*
X119461252Y-59210000D01*
X118938748Y-57790000D02*
X119461252Y-57790000D01*
X121611252Y-62210000D02*
X121088748Y-62210000D01*
X121611252Y-60790000D02*
X121088748Y-60790000D01*
X125260000Y-66761252D02*
X125260000Y-66238748D01*
X123840000Y-66761252D02*
X123840000Y-66238748D01*
X121061252Y-65910000D02*
X120538748Y-65910000D01*
X121061252Y-64490000D02*
X120538748Y-64490000D01*
X123840000Y-62338748D02*
X123840000Y-62861252D01*
X125260000Y-62338748D02*
X125260000Y-62861252D01*
X116740000Y-65988748D02*
X116740000Y-66511252D01*
X118160000Y-65988748D02*
X118160000Y-66511252D01*
X145767699Y-68830968D02*
X145767699Y-68308464D01*
X147187699Y-68830968D02*
X147187699Y-68308464D01*
X149187700Y-68830968D02*
X149187700Y-68308464D01*
X147767700Y-68830968D02*
X147767700Y-68308464D01*
X149767699Y-68830968D02*
X149767699Y-68308464D01*
X151187699Y-68830968D02*
X151187699Y-68308464D01*
X153187699Y-68830968D02*
X153187699Y-68308464D01*
X151767699Y-68830968D02*
X151767699Y-68308464D01*
X115588748Y-80240000D02*
X116111252Y-80240000D01*
X115588748Y-81660000D02*
X116111252Y-81660000D01*
X115588748Y-79160000D02*
X116111252Y-79160000D01*
X115588748Y-77740000D02*
X116111252Y-77740000D01*
X115588748Y-87660000D02*
X116111252Y-87660000D01*
X115588748Y-86240000D02*
X116111252Y-86240000D01*
X115588748Y-88740000D02*
X116111252Y-88740000D01*
X115588748Y-90160000D02*
X116111252Y-90160000D01*
X172838748Y-97390000D02*
X173361252Y-97390000D01*
X172838748Y-98810000D02*
X173361252Y-98810000D01*
X173010000Y-94463747D02*
X173010000Y-94986251D01*
X171590000Y-94463747D02*
X171590000Y-94986251D01*
X180861252Y-97390000D02*
X180338748Y-97390000D01*
X180861252Y-98810000D02*
X180338748Y-98810000D01*
X179610000Y-93961252D02*
X179610000Y-93438748D01*
X178190000Y-93961252D02*
X178190000Y-93438748D01*
X163288748Y-79690000D02*
X163811252Y-79690000D01*
X163288748Y-81110000D02*
X163811252Y-81110000D01*
X154738748Y-79690000D02*
X155261252Y-79690000D01*
X154738748Y-81110000D02*
X155261252Y-81110000D01*
X146238748Y-81110000D02*
X146761252Y-81110000D01*
X146238748Y-79690000D02*
X146761252Y-79690000D01*
X170738748Y-77610000D02*
X171261252Y-77610000D01*
X170738748Y-76190000D02*
X171261252Y-76190000D01*
X162138748Y-77610000D02*
X162661252Y-77610000D01*
X162138748Y-76190000D02*
X162661252Y-76190000D01*
X153638748Y-76190000D02*
X154161252Y-76190000D01*
X153638748Y-77610000D02*
X154161252Y-77610000D01*
X167411252Y-77610000D02*
X166888748Y-77610000D01*
X167411252Y-76190000D02*
X166888748Y-76190000D01*
X158861252Y-77610000D02*
X158338748Y-77610000D01*
X158861252Y-76190000D02*
X158338748Y-76190000D01*
X150361252Y-76190000D02*
X149838748Y-76190000D01*
X150361252Y-77610000D02*
X149838748Y-77610000D01*
X115640000Y-74610000D02*
X115640000Y-70990000D01*
X121760000Y-74610000D02*
X115640000Y-74610000D01*
X121760000Y-70990000D02*
X121760000Y-74610000D01*
X115640000Y-70990000D02*
X121760000Y-70990000D01*
X103240000Y-70990000D02*
X109360000Y-70990000D01*
X109360000Y-70990000D02*
X109360000Y-74610000D01*
X109360000Y-74610000D02*
X103240000Y-74610000D01*
X103240000Y-74610000D02*
X103240000Y-70990000D01*
X188960000Y-96410000D02*
X182840000Y-96410000D01*
X182840000Y-96410000D02*
X182840000Y-92790000D01*
X182840000Y-92790000D02*
X188960000Y-92790000D01*
X188960000Y-92790000D02*
X188960000Y-96410000D01*
X174900000Y-61980000D02*
X174120000Y-61980000D01*
X174120000Y-61980000D02*
X174120000Y-62980000D01*
X174900000Y-80220000D02*
X174120000Y-80220000D01*
X174120000Y-80220000D02*
X174120000Y-79220000D01*
X199865000Y-61980000D02*
X199865000Y-80220000D01*
X199865000Y-80220000D02*
X193445000Y-80220000D01*
X199865000Y-61980000D02*
X193445000Y-61980000D01*
X193445000Y-61980000D02*
X193445000Y-61600000D01*
X127590000Y-68110000D02*
X128850000Y-68110000D01*
X134410000Y-68110000D02*
X133150000Y-68110000D01*
X127590000Y-64350000D02*
X127590000Y-68110000D01*
X134410000Y-62100000D02*
X134410000Y-68110000D01*
X171470000Y-88670000D02*
X176670000Y-88670000D01*
X171470000Y-86070000D02*
X171470000Y-88670000D01*
X176670000Y-83470000D02*
X176670000Y-88670000D01*
X171470000Y-86070000D02*
X174070000Y-86070000D01*
X174070000Y-86070000D02*
X174070000Y-83470000D01*
X174070000Y-83470000D02*
X176670000Y-83470000D01*
X171470000Y-84800000D02*
X171470000Y-83470000D01*
X171470000Y-83470000D02*
X172800000Y-83470000D01*
X172880975Y-51411162D02*
X172358471Y-51411162D01*
X172880975Y-52831162D02*
X172358471Y-52831162D01*
X172358470Y-53361162D02*
X172880974Y-53361162D01*
X172358470Y-54781162D02*
X172880974Y-54781162D01*
X176108471Y-52831161D02*
X176630975Y-52831161D01*
X176108471Y-51411161D02*
X176630975Y-51411161D01*
X176630975Y-54781163D02*
X176108471Y-54781163D01*
X176630975Y-53361163D02*
X176108471Y-53361163D01*
X168650000Y-86030000D02*
X168650000Y-84530000D01*
X168650000Y-84530000D02*
X168380000Y-84530000D01*
X168380000Y-84530000D02*
X168380000Y-81700000D01*
X161750000Y-86030000D02*
X161750000Y-84530000D01*
X161750000Y-84530000D02*
X162020000Y-84530000D01*
X162020000Y-84530000D02*
X162020000Y-83430000D01*
X116038748Y-68990000D02*
X116561252Y-68990000D01*
X116038748Y-70410000D02*
X116561252Y-70410000D01*
X105261252Y-70510000D02*
X104738748Y-70510000D01*
X105261252Y-69090000D02*
X104738748Y-69090000D01*
X112550000Y-69900000D02*
X112550000Y-57300000D01*
X112550000Y-57300000D02*
X107450000Y-57300000D01*
X107450000Y-57300000D02*
X107450000Y-69900000D01*
D10*
X143914285Y-59328571D02*
X144057142Y-59376190D01*
X144104761Y-59423809D01*
X144152380Y-59519047D01*
X144152380Y-59661904D01*
X144104761Y-59757142D01*
X144057142Y-59804761D01*
X143961904Y-59852380D01*
X143580952Y-59852380D01*
X143580952Y-58852380D01*
X143914285Y-58852380D01*
X144009523Y-58900000D01*
X144057142Y-58947619D01*
X144104761Y-59042857D01*
X144104761Y-59138095D01*
X144057142Y-59233333D01*
X144009523Y-59280952D01*
X143914285Y-59328571D01*
X143580952Y-59328571D01*
X144438095Y-58852380D02*
X145009523Y-58852380D01*
X144723809Y-59852380D02*
X144723809Y-58852380D01*
X145866666Y-59852380D02*
X145295238Y-59852380D01*
X145580952Y-59852380D02*
X145580952Y-58852380D01*
X145485714Y-58995238D01*
X145390476Y-59090476D01*
X145295238Y-59138095D01*
X139707142Y-75966666D02*
X139754761Y-76014285D01*
X139802380Y-76157142D01*
X139802380Y-76252380D01*
X139754761Y-76395238D01*
X139659523Y-76490476D01*
X139564285Y-76538095D01*
X139373809Y-76585714D01*
X139230952Y-76585714D01*
X139040476Y-76538095D01*
X138945238Y-76490476D01*
X138850000Y-76395238D01*
X138802380Y-76252380D01*
X138802380Y-76157142D01*
X138850000Y-76014285D01*
X138897619Y-75966666D01*
X138802380Y-75633333D02*
X138802380Y-75014285D01*
X139183333Y-75347619D01*
X139183333Y-75204761D01*
X139230952Y-75109523D01*
X139278571Y-75061904D01*
X139373809Y-75014285D01*
X139611904Y-75014285D01*
X139707142Y-75061904D01*
X139754761Y-75109523D01*
X139802380Y-75204761D01*
X139802380Y-75490476D01*
X139754761Y-75585714D01*
X139707142Y-75633333D01*
X109633333Y-98757142D02*
X109585714Y-98804761D01*
X109442857Y-98852380D01*
X109347619Y-98852380D01*
X109204761Y-98804761D01*
X109109523Y-98709523D01*
X109061904Y-98614285D01*
X109014285Y-98423809D01*
X109014285Y-98280952D01*
X109061904Y-98090476D01*
X109109523Y-97995238D01*
X109204761Y-97900000D01*
X109347619Y-97852380D01*
X109442857Y-97852380D01*
X109585714Y-97900000D01*
X109633333Y-97947619D01*
X110490476Y-98185714D02*
X110490476Y-98852380D01*
X110252380Y-97804761D02*
X110014285Y-98519047D01*
X110633333Y-98519047D01*
X124933333Y-77557142D02*
X124885714Y-77604761D01*
X124742857Y-77652380D01*
X124647619Y-77652380D01*
X124504761Y-77604761D01*
X124409523Y-77509523D01*
X124361904Y-77414285D01*
X124314285Y-77223809D01*
X124314285Y-77080952D01*
X124361904Y-76890476D01*
X124409523Y-76795238D01*
X124504761Y-76700000D01*
X124647619Y-76652380D01*
X124742857Y-76652380D01*
X124885714Y-76700000D01*
X124933333Y-76747619D01*
X125838095Y-76652380D02*
X125361904Y-76652380D01*
X125314285Y-77128571D01*
X125361904Y-77080952D01*
X125457142Y-77033333D01*
X125695238Y-77033333D01*
X125790476Y-77080952D01*
X125838095Y-77128571D01*
X125885714Y-77223809D01*
X125885714Y-77461904D01*
X125838095Y-77557142D01*
X125790476Y-77604761D01*
X125695238Y-77652380D01*
X125457142Y-77652380D01*
X125361904Y-77604761D01*
X125314285Y-77557142D01*
X109407142Y-52966666D02*
X109454761Y-53014285D01*
X109502380Y-53157142D01*
X109502380Y-53252380D01*
X109454761Y-53395238D01*
X109359523Y-53490476D01*
X109264285Y-53538095D01*
X109073809Y-53585714D01*
X108930952Y-53585714D01*
X108740476Y-53538095D01*
X108645238Y-53490476D01*
X108550000Y-53395238D01*
X108502380Y-53252380D01*
X108502380Y-53157142D01*
X108550000Y-53014285D01*
X108597619Y-52966666D01*
X108502380Y-52109523D02*
X108502380Y-52300000D01*
X108550000Y-52395238D01*
X108597619Y-52442857D01*
X108740476Y-52538095D01*
X108930952Y-52585714D01*
X109311904Y-52585714D01*
X109407142Y-52538095D01*
X109454761Y-52490476D01*
X109502380Y-52395238D01*
X109502380Y-52204761D01*
X109454761Y-52109523D01*
X109407142Y-52061904D01*
X109311904Y-52014285D01*
X109073809Y-52014285D01*
X108978571Y-52061904D01*
X108930952Y-52109523D01*
X108883333Y-52204761D01*
X108883333Y-52395238D01*
X108930952Y-52490476D01*
X108978571Y-52538095D01*
X109073809Y-52585714D01*
X121633333Y-69257142D02*
X121585714Y-69304761D01*
X121442857Y-69352380D01*
X121347619Y-69352380D01*
X121204761Y-69304761D01*
X121109523Y-69209523D01*
X121061904Y-69114285D01*
X121014285Y-68923809D01*
X121014285Y-68780952D01*
X121061904Y-68590476D01*
X121109523Y-68495238D01*
X121204761Y-68400000D01*
X121347619Y-68352380D01*
X121442857Y-68352380D01*
X121585714Y-68400000D01*
X121633333Y-68447619D01*
X121966666Y-68352380D02*
X122633333Y-68352380D01*
X122204761Y-69352380D01*
X144333333Y-74857142D02*
X144285714Y-74904761D01*
X144142857Y-74952380D01*
X144047619Y-74952380D01*
X143904761Y-74904761D01*
X143809523Y-74809523D01*
X143761904Y-74714285D01*
X143714285Y-74523809D01*
X143714285Y-74380952D01*
X143761904Y-74190476D01*
X143809523Y-74095238D01*
X143904761Y-74000000D01*
X144047619Y-73952380D01*
X144142857Y-73952380D01*
X144285714Y-74000000D01*
X144333333Y-74047619D01*
X144904761Y-74380952D02*
X144809523Y-74333333D01*
X144761904Y-74285714D01*
X144714285Y-74190476D01*
X144714285Y-74142857D01*
X144761904Y-74047619D01*
X144809523Y-74000000D01*
X144904761Y-73952380D01*
X145095238Y-73952380D01*
X145190476Y-74000000D01*
X145238095Y-74047619D01*
X145285714Y-74142857D01*
X145285714Y-74190476D01*
X145238095Y-74285714D01*
X145190476Y-74333333D01*
X145095238Y-74380952D01*
X144904761Y-74380952D01*
X144809523Y-74428571D01*
X144761904Y-74476190D01*
X144714285Y-74571428D01*
X144714285Y-74761904D01*
X144761904Y-74857142D01*
X144809523Y-74904761D01*
X144904761Y-74952380D01*
X145095238Y-74952380D01*
X145190476Y-74904761D01*
X145238095Y-74857142D01*
X145285714Y-74761904D01*
X145285714Y-74571428D01*
X145238095Y-74476190D01*
X145190476Y-74428571D01*
X145095238Y-74380952D01*
X189133333Y-60757142D02*
X189085714Y-60804761D01*
X188942857Y-60852380D01*
X188847619Y-60852380D01*
X188704761Y-60804761D01*
X188609523Y-60709523D01*
X188561904Y-60614285D01*
X188514285Y-60423809D01*
X188514285Y-60280952D01*
X188561904Y-60090476D01*
X188609523Y-59995238D01*
X188704761Y-59900000D01*
X188847619Y-59852380D01*
X188942857Y-59852380D01*
X189085714Y-59900000D01*
X189133333Y-59947619D01*
X189609523Y-60852380D02*
X189800000Y-60852380D01*
X189895238Y-60804761D01*
X189942857Y-60757142D01*
X190038095Y-60614285D01*
X190085714Y-60423809D01*
X190085714Y-60042857D01*
X190038095Y-59947619D01*
X189990476Y-59900000D01*
X189895238Y-59852380D01*
X189704761Y-59852380D01*
X189609523Y-59900000D01*
X189561904Y-59947619D01*
X189514285Y-60042857D01*
X189514285Y-60280952D01*
X189561904Y-60376190D01*
X189609523Y-60423809D01*
X189704761Y-60471428D01*
X189895238Y-60471428D01*
X189990476Y-60423809D01*
X190038095Y-60376190D01*
X190085714Y-60280952D01*
X197557142Y-91557142D02*
X197509523Y-91604761D01*
X197366666Y-91652380D01*
X197271428Y-91652380D01*
X197128571Y-91604761D01*
X197033333Y-91509523D01*
X196985714Y-91414285D01*
X196938095Y-91223809D01*
X196938095Y-91080952D01*
X196985714Y-90890476D01*
X197033333Y-90795238D01*
X197128571Y-90700000D01*
X197271428Y-90652380D01*
X197366666Y-90652380D01*
X197509523Y-90700000D01*
X197557142Y-90747619D01*
X198509523Y-91652380D02*
X197938095Y-91652380D01*
X198223809Y-91652380D02*
X198223809Y-90652380D01*
X198128571Y-90795238D01*
X198033333Y-90890476D01*
X197938095Y-90938095D01*
X199128571Y-90652380D02*
X199223809Y-90652380D01*
X199319047Y-90700000D01*
X199366666Y-90747619D01*
X199414285Y-90842857D01*
X199461904Y-91033333D01*
X199461904Y-91271428D01*
X199414285Y-91461904D01*
X199366666Y-91557142D01*
X199319047Y-91604761D01*
X199223809Y-91652380D01*
X199128571Y-91652380D01*
X199033333Y-91604761D01*
X198985714Y-91557142D01*
X198938095Y-91461904D01*
X198890476Y-91271428D01*
X198890476Y-91033333D01*
X198938095Y-90842857D01*
X198985714Y-90747619D01*
X199033333Y-90700000D01*
X199128571Y-90652380D01*
X197257142Y-59157142D02*
X197209523Y-59204761D01*
X197066666Y-59252380D01*
X196971428Y-59252380D01*
X196828571Y-59204761D01*
X196733333Y-59109523D01*
X196685714Y-59014285D01*
X196638095Y-58823809D01*
X196638095Y-58680952D01*
X196685714Y-58490476D01*
X196733333Y-58395238D01*
X196828571Y-58300000D01*
X196971428Y-58252380D01*
X197066666Y-58252380D01*
X197209523Y-58300000D01*
X197257142Y-58347619D01*
X198209523Y-59252380D02*
X197638095Y-59252380D01*
X197923809Y-59252380D02*
X197923809Y-58252380D01*
X197828571Y-58395238D01*
X197733333Y-58490476D01*
X197638095Y-58538095D01*
X199161904Y-59252380D02*
X198590476Y-59252380D01*
X198876190Y-59252380D02*
X198876190Y-58252380D01*
X198780952Y-58395238D01*
X198685714Y-58490476D01*
X198590476Y-58538095D01*
X164797969Y-53507106D02*
X164797969Y-53574450D01*
X164730625Y-53709137D01*
X164663282Y-53776480D01*
X164528595Y-53843824D01*
X164393908Y-53843824D01*
X164292893Y-53810152D01*
X164124534Y-53709137D01*
X164023519Y-53608122D01*
X163922503Y-53439763D01*
X163888832Y-53338748D01*
X163888832Y-53204061D01*
X163956175Y-53069374D01*
X164023519Y-53002030D01*
X164158206Y-52934687D01*
X164225549Y-52934687D01*
X165538748Y-52901015D02*
X165134687Y-53305076D01*
X165336717Y-53103045D02*
X164629610Y-52395938D01*
X164663282Y-52564297D01*
X164663282Y-52698984D01*
X164629610Y-52800000D01*
X165168358Y-51991877D02*
X165168358Y-51924534D01*
X165202030Y-51823519D01*
X165370389Y-51655160D01*
X165471404Y-51621488D01*
X165538748Y-51621488D01*
X165639763Y-51655160D01*
X165707106Y-51722503D01*
X165774450Y-51857190D01*
X165774450Y-52665312D01*
X166212183Y-52227580D01*
X165297969Y-56807106D02*
X165297969Y-56874450D01*
X165230625Y-57009137D01*
X165163282Y-57076480D01*
X165028595Y-57143824D01*
X164893908Y-57143824D01*
X164792893Y-57110152D01*
X164624534Y-57009137D01*
X164523519Y-56908122D01*
X164422503Y-56739763D01*
X164388832Y-56638748D01*
X164388832Y-56504061D01*
X164456175Y-56369374D01*
X164523519Y-56302030D01*
X164658206Y-56234687D01*
X164725549Y-56234687D01*
X166038748Y-56201015D02*
X165634687Y-56605076D01*
X165836717Y-56403045D02*
X165129610Y-55695938D01*
X165163282Y-55864297D01*
X165163282Y-55998984D01*
X165129610Y-56100000D01*
X165567343Y-55258206D02*
X166005076Y-54820473D01*
X166038748Y-55325549D01*
X166139763Y-55224534D01*
X166240778Y-55190862D01*
X166308122Y-55190862D01*
X166409137Y-55224534D01*
X166577496Y-55392893D01*
X166611167Y-55493908D01*
X166611167Y-55561251D01*
X166577496Y-55662267D01*
X166375465Y-55864297D01*
X166274450Y-55897969D01*
X166207106Y-55897969D01*
X124857142Y-71507142D02*
X124809523Y-71554761D01*
X124666666Y-71602380D01*
X124571428Y-71602380D01*
X124428571Y-71554761D01*
X124333333Y-71459523D01*
X124285714Y-71364285D01*
X124238095Y-71173809D01*
X124238095Y-71030952D01*
X124285714Y-70840476D01*
X124333333Y-70745238D01*
X124428571Y-70650000D01*
X124571428Y-70602380D01*
X124666666Y-70602380D01*
X124809523Y-70650000D01*
X124857142Y-70697619D01*
X125809523Y-71602380D02*
X125238095Y-71602380D01*
X125523809Y-71602380D02*
X125523809Y-70602380D01*
X125428571Y-70745238D01*
X125333333Y-70840476D01*
X125238095Y-70888095D01*
X126666666Y-70935714D02*
X126666666Y-71602380D01*
X126428571Y-70554761D02*
X126190476Y-71269047D01*
X126809523Y-71269047D01*
X194557142Y-91557142D02*
X194509523Y-91604761D01*
X194366666Y-91652380D01*
X194271428Y-91652380D01*
X194128571Y-91604761D01*
X194033333Y-91509523D01*
X193985714Y-91414285D01*
X193938095Y-91223809D01*
X193938095Y-91080952D01*
X193985714Y-90890476D01*
X194033333Y-90795238D01*
X194128571Y-90700000D01*
X194271428Y-90652380D01*
X194366666Y-90652380D01*
X194509523Y-90700000D01*
X194557142Y-90747619D01*
X195509523Y-91652380D02*
X194938095Y-91652380D01*
X195223809Y-91652380D02*
X195223809Y-90652380D01*
X195128571Y-90795238D01*
X195033333Y-90890476D01*
X194938095Y-90938095D01*
X196414285Y-90652380D02*
X195938095Y-90652380D01*
X195890476Y-91128571D01*
X195938095Y-91080952D01*
X196033333Y-91033333D01*
X196271428Y-91033333D01*
X196366666Y-91080952D01*
X196414285Y-91128571D01*
X196461904Y-91223809D01*
X196461904Y-91461904D01*
X196414285Y-91557142D01*
X196366666Y-91604761D01*
X196271428Y-91652380D01*
X196033333Y-91652380D01*
X195938095Y-91604761D01*
X195890476Y-91557142D01*
X139152380Y-67438095D02*
X138152380Y-67438095D01*
X138152380Y-67200000D01*
X138200000Y-67057142D01*
X138295238Y-66961904D01*
X138390476Y-66914285D01*
X138580952Y-66866666D01*
X138723809Y-66866666D01*
X138914285Y-66914285D01*
X139009523Y-66961904D01*
X139104761Y-67057142D01*
X139152380Y-67200000D01*
X139152380Y-67438095D01*
X138247619Y-66485714D02*
X138200000Y-66438095D01*
X138152380Y-66342857D01*
X138152380Y-66104761D01*
X138200000Y-66009523D01*
X138247619Y-65961904D01*
X138342857Y-65914285D01*
X138438095Y-65914285D01*
X138580952Y-65961904D01*
X139152380Y-66533333D01*
X139152380Y-65914285D01*
X140552380Y-67438095D02*
X139552380Y-67438095D01*
X139552380Y-67200000D01*
X139600000Y-67057142D01*
X139695238Y-66961904D01*
X139790476Y-66914285D01*
X139980952Y-66866666D01*
X140123809Y-66866666D01*
X140314285Y-66914285D01*
X140409523Y-66961904D01*
X140504761Y-67057142D01*
X140552380Y-67200000D01*
X140552380Y-67438095D01*
X139552380Y-66533333D02*
X139552380Y-65914285D01*
X139933333Y-66247619D01*
X139933333Y-66104761D01*
X139980952Y-66009523D01*
X140028571Y-65961904D01*
X140123809Y-65914285D01*
X140361904Y-65914285D01*
X140457142Y-65961904D01*
X140504761Y-66009523D01*
X140552380Y-66104761D01*
X140552380Y-66390476D01*
X140504761Y-66485714D01*
X140457142Y-66533333D01*
X141952380Y-67438095D02*
X140952380Y-67438095D01*
X140952380Y-67200000D01*
X141000000Y-67057142D01*
X141095238Y-66961904D01*
X141190476Y-66914285D01*
X141380952Y-66866666D01*
X141523809Y-66866666D01*
X141714285Y-66914285D01*
X141809523Y-66961904D01*
X141904761Y-67057142D01*
X141952380Y-67200000D01*
X141952380Y-67438095D01*
X141285714Y-66009523D02*
X141952380Y-66009523D01*
X140904761Y-66247619D02*
X141619047Y-66485714D01*
X141619047Y-65866666D01*
X143352380Y-67438095D02*
X142352380Y-67438095D01*
X142352380Y-67200000D01*
X142400000Y-67057142D01*
X142495238Y-66961904D01*
X142590476Y-66914285D01*
X142780952Y-66866666D01*
X142923809Y-66866666D01*
X143114285Y-66914285D01*
X143209523Y-66961904D01*
X143304761Y-67057142D01*
X143352380Y-67200000D01*
X143352380Y-67438095D01*
X142352380Y-65961904D02*
X142352380Y-66438095D01*
X142828571Y-66485714D01*
X142780952Y-66438095D01*
X142733333Y-66342857D01*
X142733333Y-66104761D01*
X142780952Y-66009523D01*
X142828571Y-65961904D01*
X142923809Y-65914285D01*
X143161904Y-65914285D01*
X143257142Y-65961904D01*
X143304761Y-66009523D01*
X143352380Y-66104761D01*
X143352380Y-66342857D01*
X143304761Y-66438095D01*
X143257142Y-66485714D01*
X118661904Y-83052380D02*
X118661904Y-82052380D01*
X118900000Y-82052380D01*
X119042857Y-82100000D01*
X119138095Y-82195238D01*
X119185714Y-82290476D01*
X119233333Y-82480952D01*
X119233333Y-82623809D01*
X119185714Y-82814285D01*
X119138095Y-82909523D01*
X119042857Y-83004761D01*
X118900000Y-83052380D01*
X118661904Y-83052380D01*
X120090476Y-82052380D02*
X119900000Y-82052380D01*
X119804761Y-82100000D01*
X119757142Y-82147619D01*
X119661904Y-82290476D01*
X119614285Y-82480952D01*
X119614285Y-82861904D01*
X119661904Y-82957142D01*
X119709523Y-83004761D01*
X119804761Y-83052380D01*
X119995238Y-83052380D01*
X120090476Y-83004761D01*
X120138095Y-82957142D01*
X120185714Y-82861904D01*
X120185714Y-82623809D01*
X120138095Y-82528571D01*
X120090476Y-82480952D01*
X119995238Y-82433333D01*
X119804761Y-82433333D01*
X119709523Y-82480952D01*
X119661904Y-82528571D01*
X119614285Y-82623809D01*
X118261904Y-77452380D02*
X118261904Y-76452380D01*
X118500000Y-76452380D01*
X118642857Y-76500000D01*
X118738095Y-76595238D01*
X118785714Y-76690476D01*
X118833333Y-76880952D01*
X118833333Y-77023809D01*
X118785714Y-77214285D01*
X118738095Y-77309523D01*
X118642857Y-77404761D01*
X118500000Y-77452380D01*
X118261904Y-77452380D01*
X119166666Y-76452380D02*
X119833333Y-76452380D01*
X119404761Y-77452380D01*
X121661904Y-87452380D02*
X121661904Y-86452380D01*
X121900000Y-86452380D01*
X122042857Y-86500000D01*
X122138095Y-86595238D01*
X122185714Y-86690476D01*
X122233333Y-86880952D01*
X122233333Y-87023809D01*
X122185714Y-87214285D01*
X122138095Y-87309523D01*
X122042857Y-87404761D01*
X121900000Y-87452380D01*
X121661904Y-87452380D01*
X122804761Y-86880952D02*
X122709523Y-86833333D01*
X122661904Y-86785714D01*
X122614285Y-86690476D01*
X122614285Y-86642857D01*
X122661904Y-86547619D01*
X122709523Y-86500000D01*
X122804761Y-86452380D01*
X122995238Y-86452380D01*
X123090476Y-86500000D01*
X123138095Y-86547619D01*
X123185714Y-86642857D01*
X123185714Y-86690476D01*
X123138095Y-86785714D01*
X123090476Y-86833333D01*
X122995238Y-86880952D01*
X122804761Y-86880952D01*
X122709523Y-86928571D01*
X122661904Y-86976190D01*
X122614285Y-87071428D01*
X122614285Y-87261904D01*
X122661904Y-87357142D01*
X122709523Y-87404761D01*
X122804761Y-87452380D01*
X122995238Y-87452380D01*
X123090476Y-87404761D01*
X123138095Y-87357142D01*
X123185714Y-87261904D01*
X123185714Y-87071428D01*
X123138095Y-86976190D01*
X123090476Y-86928571D01*
X122995238Y-86880952D01*
X118161904Y-91652380D02*
X118161904Y-90652380D01*
X118400000Y-90652380D01*
X118542857Y-90700000D01*
X118638095Y-90795238D01*
X118685714Y-90890476D01*
X118733333Y-91080952D01*
X118733333Y-91223809D01*
X118685714Y-91414285D01*
X118638095Y-91509523D01*
X118542857Y-91604761D01*
X118400000Y-91652380D01*
X118161904Y-91652380D01*
X119209523Y-91652380D02*
X119400000Y-91652380D01*
X119495238Y-91604761D01*
X119542857Y-91557142D01*
X119638095Y-91414285D01*
X119685714Y-91223809D01*
X119685714Y-90842857D01*
X119638095Y-90747619D01*
X119590476Y-90700000D01*
X119495238Y-90652380D01*
X119304761Y-90652380D01*
X119209523Y-90700000D01*
X119161904Y-90747619D01*
X119114285Y-90842857D01*
X119114285Y-91080952D01*
X119161904Y-91176190D01*
X119209523Y-91223809D01*
X119304761Y-91271428D01*
X119495238Y-91271428D01*
X119590476Y-91223809D01*
X119638095Y-91176190D01*
X119685714Y-91080952D01*
X133785714Y-86452380D02*
X133785714Y-85452380D01*
X134023809Y-85452380D01*
X134166666Y-85500000D01*
X134261904Y-85595238D01*
X134309523Y-85690476D01*
X134357142Y-85880952D01*
X134357142Y-86023809D01*
X134309523Y-86214285D01*
X134261904Y-86309523D01*
X134166666Y-86404761D01*
X134023809Y-86452380D01*
X133785714Y-86452380D01*
X135309523Y-86452380D02*
X134738095Y-86452380D01*
X135023809Y-86452380D02*
X135023809Y-85452380D01*
X134928571Y-85595238D01*
X134833333Y-85690476D01*
X134738095Y-85738095D01*
X135928571Y-85452380D02*
X136023809Y-85452380D01*
X136119047Y-85500000D01*
X136166666Y-85547619D01*
X136214285Y-85642857D01*
X136261904Y-85833333D01*
X136261904Y-86071428D01*
X136214285Y-86261904D01*
X136166666Y-86357142D01*
X136119047Y-86404761D01*
X136023809Y-86452380D01*
X135928571Y-86452380D01*
X135833333Y-86404761D01*
X135785714Y-86357142D01*
X135738095Y-86261904D01*
X135690476Y-86071428D01*
X135690476Y-85833333D01*
X135738095Y-85642857D01*
X135785714Y-85547619D01*
X135833333Y-85500000D01*
X135928571Y-85452380D01*
X173585714Y-96452380D02*
X173585714Y-95452380D01*
X173823809Y-95452380D01*
X173966666Y-95500000D01*
X174061904Y-95595238D01*
X174109523Y-95690476D01*
X174157142Y-95880952D01*
X174157142Y-96023809D01*
X174109523Y-96214285D01*
X174061904Y-96309523D01*
X173966666Y-96404761D01*
X173823809Y-96452380D01*
X173585714Y-96452380D01*
X175109523Y-96452380D02*
X174538095Y-96452380D01*
X174823809Y-96452380D02*
X174823809Y-95452380D01*
X174728571Y-95595238D01*
X174633333Y-95690476D01*
X174538095Y-95738095D01*
X176061904Y-96452380D02*
X175490476Y-96452380D01*
X175776190Y-96452380D02*
X175776190Y-95452380D01*
X175680952Y-95595238D01*
X175585714Y-95690476D01*
X175490476Y-95738095D01*
X132752380Y-56814285D02*
X131752380Y-56814285D01*
X131752380Y-56576190D01*
X131800000Y-56433333D01*
X131895238Y-56338095D01*
X131990476Y-56290476D01*
X132180952Y-56242857D01*
X132323809Y-56242857D01*
X132514285Y-56290476D01*
X132609523Y-56338095D01*
X132704761Y-56433333D01*
X132752380Y-56576190D01*
X132752380Y-56814285D01*
X132752380Y-55290476D02*
X132752380Y-55861904D01*
X132752380Y-55576190D02*
X131752380Y-55576190D01*
X131895238Y-55671428D01*
X131990476Y-55766666D01*
X132038095Y-55861904D01*
X131847619Y-54909523D02*
X131800000Y-54861904D01*
X131752380Y-54766666D01*
X131752380Y-54528571D01*
X131800000Y-54433333D01*
X131847619Y-54385714D01*
X131942857Y-54338095D01*
X132038095Y-54338095D01*
X132180952Y-54385714D01*
X132752380Y-54957142D01*
X132752380Y-54338095D01*
X135685714Y-65052380D02*
X135685714Y-64052380D01*
X135923809Y-64052380D01*
X136066666Y-64100000D01*
X136161904Y-64195238D01*
X136209523Y-64290476D01*
X136257142Y-64480952D01*
X136257142Y-64623809D01*
X136209523Y-64814285D01*
X136161904Y-64909523D01*
X136066666Y-65004761D01*
X135923809Y-65052380D01*
X135685714Y-65052380D01*
X137209523Y-65052380D02*
X136638095Y-65052380D01*
X136923809Y-65052380D02*
X136923809Y-64052380D01*
X136828571Y-64195238D01*
X136733333Y-64290476D01*
X136638095Y-64338095D01*
X137542857Y-64052380D02*
X138161904Y-64052380D01*
X137828571Y-64433333D01*
X137971428Y-64433333D01*
X138066666Y-64480952D01*
X138114285Y-64528571D01*
X138161904Y-64623809D01*
X138161904Y-64861904D01*
X138114285Y-64957142D01*
X138066666Y-65004761D01*
X137971428Y-65052380D01*
X137685714Y-65052380D01*
X137590476Y-65004761D01*
X137542857Y-64957142D01*
X112666666Y-53252380D02*
X112666666Y-53966666D01*
X112619047Y-54109523D01*
X112523809Y-54204761D01*
X112380952Y-54252380D01*
X112285714Y-54252380D01*
X113666666Y-54252380D02*
X113095238Y-54252380D01*
X113380952Y-54252380D02*
X113380952Y-53252380D01*
X113285714Y-53395238D01*
X113190476Y-53490476D01*
X113095238Y-53538095D01*
X129896666Y-84632380D02*
X129896666Y-85346666D01*
X129849047Y-85489523D01*
X129753809Y-85584761D01*
X129610952Y-85632380D01*
X129515714Y-85632380D01*
X130325238Y-84727619D02*
X130372857Y-84680000D01*
X130468095Y-84632380D01*
X130706190Y-84632380D01*
X130801428Y-84680000D01*
X130849047Y-84727619D01*
X130896666Y-84822857D01*
X130896666Y-84918095D01*
X130849047Y-85060952D01*
X130277619Y-85632380D01*
X130896666Y-85632380D01*
X100966666Y-66752380D02*
X100966666Y-67466666D01*
X100919047Y-67609523D01*
X100823809Y-67704761D01*
X100680952Y-67752380D01*
X100585714Y-67752380D01*
X101347619Y-66752380D02*
X101966666Y-66752380D01*
X101633333Y-67133333D01*
X101776190Y-67133333D01*
X101871428Y-67180952D01*
X101919047Y-67228571D01*
X101966666Y-67323809D01*
X101966666Y-67561904D01*
X101919047Y-67657142D01*
X101871428Y-67704761D01*
X101776190Y-67752380D01*
X101490476Y-67752380D01*
X101395238Y-67704761D01*
X101347619Y-67657142D01*
X177352380Y-56233333D02*
X178066666Y-56233333D01*
X178209523Y-56280952D01*
X178304761Y-56376190D01*
X178352380Y-56519047D01*
X178352380Y-56614285D01*
X177685714Y-55328571D02*
X178352380Y-55328571D01*
X177304761Y-55566666D02*
X178019047Y-55804761D01*
X178019047Y-55185714D01*
X178852380Y-86933333D02*
X179566666Y-86933333D01*
X179709523Y-86980952D01*
X179804761Y-87076190D01*
X179852380Y-87219047D01*
X179852380Y-87314285D01*
X178852380Y-85980952D02*
X178852380Y-86457142D01*
X179328571Y-86504761D01*
X179280952Y-86457142D01*
X179233333Y-86361904D01*
X179233333Y-86123809D01*
X179280952Y-86028571D01*
X179328571Y-85980952D01*
X179423809Y-85933333D01*
X179661904Y-85933333D01*
X179757142Y-85980952D01*
X179804761Y-86028571D01*
X179852380Y-86123809D01*
X179852380Y-86361904D01*
X179804761Y-86457142D01*
X179757142Y-86504761D01*
X100866666Y-74152380D02*
X100866666Y-74866666D01*
X100819047Y-75009523D01*
X100723809Y-75104761D01*
X100580952Y-75152380D01*
X100485714Y-75152380D01*
X101771428Y-74152380D02*
X101580952Y-74152380D01*
X101485714Y-74200000D01*
X101438095Y-74247619D01*
X101342857Y-74390476D01*
X101295238Y-74580952D01*
X101295238Y-74961904D01*
X101342857Y-75057142D01*
X101390476Y-75104761D01*
X101485714Y-75152380D01*
X101676190Y-75152380D01*
X101771428Y-75104761D01*
X101819047Y-75057142D01*
X101866666Y-74961904D01*
X101866666Y-74723809D01*
X101819047Y-74628571D01*
X101771428Y-74580952D01*
X101676190Y-74533333D01*
X101485714Y-74533333D01*
X101390476Y-74580952D01*
X101342857Y-74628571D01*
X101295238Y-74723809D01*
X114966666Y-74952380D02*
X114966666Y-75666666D01*
X114919047Y-75809523D01*
X114823809Y-75904761D01*
X114680952Y-75952380D01*
X114585714Y-75952380D01*
X115347619Y-74952380D02*
X116014285Y-74952380D01*
X115585714Y-75952380D01*
X169182380Y-66803333D02*
X169896666Y-66803333D01*
X170039523Y-66850952D01*
X170134761Y-66946190D01*
X170182380Y-67089047D01*
X170182380Y-67184285D01*
X169610952Y-66184285D02*
X169563333Y-66279523D01*
X169515714Y-66327142D01*
X169420476Y-66374761D01*
X169372857Y-66374761D01*
X169277619Y-66327142D01*
X169230000Y-66279523D01*
X169182380Y-66184285D01*
X169182380Y-65993809D01*
X169230000Y-65898571D01*
X169277619Y-65850952D01*
X169372857Y-65803333D01*
X169420476Y-65803333D01*
X169515714Y-65850952D01*
X169563333Y-65898571D01*
X169610952Y-65993809D01*
X169610952Y-66184285D01*
X169658571Y-66279523D01*
X169706190Y-66327142D01*
X169801428Y-66374761D01*
X169991904Y-66374761D01*
X170087142Y-66327142D01*
X170134761Y-66279523D01*
X170182380Y-66184285D01*
X170182380Y-65993809D01*
X170134761Y-65898571D01*
X170087142Y-65850952D01*
X169991904Y-65803333D01*
X169801428Y-65803333D01*
X169706190Y-65850952D01*
X169658571Y-65898571D01*
X169610952Y-65993809D01*
X140886666Y-84522380D02*
X140886666Y-85236666D01*
X140839047Y-85379523D01*
X140743809Y-85474761D01*
X140600952Y-85522380D01*
X140505714Y-85522380D01*
X141410476Y-85522380D02*
X141600952Y-85522380D01*
X141696190Y-85474761D01*
X141743809Y-85427142D01*
X141839047Y-85284285D01*
X141886666Y-85093809D01*
X141886666Y-84712857D01*
X141839047Y-84617619D01*
X141791428Y-84570000D01*
X141696190Y-84522380D01*
X141505714Y-84522380D01*
X141410476Y-84570000D01*
X141362857Y-84617619D01*
X141315238Y-84712857D01*
X141315238Y-84950952D01*
X141362857Y-85046190D01*
X141410476Y-85093809D01*
X141505714Y-85141428D01*
X141696190Y-85141428D01*
X141791428Y-85093809D01*
X141839047Y-85046190D01*
X141886666Y-84950952D01*
X136290476Y-56552380D02*
X136290476Y-57266666D01*
X136242857Y-57409523D01*
X136147619Y-57504761D01*
X136004761Y-57552380D01*
X135909523Y-57552380D01*
X137290476Y-57552380D02*
X136719047Y-57552380D01*
X137004761Y-57552380D02*
X137004761Y-56552380D01*
X136909523Y-56695238D01*
X136814285Y-56790476D01*
X136719047Y-56838095D01*
X137909523Y-56552380D02*
X138004761Y-56552380D01*
X138100000Y-56600000D01*
X138147619Y-56647619D01*
X138195238Y-56742857D01*
X138242857Y-56933333D01*
X138242857Y-57171428D01*
X138195238Y-57361904D01*
X138147619Y-57457142D01*
X138100000Y-57504761D01*
X138004761Y-57552380D01*
X137909523Y-57552380D01*
X137814285Y-57504761D01*
X137766666Y-57457142D01*
X137719047Y-57361904D01*
X137671428Y-57171428D01*
X137671428Y-56933333D01*
X137719047Y-56742857D01*
X137766666Y-56647619D01*
X137814285Y-56600000D01*
X137909523Y-56552380D01*
X107652380Y-94609523D02*
X108366666Y-94609523D01*
X108509523Y-94657142D01*
X108604761Y-94752380D01*
X108652380Y-94895238D01*
X108652380Y-94990476D01*
X108652380Y-93609523D02*
X108652380Y-94180952D01*
X108652380Y-93895238D02*
X107652380Y-93895238D01*
X107795238Y-93990476D01*
X107890476Y-94085714D01*
X107938095Y-94180952D01*
X108652380Y-92657142D02*
X108652380Y-93228571D01*
X108652380Y-92942857D02*
X107652380Y-92942857D01*
X107795238Y-93038095D01*
X107890476Y-93133333D01*
X107938095Y-93228571D01*
X110152380Y-94709523D02*
X110866666Y-94709523D01*
X111009523Y-94757142D01*
X111104761Y-94852380D01*
X111152380Y-94995238D01*
X111152380Y-95090476D01*
X111152380Y-93709523D02*
X111152380Y-94280952D01*
X111152380Y-93995238D02*
X110152380Y-93995238D01*
X110295238Y-94090476D01*
X110390476Y-94185714D01*
X110438095Y-94280952D01*
X110247619Y-93328571D02*
X110200000Y-93280952D01*
X110152380Y-93185714D01*
X110152380Y-92947619D01*
X110200000Y-92852380D01*
X110247619Y-92804761D01*
X110342857Y-92757142D01*
X110438095Y-92757142D01*
X110580952Y-92804761D01*
X111152380Y-93376190D01*
X111152380Y-92757142D01*
X168952380Y-92009523D02*
X169666666Y-92009523D01*
X169809523Y-92057142D01*
X169904761Y-92152380D01*
X169952380Y-92295238D01*
X169952380Y-92390476D01*
X169952380Y-91009523D02*
X169952380Y-91580952D01*
X169952380Y-91295238D02*
X168952380Y-91295238D01*
X169095238Y-91390476D01*
X169190476Y-91485714D01*
X169238095Y-91580952D01*
X168952380Y-90676190D02*
X168952380Y-90057142D01*
X169333333Y-90390476D01*
X169333333Y-90247619D01*
X169380952Y-90152380D01*
X169428571Y-90104761D01*
X169523809Y-90057142D01*
X169761904Y-90057142D01*
X169857142Y-90104761D01*
X169904761Y-90152380D01*
X169952380Y-90247619D01*
X169952380Y-90533333D01*
X169904761Y-90628571D01*
X169857142Y-90676190D01*
X160552380Y-91109523D02*
X161266666Y-91109523D01*
X161409523Y-91157142D01*
X161504761Y-91252380D01*
X161552380Y-91395238D01*
X161552380Y-91490476D01*
X161552380Y-90109523D02*
X161552380Y-90680952D01*
X161552380Y-90395238D02*
X160552380Y-90395238D01*
X160695238Y-90490476D01*
X160790476Y-90585714D01*
X160838095Y-90680952D01*
X160885714Y-89252380D02*
X161552380Y-89252380D01*
X160504761Y-89490476D02*
X161219047Y-89728571D01*
X161219047Y-89109523D01*
X151952380Y-91009523D02*
X152666666Y-91009523D01*
X152809523Y-91057142D01*
X152904761Y-91152380D01*
X152952380Y-91295238D01*
X152952380Y-91390476D01*
X152952380Y-90009523D02*
X152952380Y-90580952D01*
X152952380Y-90295238D02*
X151952380Y-90295238D01*
X152095238Y-90390476D01*
X152190476Y-90485714D01*
X152238095Y-90580952D01*
X151952380Y-89104761D02*
X151952380Y-89580952D01*
X152428571Y-89628571D01*
X152380952Y-89580952D01*
X152333333Y-89485714D01*
X152333333Y-89247619D01*
X152380952Y-89152380D01*
X152428571Y-89104761D01*
X152523809Y-89057142D01*
X152761904Y-89057142D01*
X152857142Y-89104761D01*
X152904761Y-89152380D01*
X152952380Y-89247619D01*
X152952380Y-89485714D01*
X152904761Y-89580952D01*
X152857142Y-89628571D01*
X126204761Y-60847619D02*
X126109523Y-60800000D01*
X126014285Y-60704761D01*
X125871428Y-60561904D01*
X125776190Y-60514285D01*
X125680952Y-60514285D01*
X125728571Y-60752380D02*
X125633333Y-60704761D01*
X125538095Y-60609523D01*
X125490476Y-60419047D01*
X125490476Y-60085714D01*
X125538095Y-59895238D01*
X125633333Y-59800000D01*
X125728571Y-59752380D01*
X125919047Y-59752380D01*
X126014285Y-59800000D01*
X126109523Y-59895238D01*
X126157142Y-60085714D01*
X126157142Y-60419047D01*
X126109523Y-60609523D01*
X126014285Y-60704761D01*
X125919047Y-60752380D01*
X125728571Y-60752380D01*
X127109523Y-60752380D02*
X126538095Y-60752380D01*
X126823809Y-60752380D02*
X126823809Y-59752380D01*
X126728571Y-59895238D01*
X126633333Y-59990476D01*
X126538095Y-60038095D01*
X114604761Y-62847619D02*
X114509523Y-62800000D01*
X114414285Y-62704761D01*
X114271428Y-62561904D01*
X114176190Y-62514285D01*
X114080952Y-62514285D01*
X114128571Y-62752380D02*
X114033333Y-62704761D01*
X113938095Y-62609523D01*
X113890476Y-62419047D01*
X113890476Y-62085714D01*
X113938095Y-61895238D01*
X114033333Y-61800000D01*
X114128571Y-61752380D01*
X114319047Y-61752380D01*
X114414285Y-61800000D01*
X114509523Y-61895238D01*
X114557142Y-62085714D01*
X114557142Y-62419047D01*
X114509523Y-62609523D01*
X114414285Y-62704761D01*
X114319047Y-62752380D01*
X114128571Y-62752380D01*
X114938095Y-61847619D02*
X114985714Y-61800000D01*
X115080952Y-61752380D01*
X115319047Y-61752380D01*
X115414285Y-61800000D01*
X115461904Y-61847619D01*
X115509523Y-61942857D01*
X115509523Y-62038095D01*
X115461904Y-62180952D01*
X114890476Y-62752380D01*
X115509523Y-62752380D01*
X149604761Y-56347619D02*
X149509523Y-56300000D01*
X149414285Y-56204761D01*
X149271428Y-56061904D01*
X149176190Y-56014285D01*
X149080952Y-56014285D01*
X149128571Y-56252380D02*
X149033333Y-56204761D01*
X148938095Y-56109523D01*
X148890476Y-55919047D01*
X148890476Y-55585714D01*
X148938095Y-55395238D01*
X149033333Y-55300000D01*
X149128571Y-55252380D01*
X149319047Y-55252380D01*
X149414285Y-55300000D01*
X149509523Y-55395238D01*
X149557142Y-55585714D01*
X149557142Y-55919047D01*
X149509523Y-56109523D01*
X149414285Y-56204761D01*
X149319047Y-56252380D01*
X149128571Y-56252380D01*
X149890476Y-55252380D02*
X150509523Y-55252380D01*
X150176190Y-55633333D01*
X150319047Y-55633333D01*
X150414285Y-55680952D01*
X150461904Y-55728571D01*
X150509523Y-55823809D01*
X150509523Y-56061904D01*
X150461904Y-56157142D01*
X150414285Y-56204761D01*
X150319047Y-56252380D01*
X150033333Y-56252380D01*
X149938095Y-56204761D01*
X149890476Y-56157142D01*
X174904761Y-91647619D02*
X174809523Y-91600000D01*
X174714285Y-91504761D01*
X174571428Y-91361904D01*
X174476190Y-91314285D01*
X174380952Y-91314285D01*
X174428571Y-91552380D02*
X174333333Y-91504761D01*
X174238095Y-91409523D01*
X174190476Y-91219047D01*
X174190476Y-90885714D01*
X174238095Y-90695238D01*
X174333333Y-90600000D01*
X174428571Y-90552380D01*
X174619047Y-90552380D01*
X174714285Y-90600000D01*
X174809523Y-90695238D01*
X174857142Y-90885714D01*
X174857142Y-91219047D01*
X174809523Y-91409523D01*
X174714285Y-91504761D01*
X174619047Y-91552380D01*
X174428571Y-91552380D01*
X175714285Y-90885714D02*
X175714285Y-91552380D01*
X175476190Y-90504761D02*
X175238095Y-91219047D01*
X175857142Y-91219047D01*
X161447619Y-86995238D02*
X161400000Y-87090476D01*
X161304761Y-87185714D01*
X161161904Y-87328571D01*
X161114285Y-87423809D01*
X161114285Y-87519047D01*
X161352380Y-87471428D02*
X161304761Y-87566666D01*
X161209523Y-87661904D01*
X161019047Y-87709523D01*
X160685714Y-87709523D01*
X160495238Y-87661904D01*
X160400000Y-87566666D01*
X160352380Y-87471428D01*
X160352380Y-87280952D01*
X160400000Y-87185714D01*
X160495238Y-87090476D01*
X160685714Y-87042857D01*
X161019047Y-87042857D01*
X161209523Y-87090476D01*
X161304761Y-87185714D01*
X161352380Y-87280952D01*
X161352380Y-87471428D01*
X160352380Y-86185714D02*
X160352380Y-86376190D01*
X160400000Y-86471428D01*
X160447619Y-86519047D01*
X160590476Y-86614285D01*
X160780952Y-86661904D01*
X161161904Y-86661904D01*
X161257142Y-86614285D01*
X161304761Y-86566666D01*
X161352380Y-86471428D01*
X161352380Y-86280952D01*
X161304761Y-86185714D01*
X161257142Y-86138095D01*
X161161904Y-86090476D01*
X160923809Y-86090476D01*
X160828571Y-86138095D01*
X160780952Y-86185714D01*
X160733333Y-86280952D01*
X160733333Y-86471428D01*
X160780952Y-86566666D01*
X160828571Y-86614285D01*
X160923809Y-86661904D01*
X152947619Y-87095238D02*
X152900000Y-87190476D01*
X152804761Y-87285714D01*
X152661904Y-87428571D01*
X152614285Y-87523809D01*
X152614285Y-87619047D01*
X152852380Y-87571428D02*
X152804761Y-87666666D01*
X152709523Y-87761904D01*
X152519047Y-87809523D01*
X152185714Y-87809523D01*
X151995238Y-87761904D01*
X151900000Y-87666666D01*
X151852380Y-87571428D01*
X151852380Y-87380952D01*
X151900000Y-87285714D01*
X151995238Y-87190476D01*
X152185714Y-87142857D01*
X152519047Y-87142857D01*
X152709523Y-87190476D01*
X152804761Y-87285714D01*
X152852380Y-87380952D01*
X152852380Y-87571428D01*
X151852380Y-86809523D02*
X151852380Y-86142857D01*
X152852380Y-86571428D01*
X170104761Y-79447619D02*
X170009523Y-79400000D01*
X169914285Y-79304761D01*
X169771428Y-79161904D01*
X169676190Y-79114285D01*
X169580952Y-79114285D01*
X169628571Y-79352380D02*
X169533333Y-79304761D01*
X169438095Y-79209523D01*
X169390476Y-79019047D01*
X169390476Y-78685714D01*
X169438095Y-78495238D01*
X169533333Y-78400000D01*
X169628571Y-78352380D01*
X169819047Y-78352380D01*
X169914285Y-78400000D01*
X170009523Y-78495238D01*
X170057142Y-78685714D01*
X170057142Y-79019047D01*
X170009523Y-79209523D01*
X169914285Y-79304761D01*
X169819047Y-79352380D01*
X169628571Y-79352380D01*
X170628571Y-78780952D02*
X170533333Y-78733333D01*
X170485714Y-78685714D01*
X170438095Y-78590476D01*
X170438095Y-78542857D01*
X170485714Y-78447619D01*
X170533333Y-78400000D01*
X170628571Y-78352380D01*
X170819047Y-78352380D01*
X170914285Y-78400000D01*
X170961904Y-78447619D01*
X171009523Y-78542857D01*
X171009523Y-78590476D01*
X170961904Y-78685714D01*
X170914285Y-78733333D01*
X170819047Y-78780952D01*
X170628571Y-78780952D01*
X170533333Y-78828571D01*
X170485714Y-78876190D01*
X170438095Y-78971428D01*
X170438095Y-79161904D01*
X170485714Y-79257142D01*
X170533333Y-79304761D01*
X170628571Y-79352380D01*
X170819047Y-79352380D01*
X170914285Y-79304761D01*
X170961904Y-79257142D01*
X171009523Y-79161904D01*
X171009523Y-78971428D01*
X170961904Y-78876190D01*
X170914285Y-78828571D01*
X170819047Y-78780952D01*
X161304761Y-79147619D02*
X161209523Y-79100000D01*
X161114285Y-79004761D01*
X160971428Y-78861904D01*
X160876190Y-78814285D01*
X160780952Y-78814285D01*
X160828571Y-79052380D02*
X160733333Y-79004761D01*
X160638095Y-78909523D01*
X160590476Y-78719047D01*
X160590476Y-78385714D01*
X160638095Y-78195238D01*
X160733333Y-78100000D01*
X160828571Y-78052380D01*
X161019047Y-78052380D01*
X161114285Y-78100000D01*
X161209523Y-78195238D01*
X161257142Y-78385714D01*
X161257142Y-78719047D01*
X161209523Y-78909523D01*
X161114285Y-79004761D01*
X161019047Y-79052380D01*
X160828571Y-79052380D01*
X161733333Y-79052380D02*
X161923809Y-79052380D01*
X162019047Y-79004761D01*
X162066666Y-78957142D01*
X162161904Y-78814285D01*
X162209523Y-78623809D01*
X162209523Y-78242857D01*
X162161904Y-78147619D01*
X162114285Y-78100000D01*
X162019047Y-78052380D01*
X161828571Y-78052380D01*
X161733333Y-78100000D01*
X161685714Y-78147619D01*
X161638095Y-78242857D01*
X161638095Y-78480952D01*
X161685714Y-78576190D01*
X161733333Y-78623809D01*
X161828571Y-78671428D01*
X162019047Y-78671428D01*
X162114285Y-78623809D01*
X162161904Y-78576190D01*
X162209523Y-78480952D01*
X146228571Y-79247619D02*
X146133333Y-79200000D01*
X146038095Y-79104761D01*
X145895238Y-78961904D01*
X145800000Y-78914285D01*
X145704761Y-78914285D01*
X145752380Y-79152380D02*
X145657142Y-79104761D01*
X145561904Y-79009523D01*
X145514285Y-78819047D01*
X145514285Y-78485714D01*
X145561904Y-78295238D01*
X145657142Y-78200000D01*
X145752380Y-78152380D01*
X145942857Y-78152380D01*
X146038095Y-78200000D01*
X146133333Y-78295238D01*
X146180952Y-78485714D01*
X146180952Y-78819047D01*
X146133333Y-79009523D01*
X146038095Y-79104761D01*
X145942857Y-79152380D01*
X145752380Y-79152380D01*
X147133333Y-79152380D02*
X146561904Y-79152380D01*
X146847619Y-79152380D02*
X146847619Y-78152380D01*
X146752380Y-78295238D01*
X146657142Y-78390476D01*
X146561904Y-78438095D01*
X147752380Y-78152380D02*
X147847619Y-78152380D01*
X147942857Y-78200000D01*
X147990476Y-78247619D01*
X148038095Y-78342857D01*
X148085714Y-78533333D01*
X148085714Y-78771428D01*
X148038095Y-78961904D01*
X147990476Y-79057142D01*
X147942857Y-79104761D01*
X147847619Y-79152380D01*
X147752380Y-79152380D01*
X147657142Y-79104761D01*
X147609523Y-79057142D01*
X147561904Y-78961904D01*
X147514285Y-78771428D01*
X147514285Y-78533333D01*
X147561904Y-78342857D01*
X147609523Y-78247619D01*
X147657142Y-78200000D01*
X147752380Y-78152380D01*
X116133333Y-58352380D02*
X115800000Y-57876190D01*
X115561904Y-58352380D02*
X115561904Y-57352380D01*
X115942857Y-57352380D01*
X116038095Y-57400000D01*
X116085714Y-57447619D01*
X116133333Y-57542857D01*
X116133333Y-57685714D01*
X116085714Y-57780952D01*
X116038095Y-57828571D01*
X115942857Y-57876190D01*
X115561904Y-57876190D01*
X117085714Y-58352380D02*
X116514285Y-58352380D01*
X116800000Y-58352380D02*
X116800000Y-57352380D01*
X116704761Y-57495238D01*
X116609523Y-57590476D01*
X116514285Y-57638095D01*
X122433333Y-63602380D02*
X122100000Y-63126190D01*
X121861904Y-63602380D02*
X121861904Y-62602380D01*
X122242857Y-62602380D01*
X122338095Y-62650000D01*
X122385714Y-62697619D01*
X122433333Y-62792857D01*
X122433333Y-62935714D01*
X122385714Y-63030952D01*
X122338095Y-63078571D01*
X122242857Y-63126190D01*
X121861904Y-63126190D01*
X122814285Y-62697619D02*
X122861904Y-62650000D01*
X122957142Y-62602380D01*
X123195238Y-62602380D01*
X123290476Y-62650000D01*
X123338095Y-62697619D01*
X123385714Y-62792857D01*
X123385714Y-62888095D01*
X123338095Y-63030952D01*
X122766666Y-63602380D01*
X123385714Y-63602380D01*
X126233333Y-66852380D02*
X125900000Y-66376190D01*
X125661904Y-66852380D02*
X125661904Y-65852380D01*
X126042857Y-65852380D01*
X126138095Y-65900000D01*
X126185714Y-65947619D01*
X126233333Y-66042857D01*
X126233333Y-66185714D01*
X126185714Y-66280952D01*
X126138095Y-66328571D01*
X126042857Y-66376190D01*
X125661904Y-66376190D01*
X126566666Y-65852380D02*
X127185714Y-65852380D01*
X126852380Y-66233333D01*
X126995238Y-66233333D01*
X127090476Y-66280952D01*
X127138095Y-66328571D01*
X127185714Y-66423809D01*
X127185714Y-66661904D01*
X127138095Y-66757142D01*
X127090476Y-66804761D01*
X126995238Y-66852380D01*
X126709523Y-66852380D01*
X126614285Y-66804761D01*
X126566666Y-66757142D01*
X120533333Y-64152380D02*
X120200000Y-63676190D01*
X119961904Y-64152380D02*
X119961904Y-63152380D01*
X120342857Y-63152380D01*
X120438095Y-63200000D01*
X120485714Y-63247619D01*
X120533333Y-63342857D01*
X120533333Y-63485714D01*
X120485714Y-63580952D01*
X120438095Y-63628571D01*
X120342857Y-63676190D01*
X119961904Y-63676190D01*
X121390476Y-63485714D02*
X121390476Y-64152380D01*
X121152380Y-63104761D02*
X120914285Y-63819047D01*
X121533333Y-63819047D01*
X126433333Y-62752380D02*
X126100000Y-62276190D01*
X125861904Y-62752380D02*
X125861904Y-61752380D01*
X126242857Y-61752380D01*
X126338095Y-61800000D01*
X126385714Y-61847619D01*
X126433333Y-61942857D01*
X126433333Y-62085714D01*
X126385714Y-62180952D01*
X126338095Y-62228571D01*
X126242857Y-62276190D01*
X125861904Y-62276190D01*
X127338095Y-61752380D02*
X126861904Y-61752380D01*
X126814285Y-62228571D01*
X126861904Y-62180952D01*
X126957142Y-62133333D01*
X127195238Y-62133333D01*
X127290476Y-62180952D01*
X127338095Y-62228571D01*
X127385714Y-62323809D01*
X127385714Y-62561904D01*
X127338095Y-62657142D01*
X127290476Y-62704761D01*
X127195238Y-62752380D01*
X126957142Y-62752380D01*
X126861904Y-62704761D01*
X126814285Y-62657142D01*
X115033333Y-67952380D02*
X114700000Y-67476190D01*
X114461904Y-67952380D02*
X114461904Y-66952380D01*
X114842857Y-66952380D01*
X114938095Y-67000000D01*
X114985714Y-67047619D01*
X115033333Y-67142857D01*
X115033333Y-67285714D01*
X114985714Y-67380952D01*
X114938095Y-67428571D01*
X114842857Y-67476190D01*
X114461904Y-67476190D01*
X115890476Y-66952380D02*
X115700000Y-66952380D01*
X115604761Y-67000000D01*
X115557142Y-67047619D01*
X115461904Y-67190476D01*
X115414285Y-67380952D01*
X115414285Y-67761904D01*
X115461904Y-67857142D01*
X115509523Y-67904761D01*
X115604761Y-67952380D01*
X115795238Y-67952380D01*
X115890476Y-67904761D01*
X115938095Y-67857142D01*
X115985714Y-67761904D01*
X115985714Y-67523809D01*
X115938095Y-67428571D01*
X115890476Y-67380952D01*
X115795238Y-67333333D01*
X115604761Y-67333333D01*
X115509523Y-67380952D01*
X115461904Y-67428571D01*
X115414285Y-67523809D01*
X139152380Y-69366666D02*
X138676190Y-69700000D01*
X139152380Y-69938095D02*
X138152380Y-69938095D01*
X138152380Y-69557142D01*
X138200000Y-69461904D01*
X138247619Y-69414285D01*
X138342857Y-69366666D01*
X138485714Y-69366666D01*
X138580952Y-69414285D01*
X138628571Y-69461904D01*
X138676190Y-69557142D01*
X138676190Y-69938095D01*
X138580952Y-68795238D02*
X138533333Y-68890476D01*
X138485714Y-68938095D01*
X138390476Y-68985714D01*
X138342857Y-68985714D01*
X138247619Y-68938095D01*
X138200000Y-68890476D01*
X138152380Y-68795238D01*
X138152380Y-68604761D01*
X138200000Y-68509523D01*
X138247619Y-68461904D01*
X138342857Y-68414285D01*
X138390476Y-68414285D01*
X138485714Y-68461904D01*
X138533333Y-68509523D01*
X138580952Y-68604761D01*
X138580952Y-68795238D01*
X138628571Y-68890476D01*
X138676190Y-68938095D01*
X138771428Y-68985714D01*
X138961904Y-68985714D01*
X139057142Y-68938095D01*
X139104761Y-68890476D01*
X139152380Y-68795238D01*
X139152380Y-68604761D01*
X139104761Y-68509523D01*
X139057142Y-68461904D01*
X138961904Y-68414285D01*
X138771428Y-68414285D01*
X138676190Y-68461904D01*
X138628571Y-68509523D01*
X138580952Y-68604761D01*
X140552380Y-69366666D02*
X140076190Y-69700000D01*
X140552380Y-69938095D02*
X139552380Y-69938095D01*
X139552380Y-69557142D01*
X139600000Y-69461904D01*
X139647619Y-69414285D01*
X139742857Y-69366666D01*
X139885714Y-69366666D01*
X139980952Y-69414285D01*
X140028571Y-69461904D01*
X140076190Y-69557142D01*
X140076190Y-69938095D01*
X140552380Y-68890476D02*
X140552380Y-68700000D01*
X140504761Y-68604761D01*
X140457142Y-68557142D01*
X140314285Y-68461904D01*
X140123809Y-68414285D01*
X139742857Y-68414285D01*
X139647619Y-68461904D01*
X139600000Y-68509523D01*
X139552380Y-68604761D01*
X139552380Y-68795238D01*
X139600000Y-68890476D01*
X139647619Y-68938095D01*
X139742857Y-68985714D01*
X139980952Y-68985714D01*
X140076190Y-68938095D01*
X140123809Y-68890476D01*
X140171428Y-68795238D01*
X140171428Y-68604761D01*
X140123809Y-68509523D01*
X140076190Y-68461904D01*
X139980952Y-68414285D01*
X141952380Y-69942857D02*
X141476190Y-70276190D01*
X141952380Y-70514285D02*
X140952380Y-70514285D01*
X140952380Y-70133333D01*
X141000000Y-70038095D01*
X141047619Y-69990476D01*
X141142857Y-69942857D01*
X141285714Y-69942857D01*
X141380952Y-69990476D01*
X141428571Y-70038095D01*
X141476190Y-70133333D01*
X141476190Y-70514285D01*
X141952380Y-68990476D02*
X141952380Y-69561904D01*
X141952380Y-69276190D02*
X140952380Y-69276190D01*
X141095238Y-69371428D01*
X141190476Y-69466666D01*
X141238095Y-69561904D01*
X140952380Y-68371428D02*
X140952380Y-68276190D01*
X141000000Y-68180952D01*
X141047619Y-68133333D01*
X141142857Y-68085714D01*
X141333333Y-68038095D01*
X141571428Y-68038095D01*
X141761904Y-68085714D01*
X141857142Y-68133333D01*
X141904761Y-68180952D01*
X141952380Y-68276190D01*
X141952380Y-68371428D01*
X141904761Y-68466666D01*
X141857142Y-68514285D01*
X141761904Y-68561904D01*
X141571428Y-68609523D01*
X141333333Y-68609523D01*
X141142857Y-68561904D01*
X141047619Y-68514285D01*
X141000000Y-68466666D01*
X140952380Y-68371428D01*
X143352380Y-69942857D02*
X142876190Y-70276190D01*
X143352380Y-70514285D02*
X142352380Y-70514285D01*
X142352380Y-70133333D01*
X142400000Y-70038095D01*
X142447619Y-69990476D01*
X142542857Y-69942857D01*
X142685714Y-69942857D01*
X142780952Y-69990476D01*
X142828571Y-70038095D01*
X142876190Y-70133333D01*
X142876190Y-70514285D01*
X143352380Y-68990476D02*
X143352380Y-69561904D01*
X143352380Y-69276190D02*
X142352380Y-69276190D01*
X142495238Y-69371428D01*
X142590476Y-69466666D01*
X142638095Y-69561904D01*
X143352380Y-68038095D02*
X143352380Y-68609523D01*
X143352380Y-68323809D02*
X142352380Y-68323809D01*
X142495238Y-68419047D01*
X142590476Y-68514285D01*
X142638095Y-68609523D01*
X115057142Y-83152380D02*
X114723809Y-82676190D01*
X114485714Y-83152380D02*
X114485714Y-82152380D01*
X114866666Y-82152380D01*
X114961904Y-82200000D01*
X115009523Y-82247619D01*
X115057142Y-82342857D01*
X115057142Y-82485714D01*
X115009523Y-82580952D01*
X114961904Y-82628571D01*
X114866666Y-82676190D01*
X114485714Y-82676190D01*
X116009523Y-83152380D02*
X115438095Y-83152380D01*
X115723809Y-83152380D02*
X115723809Y-82152380D01*
X115628571Y-82295238D01*
X115533333Y-82390476D01*
X115438095Y-82438095D01*
X116390476Y-82247619D02*
X116438095Y-82200000D01*
X116533333Y-82152380D01*
X116771428Y-82152380D01*
X116866666Y-82200000D01*
X116914285Y-82247619D01*
X116961904Y-82342857D01*
X116961904Y-82438095D01*
X116914285Y-82580952D01*
X116342857Y-83152380D01*
X116961904Y-83152380D01*
X115257142Y-77252380D02*
X114923809Y-76776190D01*
X114685714Y-77252380D02*
X114685714Y-76252380D01*
X115066666Y-76252380D01*
X115161904Y-76300000D01*
X115209523Y-76347619D01*
X115257142Y-76442857D01*
X115257142Y-76585714D01*
X115209523Y-76680952D01*
X115161904Y-76728571D01*
X115066666Y-76776190D01*
X114685714Y-76776190D01*
X116209523Y-77252380D02*
X115638095Y-77252380D01*
X115923809Y-77252380D02*
X115923809Y-76252380D01*
X115828571Y-76395238D01*
X115733333Y-76490476D01*
X115638095Y-76538095D01*
X116542857Y-76252380D02*
X117161904Y-76252380D01*
X116828571Y-76633333D01*
X116971428Y-76633333D01*
X117066666Y-76680952D01*
X117114285Y-76728571D01*
X117161904Y-76823809D01*
X117161904Y-77061904D01*
X117114285Y-77157142D01*
X117066666Y-77204761D01*
X116971428Y-77252380D01*
X116685714Y-77252380D01*
X116590476Y-77204761D01*
X116542857Y-77157142D01*
X116857142Y-85752380D02*
X116523809Y-85276190D01*
X116285714Y-85752380D02*
X116285714Y-84752380D01*
X116666666Y-84752380D01*
X116761904Y-84800000D01*
X116809523Y-84847619D01*
X116857142Y-84942857D01*
X116857142Y-85085714D01*
X116809523Y-85180952D01*
X116761904Y-85228571D01*
X116666666Y-85276190D01*
X116285714Y-85276190D01*
X117809523Y-85752380D02*
X117238095Y-85752380D01*
X117523809Y-85752380D02*
X117523809Y-84752380D01*
X117428571Y-84895238D01*
X117333333Y-84990476D01*
X117238095Y-85038095D01*
X118666666Y-85085714D02*
X118666666Y-85752380D01*
X118428571Y-84704761D02*
X118190476Y-85419047D01*
X118809523Y-85419047D01*
X115857142Y-91652380D02*
X115523809Y-91176190D01*
X115285714Y-91652380D02*
X115285714Y-90652380D01*
X115666666Y-90652380D01*
X115761904Y-90700000D01*
X115809523Y-90747619D01*
X115857142Y-90842857D01*
X115857142Y-90985714D01*
X115809523Y-91080952D01*
X115761904Y-91128571D01*
X115666666Y-91176190D01*
X115285714Y-91176190D01*
X116809523Y-91652380D02*
X116238095Y-91652380D01*
X116523809Y-91652380D02*
X116523809Y-90652380D01*
X116428571Y-90795238D01*
X116333333Y-90890476D01*
X116238095Y-90938095D01*
X117714285Y-90652380D02*
X117238095Y-90652380D01*
X117190476Y-91128571D01*
X117238095Y-91080952D01*
X117333333Y-91033333D01*
X117571428Y-91033333D01*
X117666666Y-91080952D01*
X117714285Y-91128571D01*
X117761904Y-91223809D01*
X117761904Y-91461904D01*
X117714285Y-91557142D01*
X117666666Y-91604761D01*
X117571428Y-91652380D01*
X117333333Y-91652380D01*
X117238095Y-91604761D01*
X117190476Y-91557142D01*
X171052380Y-98342857D02*
X170576190Y-98676190D01*
X171052380Y-98914285D02*
X170052380Y-98914285D01*
X170052380Y-98533333D01*
X170100000Y-98438095D01*
X170147619Y-98390476D01*
X170242857Y-98342857D01*
X170385714Y-98342857D01*
X170480952Y-98390476D01*
X170528571Y-98438095D01*
X170576190Y-98533333D01*
X170576190Y-98914285D01*
X171052380Y-97390476D02*
X171052380Y-97961904D01*
X171052380Y-97676190D02*
X170052380Y-97676190D01*
X170195238Y-97771428D01*
X170290476Y-97866666D01*
X170338095Y-97961904D01*
X170052380Y-96533333D02*
X170052380Y-96723809D01*
X170100000Y-96819047D01*
X170147619Y-96866666D01*
X170290476Y-96961904D01*
X170480952Y-97009523D01*
X170861904Y-97009523D01*
X170957142Y-96961904D01*
X171004761Y-96914285D01*
X171052380Y-96819047D01*
X171052380Y-96628571D01*
X171004761Y-96533333D01*
X170957142Y-96485714D01*
X170861904Y-96438095D01*
X170623809Y-96438095D01*
X170528571Y-96485714D01*
X170480952Y-96533333D01*
X170433333Y-96628571D01*
X170433333Y-96819047D01*
X170480952Y-96914285D01*
X170528571Y-96961904D01*
X170623809Y-97009523D01*
X171152380Y-94742857D02*
X170676190Y-95076190D01*
X171152380Y-95314285D02*
X170152380Y-95314285D01*
X170152380Y-94933333D01*
X170200000Y-94838095D01*
X170247619Y-94790476D01*
X170342857Y-94742857D01*
X170485714Y-94742857D01*
X170580952Y-94790476D01*
X170628571Y-94838095D01*
X170676190Y-94933333D01*
X170676190Y-95314285D01*
X171152380Y-93790476D02*
X171152380Y-94361904D01*
X171152380Y-94076190D02*
X170152380Y-94076190D01*
X170295238Y-94171428D01*
X170390476Y-94266666D01*
X170438095Y-94361904D01*
X170152380Y-93457142D02*
X170152380Y-92790476D01*
X171152380Y-93219047D01*
X179657142Y-96952380D02*
X179323809Y-96476190D01*
X179085714Y-96952380D02*
X179085714Y-95952380D01*
X179466666Y-95952380D01*
X179561904Y-96000000D01*
X179609523Y-96047619D01*
X179657142Y-96142857D01*
X179657142Y-96285714D01*
X179609523Y-96380952D01*
X179561904Y-96428571D01*
X179466666Y-96476190D01*
X179085714Y-96476190D01*
X180609523Y-96952380D02*
X180038095Y-96952380D01*
X180323809Y-96952380D02*
X180323809Y-95952380D01*
X180228571Y-96095238D01*
X180133333Y-96190476D01*
X180038095Y-96238095D01*
X181180952Y-96380952D02*
X181085714Y-96333333D01*
X181038095Y-96285714D01*
X180990476Y-96190476D01*
X180990476Y-96142857D01*
X181038095Y-96047619D01*
X181085714Y-96000000D01*
X181180952Y-95952380D01*
X181371428Y-95952380D01*
X181466666Y-96000000D01*
X181514285Y-96047619D01*
X181561904Y-96142857D01*
X181561904Y-96190476D01*
X181514285Y-96285714D01*
X181466666Y-96333333D01*
X181371428Y-96380952D01*
X181180952Y-96380952D01*
X181085714Y-96428571D01*
X181038095Y-96476190D01*
X180990476Y-96571428D01*
X180990476Y-96761904D01*
X181038095Y-96857142D01*
X181085714Y-96904761D01*
X181180952Y-96952380D01*
X181371428Y-96952380D01*
X181466666Y-96904761D01*
X181514285Y-96857142D01*
X181561904Y-96761904D01*
X181561904Y-96571428D01*
X181514285Y-96476190D01*
X181466666Y-96428571D01*
X181371428Y-96380952D01*
X179252380Y-91042857D02*
X178776190Y-91376190D01*
X179252380Y-91614285D02*
X178252380Y-91614285D01*
X178252380Y-91233333D01*
X178300000Y-91138095D01*
X178347619Y-91090476D01*
X178442857Y-91042857D01*
X178585714Y-91042857D01*
X178680952Y-91090476D01*
X178728571Y-91138095D01*
X178776190Y-91233333D01*
X178776190Y-91614285D01*
X179252380Y-90090476D02*
X179252380Y-90661904D01*
X179252380Y-90376190D02*
X178252380Y-90376190D01*
X178395238Y-90471428D01*
X178490476Y-90566666D01*
X178538095Y-90661904D01*
X179252380Y-89614285D02*
X179252380Y-89423809D01*
X179204761Y-89328571D01*
X179157142Y-89280952D01*
X179014285Y-89185714D01*
X178823809Y-89138095D01*
X178442857Y-89138095D01*
X178347619Y-89185714D01*
X178300000Y-89233333D01*
X178252380Y-89328571D01*
X178252380Y-89519047D01*
X178300000Y-89614285D01*
X178347619Y-89661904D01*
X178442857Y-89709523D01*
X178680952Y-89709523D01*
X178776190Y-89661904D01*
X178823809Y-89614285D01*
X178871428Y-89519047D01*
X178871428Y-89328571D01*
X178823809Y-89233333D01*
X178776190Y-89185714D01*
X178680952Y-89138095D01*
X163257142Y-79252380D02*
X162923809Y-78776190D01*
X162685714Y-79252380D02*
X162685714Y-78252380D01*
X163066666Y-78252380D01*
X163161904Y-78300000D01*
X163209523Y-78347619D01*
X163257142Y-78442857D01*
X163257142Y-78585714D01*
X163209523Y-78680952D01*
X163161904Y-78728571D01*
X163066666Y-78776190D01*
X162685714Y-78776190D01*
X163638095Y-78347619D02*
X163685714Y-78300000D01*
X163780952Y-78252380D01*
X164019047Y-78252380D01*
X164114285Y-78300000D01*
X164161904Y-78347619D01*
X164209523Y-78442857D01*
X164209523Y-78538095D01*
X164161904Y-78680952D01*
X163590476Y-79252380D01*
X164209523Y-79252380D01*
X164828571Y-78252380D02*
X164923809Y-78252380D01*
X165019047Y-78300000D01*
X165066666Y-78347619D01*
X165114285Y-78442857D01*
X165161904Y-78633333D01*
X165161904Y-78871428D01*
X165114285Y-79061904D01*
X165066666Y-79157142D01*
X165019047Y-79204761D01*
X164923809Y-79252380D01*
X164828571Y-79252380D01*
X164733333Y-79204761D01*
X164685714Y-79157142D01*
X164638095Y-79061904D01*
X164590476Y-78871428D01*
X164590476Y-78633333D01*
X164638095Y-78442857D01*
X164685714Y-78347619D01*
X164733333Y-78300000D01*
X164828571Y-78252380D01*
X154357142Y-79152380D02*
X154023809Y-78676190D01*
X153785714Y-79152380D02*
X153785714Y-78152380D01*
X154166666Y-78152380D01*
X154261904Y-78200000D01*
X154309523Y-78247619D01*
X154357142Y-78342857D01*
X154357142Y-78485714D01*
X154309523Y-78580952D01*
X154261904Y-78628571D01*
X154166666Y-78676190D01*
X153785714Y-78676190D01*
X154738095Y-78247619D02*
X154785714Y-78200000D01*
X154880952Y-78152380D01*
X155119047Y-78152380D01*
X155214285Y-78200000D01*
X155261904Y-78247619D01*
X155309523Y-78342857D01*
X155309523Y-78438095D01*
X155261904Y-78580952D01*
X154690476Y-79152380D01*
X155309523Y-79152380D01*
X156261904Y-79152380D02*
X155690476Y-79152380D01*
X155976190Y-79152380D02*
X155976190Y-78152380D01*
X155880952Y-78295238D01*
X155785714Y-78390476D01*
X155690476Y-78438095D01*
X142357142Y-80252380D02*
X142023809Y-79776190D01*
X141785714Y-80252380D02*
X141785714Y-79252380D01*
X142166666Y-79252380D01*
X142261904Y-79300000D01*
X142309523Y-79347619D01*
X142357142Y-79442857D01*
X142357142Y-79585714D01*
X142309523Y-79680952D01*
X142261904Y-79728571D01*
X142166666Y-79776190D01*
X141785714Y-79776190D01*
X142738095Y-79347619D02*
X142785714Y-79300000D01*
X142880952Y-79252380D01*
X143119047Y-79252380D01*
X143214285Y-79300000D01*
X143261904Y-79347619D01*
X143309523Y-79442857D01*
X143309523Y-79538095D01*
X143261904Y-79680952D01*
X142690476Y-80252380D01*
X143309523Y-80252380D01*
X143690476Y-79347619D02*
X143738095Y-79300000D01*
X143833333Y-79252380D01*
X144071428Y-79252380D01*
X144166666Y-79300000D01*
X144214285Y-79347619D01*
X144261904Y-79442857D01*
X144261904Y-79538095D01*
X144214285Y-79680952D01*
X143642857Y-80252380D01*
X144261904Y-80252380D01*
X169757142Y-75752380D02*
X169423809Y-75276190D01*
X169185714Y-75752380D02*
X169185714Y-74752380D01*
X169566666Y-74752380D01*
X169661904Y-74800000D01*
X169709523Y-74847619D01*
X169757142Y-74942857D01*
X169757142Y-75085714D01*
X169709523Y-75180952D01*
X169661904Y-75228571D01*
X169566666Y-75276190D01*
X169185714Y-75276190D01*
X170138095Y-74847619D02*
X170185714Y-74800000D01*
X170280952Y-74752380D01*
X170519047Y-74752380D01*
X170614285Y-74800000D01*
X170661904Y-74847619D01*
X170709523Y-74942857D01*
X170709523Y-75038095D01*
X170661904Y-75180952D01*
X170090476Y-75752380D01*
X170709523Y-75752380D01*
X171042857Y-74752380D02*
X171661904Y-74752380D01*
X171328571Y-75133333D01*
X171471428Y-75133333D01*
X171566666Y-75180952D01*
X171614285Y-75228571D01*
X171661904Y-75323809D01*
X171661904Y-75561904D01*
X171614285Y-75657142D01*
X171566666Y-75704761D01*
X171471428Y-75752380D01*
X171185714Y-75752380D01*
X171090476Y-75704761D01*
X171042857Y-75657142D01*
X161757142Y-75702380D02*
X161423809Y-75226190D01*
X161185714Y-75702380D02*
X161185714Y-74702380D01*
X161566666Y-74702380D01*
X161661904Y-74750000D01*
X161709523Y-74797619D01*
X161757142Y-74892857D01*
X161757142Y-75035714D01*
X161709523Y-75130952D01*
X161661904Y-75178571D01*
X161566666Y-75226190D01*
X161185714Y-75226190D01*
X162138095Y-74797619D02*
X162185714Y-74750000D01*
X162280952Y-74702380D01*
X162519047Y-74702380D01*
X162614285Y-74750000D01*
X162661904Y-74797619D01*
X162709523Y-74892857D01*
X162709523Y-74988095D01*
X162661904Y-75130952D01*
X162090476Y-75702380D01*
X162709523Y-75702380D01*
X163566666Y-75035714D02*
X163566666Y-75702380D01*
X163328571Y-74654761D02*
X163090476Y-75369047D01*
X163709523Y-75369047D01*
X154157142Y-75752380D02*
X153823809Y-75276190D01*
X153585714Y-75752380D02*
X153585714Y-74752380D01*
X153966666Y-74752380D01*
X154061904Y-74800000D01*
X154109523Y-74847619D01*
X154157142Y-74942857D01*
X154157142Y-75085714D01*
X154109523Y-75180952D01*
X154061904Y-75228571D01*
X153966666Y-75276190D01*
X153585714Y-75276190D01*
X154538095Y-74847619D02*
X154585714Y-74800000D01*
X154680952Y-74752380D01*
X154919047Y-74752380D01*
X155014285Y-74800000D01*
X155061904Y-74847619D01*
X155109523Y-74942857D01*
X155109523Y-75038095D01*
X155061904Y-75180952D01*
X154490476Y-75752380D01*
X155109523Y-75752380D01*
X156014285Y-74752380D02*
X155538095Y-74752380D01*
X155490476Y-75228571D01*
X155538095Y-75180952D01*
X155633333Y-75133333D01*
X155871428Y-75133333D01*
X155966666Y-75180952D01*
X156014285Y-75228571D01*
X156061904Y-75323809D01*
X156061904Y-75561904D01*
X156014285Y-75657142D01*
X155966666Y-75704761D01*
X155871428Y-75752380D01*
X155633333Y-75752380D01*
X155538095Y-75704761D01*
X155490476Y-75657142D01*
X166357142Y-75752380D02*
X166023809Y-75276190D01*
X165785714Y-75752380D02*
X165785714Y-74752380D01*
X166166666Y-74752380D01*
X166261904Y-74800000D01*
X166309523Y-74847619D01*
X166357142Y-74942857D01*
X166357142Y-75085714D01*
X166309523Y-75180952D01*
X166261904Y-75228571D01*
X166166666Y-75276190D01*
X165785714Y-75276190D01*
X166738095Y-74847619D02*
X166785714Y-74800000D01*
X166880952Y-74752380D01*
X167119047Y-74752380D01*
X167214285Y-74800000D01*
X167261904Y-74847619D01*
X167309523Y-74942857D01*
X167309523Y-75038095D01*
X167261904Y-75180952D01*
X166690476Y-75752380D01*
X167309523Y-75752380D01*
X168166666Y-74752380D02*
X167976190Y-74752380D01*
X167880952Y-74800000D01*
X167833333Y-74847619D01*
X167738095Y-74990476D01*
X167690476Y-75180952D01*
X167690476Y-75561904D01*
X167738095Y-75657142D01*
X167785714Y-75704761D01*
X167880952Y-75752380D01*
X168071428Y-75752380D01*
X168166666Y-75704761D01*
X168214285Y-75657142D01*
X168261904Y-75561904D01*
X168261904Y-75323809D01*
X168214285Y-75228571D01*
X168166666Y-75180952D01*
X168071428Y-75133333D01*
X167880952Y-75133333D01*
X167785714Y-75180952D01*
X167738095Y-75228571D01*
X167690476Y-75323809D01*
X157957142Y-75752380D02*
X157623809Y-75276190D01*
X157385714Y-75752380D02*
X157385714Y-74752380D01*
X157766666Y-74752380D01*
X157861904Y-74800000D01*
X157909523Y-74847619D01*
X157957142Y-74942857D01*
X157957142Y-75085714D01*
X157909523Y-75180952D01*
X157861904Y-75228571D01*
X157766666Y-75276190D01*
X157385714Y-75276190D01*
X158338095Y-74847619D02*
X158385714Y-74800000D01*
X158480952Y-74752380D01*
X158719047Y-74752380D01*
X158814285Y-74800000D01*
X158861904Y-74847619D01*
X158909523Y-74942857D01*
X158909523Y-75038095D01*
X158861904Y-75180952D01*
X158290476Y-75752380D01*
X158909523Y-75752380D01*
X159242857Y-74752380D02*
X159909523Y-74752380D01*
X159480952Y-75752380D01*
X151257142Y-75752380D02*
X150923809Y-75276190D01*
X150685714Y-75752380D02*
X150685714Y-74752380D01*
X151066666Y-74752380D01*
X151161904Y-74800000D01*
X151209523Y-74847619D01*
X151257142Y-74942857D01*
X151257142Y-75085714D01*
X151209523Y-75180952D01*
X151161904Y-75228571D01*
X151066666Y-75276190D01*
X150685714Y-75276190D01*
X151638095Y-74847619D02*
X151685714Y-74800000D01*
X151780952Y-74752380D01*
X152019047Y-74752380D01*
X152114285Y-74800000D01*
X152161904Y-74847619D01*
X152209523Y-74942857D01*
X152209523Y-75038095D01*
X152161904Y-75180952D01*
X151590476Y-75752380D01*
X152209523Y-75752380D01*
X152780952Y-75180952D02*
X152685714Y-75133333D01*
X152638095Y-75085714D01*
X152590476Y-74990476D01*
X152590476Y-74942857D01*
X152638095Y-74847619D01*
X152685714Y-74800000D01*
X152780952Y-74752380D01*
X152971428Y-74752380D01*
X153066666Y-74800000D01*
X153114285Y-74847619D01*
X153161904Y-74942857D01*
X153161904Y-74990476D01*
X153114285Y-75085714D01*
X153066666Y-75133333D01*
X152971428Y-75180952D01*
X152780952Y-75180952D01*
X152685714Y-75228571D01*
X152638095Y-75276190D01*
X152590476Y-75371428D01*
X152590476Y-75561904D01*
X152638095Y-75657142D01*
X152685714Y-75704761D01*
X152780952Y-75752380D01*
X152971428Y-75752380D01*
X153066666Y-75704761D01*
X153114285Y-75657142D01*
X153161904Y-75561904D01*
X153161904Y-75371428D01*
X153114285Y-75276190D01*
X153066666Y-75228571D01*
X152971428Y-75180952D01*
X120366666Y-70704761D02*
X120509523Y-70752380D01*
X120747619Y-70752380D01*
X120842857Y-70704761D01*
X120890476Y-70657142D01*
X120938095Y-70561904D01*
X120938095Y-70466666D01*
X120890476Y-70371428D01*
X120842857Y-70323809D01*
X120747619Y-70276190D01*
X120557142Y-70228571D01*
X120461904Y-70180952D01*
X120414285Y-70133333D01*
X120366666Y-70038095D01*
X120366666Y-69942857D01*
X120414285Y-69847619D01*
X120461904Y-69800000D01*
X120557142Y-69752380D01*
X120795238Y-69752380D01*
X120938095Y-69800000D01*
X121271428Y-69752380D02*
X121509523Y-70752380D01*
X121700000Y-70038095D01*
X121890476Y-70752380D01*
X122128571Y-69752380D01*
X123033333Y-70752380D02*
X122461904Y-70752380D01*
X122747619Y-70752380D02*
X122747619Y-69752380D01*
X122652380Y-69895238D01*
X122557142Y-69990476D01*
X122461904Y-70038095D01*
X101304761Y-70833333D02*
X101352380Y-70690476D01*
X101352380Y-70452380D01*
X101304761Y-70357142D01*
X101257142Y-70309523D01*
X101161904Y-70261904D01*
X101066666Y-70261904D01*
X100971428Y-70309523D01*
X100923809Y-70357142D01*
X100876190Y-70452380D01*
X100828571Y-70642857D01*
X100780952Y-70738095D01*
X100733333Y-70785714D01*
X100638095Y-70833333D01*
X100542857Y-70833333D01*
X100447619Y-70785714D01*
X100400000Y-70738095D01*
X100352380Y-70642857D01*
X100352380Y-70404761D01*
X100400000Y-70261904D01*
X100352380Y-69928571D02*
X101352380Y-69690476D01*
X100638095Y-69500000D01*
X101352380Y-69309523D01*
X100352380Y-69071428D01*
X100447619Y-68738095D02*
X100400000Y-68690476D01*
X100352380Y-68595238D01*
X100352380Y-68357142D01*
X100400000Y-68261904D01*
X100447619Y-68214285D01*
X100542857Y-68166666D01*
X100638095Y-68166666D01*
X100780952Y-68214285D01*
X101352380Y-68785714D01*
X101352380Y-68166666D01*
X184566666Y-97604761D02*
X184709523Y-97652380D01*
X184947619Y-97652380D01*
X185042857Y-97604761D01*
X185090476Y-97557142D01*
X185138095Y-97461904D01*
X185138095Y-97366666D01*
X185090476Y-97271428D01*
X185042857Y-97223809D01*
X184947619Y-97176190D01*
X184757142Y-97128571D01*
X184661904Y-97080952D01*
X184614285Y-97033333D01*
X184566666Y-96938095D01*
X184566666Y-96842857D01*
X184614285Y-96747619D01*
X184661904Y-96700000D01*
X184757142Y-96652380D01*
X184995238Y-96652380D01*
X185138095Y-96700000D01*
X185471428Y-96652380D02*
X185709523Y-97652380D01*
X185900000Y-96938095D01*
X186090476Y-97652380D01*
X186328571Y-96652380D01*
X186614285Y-96652380D02*
X187233333Y-96652380D01*
X186900000Y-97033333D01*
X187042857Y-97033333D01*
X187138095Y-97080952D01*
X187185714Y-97128571D01*
X187233333Y-97223809D01*
X187233333Y-97461904D01*
X187185714Y-97557142D01*
X187138095Y-97604761D01*
X187042857Y-97652380D01*
X186757142Y-97652380D01*
X186661904Y-97604761D01*
X186614285Y-97557142D01*
X174038095Y-59052380D02*
X174038095Y-59861904D01*
X174085714Y-59957142D01*
X174133333Y-60004761D01*
X174228571Y-60052380D01*
X174419047Y-60052380D01*
X174514285Y-60004761D01*
X174561904Y-59957142D01*
X174609523Y-59861904D01*
X174609523Y-59052380D01*
X175038095Y-59147619D02*
X175085714Y-59100000D01*
X175180952Y-59052380D01*
X175419047Y-59052380D01*
X175514285Y-59100000D01*
X175561904Y-59147619D01*
X175609523Y-59242857D01*
X175609523Y-59338095D01*
X175561904Y-59480952D01*
X174990476Y-60052380D01*
X175609523Y-60052380D01*
X134952380Y-66961904D02*
X135761904Y-66961904D01*
X135857142Y-66914285D01*
X135904761Y-66866666D01*
X135952380Y-66771428D01*
X135952380Y-66580952D01*
X135904761Y-66485714D01*
X135857142Y-66438095D01*
X135761904Y-66390476D01*
X134952380Y-66390476D01*
X134952380Y-66009523D02*
X134952380Y-65390476D01*
X135333333Y-65723809D01*
X135333333Y-65580952D01*
X135380952Y-65485714D01*
X135428571Y-65438095D01*
X135523809Y-65390476D01*
X135761904Y-65390476D01*
X135857142Y-65438095D01*
X135904761Y-65485714D01*
X135952380Y-65580952D01*
X135952380Y-65866666D01*
X135904761Y-65961904D01*
X135857142Y-66009523D01*
X173260476Y-81922380D02*
X173260476Y-82636666D01*
X173212857Y-82779523D01*
X173117619Y-82874761D01*
X172974761Y-82922380D01*
X172879523Y-82922380D01*
X174260476Y-82922380D02*
X173689047Y-82922380D01*
X173974761Y-82922380D02*
X173974761Y-81922380D01*
X173879523Y-82065238D01*
X173784285Y-82160476D01*
X173689047Y-82208095D01*
X175117619Y-81922380D02*
X174927142Y-81922380D01*
X174831904Y-81970000D01*
X174784285Y-82017619D01*
X174689047Y-82160476D01*
X174641428Y-82350952D01*
X174641428Y-82731904D01*
X174689047Y-82827142D01*
X174736666Y-82874761D01*
X174831904Y-82922380D01*
X175022380Y-82922380D01*
X175117619Y-82874761D01*
X175165238Y-82827142D01*
X175212857Y-82731904D01*
X175212857Y-82493809D01*
X175165238Y-82398571D01*
X175117619Y-82350952D01*
X175022380Y-82303333D01*
X174831904Y-82303333D01*
X174736666Y-82350952D01*
X174689047Y-82398571D01*
X174641428Y-82493809D01*
X171557142Y-56352380D02*
X171223809Y-55876190D01*
X170985714Y-56352380D02*
X170985714Y-55352380D01*
X171366666Y-55352380D01*
X171461904Y-55400000D01*
X171509523Y-55447619D01*
X171557142Y-55542857D01*
X171557142Y-55685714D01*
X171509523Y-55780952D01*
X171461904Y-55828571D01*
X171366666Y-55876190D01*
X170985714Y-55876190D01*
X171938095Y-55447619D02*
X171985714Y-55400000D01*
X172080952Y-55352380D01*
X172319047Y-55352380D01*
X172414285Y-55400000D01*
X172461904Y-55447619D01*
X172509523Y-55542857D01*
X172509523Y-55638095D01*
X172461904Y-55780952D01*
X171890476Y-56352380D01*
X172509523Y-56352380D01*
X172985714Y-56352380D02*
X173176190Y-56352380D01*
X173271428Y-56304761D01*
X173319047Y-56257142D01*
X173414285Y-56114285D01*
X173461904Y-55923809D01*
X173461904Y-55542857D01*
X173414285Y-55447619D01*
X173366666Y-55400000D01*
X173271428Y-55352380D01*
X173080952Y-55352380D01*
X172985714Y-55400000D01*
X172938095Y-55447619D01*
X172890476Y-55542857D01*
X172890476Y-55780952D01*
X172938095Y-55876190D01*
X172985714Y-55923809D01*
X173080952Y-55971428D01*
X173271428Y-55971428D01*
X173366666Y-55923809D01*
X173414285Y-55876190D01*
X173461904Y-55780952D01*
X171557142Y-57852380D02*
X171223809Y-57376190D01*
X170985714Y-57852380D02*
X170985714Y-56852380D01*
X171366666Y-56852380D01*
X171461904Y-56900000D01*
X171509523Y-56947619D01*
X171557142Y-57042857D01*
X171557142Y-57185714D01*
X171509523Y-57280952D01*
X171461904Y-57328571D01*
X171366666Y-57376190D01*
X170985714Y-57376190D01*
X171890476Y-56852380D02*
X172509523Y-56852380D01*
X172176190Y-57233333D01*
X172319047Y-57233333D01*
X172414285Y-57280952D01*
X172461904Y-57328571D01*
X172509523Y-57423809D01*
X172509523Y-57661904D01*
X172461904Y-57757142D01*
X172414285Y-57804761D01*
X172319047Y-57852380D01*
X172033333Y-57852380D01*
X171938095Y-57804761D01*
X171890476Y-57757142D01*
X173128571Y-56852380D02*
X173223809Y-56852380D01*
X173319047Y-56900000D01*
X173366666Y-56947619D01*
X173414285Y-57042857D01*
X173461904Y-57233333D01*
X173461904Y-57471428D01*
X173414285Y-57661904D01*
X173366666Y-57757142D01*
X173319047Y-57804761D01*
X173223809Y-57852380D01*
X173128571Y-57852380D01*
X173033333Y-57804761D01*
X172985714Y-57757142D01*
X172938095Y-57661904D01*
X172890476Y-57471428D01*
X172890476Y-57233333D01*
X172938095Y-57042857D01*
X172985714Y-56947619D01*
X173033333Y-56900000D01*
X173128571Y-56852380D01*
X175257142Y-56452380D02*
X174923809Y-55976190D01*
X174685714Y-56452380D02*
X174685714Y-55452380D01*
X175066666Y-55452380D01*
X175161904Y-55500000D01*
X175209523Y-55547619D01*
X175257142Y-55642857D01*
X175257142Y-55785714D01*
X175209523Y-55880952D01*
X175161904Y-55928571D01*
X175066666Y-55976190D01*
X174685714Y-55976190D01*
X175590476Y-55452380D02*
X176209523Y-55452380D01*
X175876190Y-55833333D01*
X176019047Y-55833333D01*
X176114285Y-55880952D01*
X176161904Y-55928571D01*
X176209523Y-56023809D01*
X176209523Y-56261904D01*
X176161904Y-56357142D01*
X176114285Y-56404761D01*
X176019047Y-56452380D01*
X175733333Y-56452380D01*
X175638095Y-56404761D01*
X175590476Y-56357142D01*
X177161904Y-56452380D02*
X176590476Y-56452380D01*
X176876190Y-56452380D02*
X176876190Y-55452380D01*
X176780952Y-55595238D01*
X176685714Y-55690476D01*
X176590476Y-55738095D01*
X175557142Y-58352380D02*
X175223809Y-57876190D01*
X174985714Y-58352380D02*
X174985714Y-57352380D01*
X175366666Y-57352380D01*
X175461904Y-57400000D01*
X175509523Y-57447619D01*
X175557142Y-57542857D01*
X175557142Y-57685714D01*
X175509523Y-57780952D01*
X175461904Y-57828571D01*
X175366666Y-57876190D01*
X174985714Y-57876190D01*
X175890476Y-57352380D02*
X176509523Y-57352380D01*
X176176190Y-57733333D01*
X176319047Y-57733333D01*
X176414285Y-57780952D01*
X176461904Y-57828571D01*
X176509523Y-57923809D01*
X176509523Y-58161904D01*
X176461904Y-58257142D01*
X176414285Y-58304761D01*
X176319047Y-58352380D01*
X176033333Y-58352380D01*
X175938095Y-58304761D01*
X175890476Y-58257142D01*
X176890476Y-57447619D02*
X176938095Y-57400000D01*
X177033333Y-57352380D01*
X177271428Y-57352380D01*
X177366666Y-57400000D01*
X177414285Y-57447619D01*
X177461904Y-57542857D01*
X177461904Y-57638095D01*
X177414285Y-57780952D01*
X176842857Y-58352380D01*
X177461904Y-58352380D01*
X169947619Y-86995238D02*
X169900000Y-87090476D01*
X169804761Y-87185714D01*
X169661904Y-87328571D01*
X169614285Y-87423809D01*
X169614285Y-87519047D01*
X169852380Y-87471428D02*
X169804761Y-87566666D01*
X169709523Y-87661904D01*
X169519047Y-87709523D01*
X169185714Y-87709523D01*
X168995238Y-87661904D01*
X168900000Y-87566666D01*
X168852380Y-87471428D01*
X168852380Y-87280952D01*
X168900000Y-87185714D01*
X168995238Y-87090476D01*
X169185714Y-87042857D01*
X169519047Y-87042857D01*
X169709523Y-87090476D01*
X169804761Y-87185714D01*
X169852380Y-87280952D01*
X169852380Y-87471428D01*
X168852380Y-86138095D02*
X168852380Y-86614285D01*
X169328571Y-86661904D01*
X169280952Y-86614285D01*
X169233333Y-86519047D01*
X169233333Y-86280952D01*
X169280952Y-86185714D01*
X169328571Y-86138095D01*
X169423809Y-86090476D01*
X169661904Y-86090476D01*
X169757142Y-86138095D01*
X169804761Y-86185714D01*
X169852380Y-86280952D01*
X169852380Y-86519047D01*
X169804761Y-86614285D01*
X169757142Y-86661904D01*
X112833333Y-70757142D02*
X112785714Y-70804761D01*
X112642857Y-70852380D01*
X112547619Y-70852380D01*
X112404761Y-70804761D01*
X112309523Y-70709523D01*
X112261904Y-70614285D01*
X112214285Y-70423809D01*
X112214285Y-70280952D01*
X112261904Y-70090476D01*
X112309523Y-69995238D01*
X112404761Y-69900000D01*
X112547619Y-69852380D01*
X112642857Y-69852380D01*
X112785714Y-69900000D01*
X112833333Y-69947619D01*
X113214285Y-69947619D02*
X113261904Y-69900000D01*
X113357142Y-69852380D01*
X113595238Y-69852380D01*
X113690476Y-69900000D01*
X113738095Y-69947619D01*
X113785714Y-70042857D01*
X113785714Y-70138095D01*
X113738095Y-70280952D01*
X113166666Y-70852380D01*
X113785714Y-70852380D01*
X103457142Y-68157142D02*
X103409523Y-68204761D01*
X103266666Y-68252380D01*
X103171428Y-68252380D01*
X103028571Y-68204761D01*
X102933333Y-68109523D01*
X102885714Y-68014285D01*
X102838095Y-67823809D01*
X102838095Y-67680952D01*
X102885714Y-67490476D01*
X102933333Y-67395238D01*
X103028571Y-67300000D01*
X103171428Y-67252380D01*
X103266666Y-67252380D01*
X103409523Y-67300000D01*
X103457142Y-67347619D01*
X104409523Y-68252380D02*
X103838095Y-68252380D01*
X104123809Y-68252380D02*
X104123809Y-67252380D01*
X104028571Y-67395238D01*
X103933333Y-67490476D01*
X103838095Y-67538095D01*
X104742857Y-67252380D02*
X105409523Y-67252380D01*
X104980952Y-68252380D01*
X113526190Y-64476190D02*
X114002380Y-64476190D01*
X113002380Y-64809523D02*
X113526190Y-64476190D01*
X113002380Y-64142857D01*
X114002380Y-63285714D02*
X114002380Y-63857142D01*
X114002380Y-63571428D02*
X113002380Y-63571428D01*
X113145238Y-63666666D01*
X113240476Y-63761904D01*
X113288095Y-63857142D01*
M02*
