M48
;DRILL file {KiCad 5.0.0-fee4fd1~66~ubuntu16.04.1} date Mon Mar  9 22:27:51 2020
;FORMAT={-:-/ absolute / inch / decimal}
FMAT,2
INCH,TZ
T1C0.0157
T2C0.0197
T3C0.0236
T4C0.0300
T5C0.0315
T6C0.0335
T7C0.0374
T8C0.0394
%
G90
G05
M72
T1
X4.1693Y-2.4055
X4.1693Y-2.4528
X4.252Y-2.7087
X4.252Y-3.1378
X4.2559Y-2.2677
X4.311Y-2.5197
X4.311Y-2.5709
X4.3189Y-2.6181
X4.378Y-3.3307
X4.4213Y-2.0748
X4.4409Y-2.7126
X4.4528Y-2.0315
X4.4606Y-2.2333
X4.4646Y-2.7992
X4.4921Y-2.563
X4.5Y-2.2953
X4.5039Y-2.6063
X4.5236Y-3.0315
X4.5315Y-2.5315
X4.5335Y-2.2047
X4.5335Y-2.3917
X4.5591Y-3.3642
X4.5669Y-2.6063
X4.5704Y-2.5625
X4.5748Y-2.4409
X4.5787Y-2.3071
X4.5906Y-2.252
X4.6417Y-3.1378
X4.6654Y-2.6969
X4.685Y-2.7953
X4.689Y-2.1811
X4.7087Y-3.3661
X4.7795Y-3.0315
X4.7835Y-2.7756
X4.7874Y-2.1535
X4.8425Y-2.1486
X4.8701Y-2.2126
X4.9291Y-2.878
X4.9449Y-2.8031
X4.9646Y-2.4449
X4.9764Y-2.2441
X4.9769Y-3.378
X5.0054Y-2.8912
X5.0054Y-3.8991
X5.0167Y-2.1772
X5.2047Y-2.6063
X5.2323Y-2.1339
X5.2402Y-2.8425
X5.2795Y-2.7008
X5.3031Y-3.6654
X5.3346Y-3.7992
X5.3366Y-2.309
X5.3701Y-2.3386
X5.4493Y-3.8391
X5.5787Y-2.8307
X5.6014Y-3.3711
X5.6024Y-2.3297
X5.6181Y-2.5197
X5.6693Y-2.4409
X5.6693Y-3.3189
X5.6732Y-2.1654
X5.6811Y-3.6496
X5.6882Y-2.3433
X5.6929Y-2.5482
X5.6969Y-2.4803
X5.7038Y-3.6976
X5.7047Y-3.8268
X5.7087Y-2.7087
X5.7126Y-2.5827
X5.748Y-3.8071
X5.811Y-2.5433
X5.8949Y-2.8346
X5.8976Y-2.436
X5.9055Y-2.1457
X6.0157Y-3.1811
X6.0512Y-2.7165
X6.0555Y-2.6246
X6.0591Y-2.4961
X6.063Y-2.8346
X6.0658Y-2.9718
X6.0984Y-2.2402
X6.0984Y-3.0984
X6.1535Y-3.0157
X6.2283Y-2.3615
X6.2283Y-2.5
X6.2894Y-2.4094
X6.2894Y-2.4931
X6.3185Y-2.3559
X6.3386Y-3.1378
X6.3386Y-3.2136
X6.3425Y-2.7323
X6.3465Y-2.1791
X6.3504Y-2.4646
X6.3661Y-2.4055
X6.3937Y-2.7323
X6.3976Y-2.8346
X6.4449Y-3.0906
X6.4685Y-2.3071
X6.4921Y-3.0669
X6.5039Y-2.3329
X6.5039Y-2.4173
X6.5197Y-2.0079
X6.5354Y-3.6693
X6.5472Y-2.39
X6.563Y-2.8335
X6.5973Y-2.9225
X6.5984Y-2.2008
X6.6255Y-2.7121
X6.626Y-2.874
X6.6378Y-3.185
X6.7047Y-2.3189
X6.7047Y-2.4902
X6.7047Y-2.5512
X6.7126Y-2.
X6.7126Y-3.8346
X6.7244Y-2.7047
X6.7618Y-2.6752
X6.7638Y-2.4223
X6.7717Y-2.9685
X6.8189Y-2.3504
X6.8504Y-3.7992
X6.8701Y-2.1654
X6.8701Y-2.2441
X6.9193Y-2.3976
X6.9213Y-3.1969
X6.94Y-2.3189
X6.9439Y-3.063
X6.9449Y-1.9974
X6.9685Y-2.3976
X6.9783Y-2.8799
X6.9803Y-3.6378
X6.9823Y-3.2992
X7.0118Y-3.8189
X7.0177Y-3.1988
X7.0177Y-3.4429
X7.0197Y-2.5394
X7.0531Y-2.3189
X7.0709Y-3.1988
X7.0753Y-3.2982
X7.1063Y-3.0197
X7.1063Y-3.7913
X7.122Y-2.315
X7.122Y-2.3858
X7.1339Y-2.6811
X7.1404Y-3.2383
X7.1693Y-3.2008
X7.1693Y-3.3799
X7.1811Y-3.0315
X7.2096Y-2.5433
X7.2185Y-3.2008
X7.2185Y-3.3248
X7.2402Y-3.7913
X7.2402Y-3.8937
X7.2559Y-3.2677
X7.2598Y-2.2697
X7.2677Y-2.3504
X7.2972Y-3.6043
X7.315Y-3.2008
X7.3189Y-2.3189
X7.3189Y-2.3878
X7.3425Y-2.9724
X7.3701Y-2.5354
X7.3787Y-3.3543
X7.3996Y-3.4902
X7.4075Y-2.3563
X7.4094Y-2.2598
X7.4094Y-3.6969
X7.4134Y-3.8189
X7.4193Y-2.5335
X7.4193Y-2.6358
X7.4193Y-3.2028
X7.4508Y-3.2835
X7.4567Y-3.3248
X7.4606Y-3.8937
X7.4705Y-2.5354
X7.4705Y-2.8799
X7.5Y-3.5984
X7.5Y-3.7874
X7.5Y-3.8622
X7.5217Y-3.2067
X7.5512Y-3.811
X7.5984Y-3.626
T3
X4.1614Y-2.6693
X4.2717Y-2.2087
X4.3031Y-3.6339
X4.3386Y-2.2283
X4.4567Y-3.6772
X4.4803Y-2.7441
X4.5079Y-3.874
X4.5157Y-3.6024
X4.5591Y-3.7185
X4.622Y-2.811
X4.7244Y-2.7244
X4.7283Y-2.9685
X4.7362Y-3.5787
X4.7756Y-3.7953
X4.7992Y-3.3543
X4.969Y-3.3071
X5.0039Y-2.5118
X5.0276Y-2.6752
X5.0551Y-3.311
X5.0827Y-2.5787
X5.1575Y-2.4134
X5.1575Y-2.8031
X5.2244Y-2.4134
X5.2638Y-2.2441
X5.2982Y-2.4075
X5.4213Y-2.6811
X5.6683Y-3.7756
X6.955Y-2.6043
X6.9961Y-2.7638
X7.565Y-2.7539
X7.5689Y-3.0472
X7.5689Y-3.2028
X7.5768Y-2.5492
T4
X5.8346Y-2.0433
X5.8346Y-2.4055
X6.4252Y-2.0433
X6.4252Y-2.4055
X4.8386Y-3.5256
X4.8386Y-3.624
X4.8386Y-3.75
X4.8386Y-3.8563
X5.3898Y-3.5256
X5.3898Y-3.624
X5.3898Y-3.75
X5.3898Y-3.8563
X5.5315Y-3.1949
X5.5315Y-3.3012
T5
X4.2717Y-2.0079
X4.689Y-2.4961
X5.1929Y-2.0157
X5.2008Y-2.2402
X5.4252Y-3.0906
X5.4882Y-2.3819
X5.6732Y-3.2598
X5.6811Y-2.7913
X5.689Y-3.063
X5.7165Y-2.122
X5.7441Y-2.2431
X5.7677Y-2.0075
X5.8228Y-3.0827
X5.8465Y-2.2362
X5.9094Y-3.4449
X5.9449Y-2.8976
X5.9883Y-3.311
X6.0157Y-3.1024
X6.0276Y-3.2598
X6.1339Y-2.8976
X6.1929Y-2.7901
X6.2441Y-3.4567
X6.252Y-2.2441
X6.3661Y-3.2598
X6.4134Y-2.3022
X6.5394Y-2.8976
X6.5866Y-3.4567
X6.689Y-2.7913
X6.7008Y-3.1703
X6.7283Y-3.6024
X6.8543Y-3.1703
X7.5118Y-2.2441
X7.5157Y-2.374
X7.625Y-3.375
X7.6417Y-2.4488
T6
X4.1161Y-2.3327
X4.1161Y-2.5295
T7
X4.5906Y-2.0827
X4.689Y-2.0827
X4.7874Y-2.0827
X4.8858Y-2.0827
X4.9843Y-2.0827
X5.0827Y-2.0827
T8
X4.0157Y-2.752
X4.378Y-2.9685
X5.2638Y-3.0039
X5.5118Y-2.5394
X5.5157Y-2.8976
X6.2598Y-2.0551
X6.1457Y-3.7598
X6.2441Y-3.7598
X4.1004Y-3.0886
X4.1004Y-3.187
X5.5098Y-3.4409
X5.5098Y-3.5409
X5.5098Y-3.6409
X5.5098Y-3.7409
X5.5098Y-3.8409
X5.6098Y-3.4409
X5.6098Y-3.5409
X5.6098Y-3.6409
X5.6098Y-3.7409
X5.6098Y-3.8409
X4.1004Y-3.4232
X4.1004Y-3.5217
X5.0772Y-3.4453
X5.0772Y-3.5453
X5.0772Y-3.6453
X5.0772Y-3.7453
X5.0772Y-3.8453
X5.1772Y-3.4453
X5.1772Y-3.5453
X5.1772Y-3.6453
X5.1772Y-3.7453
X5.1772Y-3.8453
X7.1063Y-2.0437
X7.1063Y-2.1437
X7.2063Y-2.0437
X7.2063Y-2.1437
X7.3063Y-2.0437
X7.3063Y-2.1437
X7.4063Y-2.0437
X7.4063Y-2.1437
X7.5063Y-2.0437
X7.5063Y-2.1437
X5.6043Y-2.1024
X5.6043Y-2.2008
X6.4823Y-3.7598
X6.5807Y-3.7598
X5.2874Y-2.063
X5.2874Y-2.163
X5.3874Y-2.063
X5.3874Y-2.163
X5.811Y-3.7598
X5.9094Y-3.7598
X6.8031Y-3.3386
X6.8031Y-3.4386
X6.9031Y-3.3386
X6.9031Y-3.4386
X6.1906Y-2.5669
X6.1906Y-2.6669
X6.2906Y-2.5669
X6.2906Y-2.6669
X6.3906Y-2.5669
X6.3906Y-2.6669
X6.4906Y-2.5669
X6.4906Y-2.6669
X6.5906Y-2.5669
X6.5906Y-2.6669
X4.372Y-3.4232
X4.372Y-3.5217
X7.1535Y-3.4433
X7.1535Y-3.5433
X7.2535Y-3.4433
X7.2535Y-3.5433
X7.3535Y-3.4433
X7.3535Y-3.5433
X7.4535Y-3.4433
X7.4535Y-3.5433
X7.5535Y-3.4433
X7.5535Y-3.5433
X4.372Y-3.0886
X4.372Y-3.187
T2
X4.0256Y-2.2933G85X3.9941Y-2.2933
G05
X4.0256Y-2.5689G85X3.9941Y-2.5689
G05
T0
M30
